AnekKannada-ExpandedMedium.ufo
<glyph name="parenright" format="2">
  <advance width="774"/>
  <unicode hex="0029"/>
  <outline>
    <contour>
      <point x="390" y="566" type="line" smooth="yes"/>
      <point x="390" y="852"/>
      <point x="284" y="1124"/>
      <point x="68" y="1348" type="curve"/>
      <point x="302" y="1348" type="line"/>
      <point x="506" y="1131"/>
      <point x="606" y="865"/>
      <point x="606" y="566" type="curve" smooth="yes"/>
      <point x="606" y="547" type="line" smooth="yes"/>
      <point x="606" y="236"/>
      <point x="511" y="-28"/>
      <point x="306" y="-248" type="curve"/>
      <point x="68" y="-248" type="line"/>
      <point x="285" y="-21"/>
      <point x="390" y="255"/>
      <point x="390" y="547" type="curve" smooth="yes"/>
    </contour>
  </outline>
</glyph>
<glyph name="asterisk" format="2">
  <advance width="921"/>
  <unicode hex="002A"/>
  <outline>
    <contour>
      <point x="461" y="816" type="line"/>
      <point x="460" y="816" type="line"/>
      <point x="634" y="576" type="line"/>
      <point x="782" y="686" type="line"/>
      <point x="574" y="891" type="line"/>
      <point x="575" y="890" type="line"/>
      <point x="857" y="943" type="line"/>
      <point x="810" y="1116" type="line"/>
      <point x="532" y="1008" type="line"/>
      <point x="532" y="1007" type="line"/>
      <point x="558" y="1278" type="line"/>
      <point x="363" y="1278" type="line"/>
      <point x="390" y="1007" type="line"/>
      <point x="389" y="1008" type="line"/>
      <point x="111" y="1116" type="line"/>
      <point x="64" y="943" type="line"/>
      <point x="346" y="890" type="line"/>
      <point x="346" y="891" type="line"/>
      <point x="138" y="686" type="line"/>
      <point x="289" y="576" type="line"/>
    </contour>
  </outline>
</glyph>
<glyph name="five" format="2">
  <advance width="1439"/>
  <unicode hex="0035"/>
  <outline>
    <contour>
      <point x="717" y="-26" type="curve" smooth="yes"/>
      <point x="1153" y="-26"/>
      <point x="1336" y="155"/>
      <point x="1336" y="412" type="curve" smooth="yes"/>
      <point x="1336" y="427" type="line" smooth="yes"/>
      <point x="1336" y="685"/>
      <point x="1179" y="835"/>
      <point x="863" y="835" type="curve" smooth="yes"/>
      <point x="621" y="835"/>
      <point x="466" y="747"/>
      <point x="386" y="633" type="curve"/>
      <point x="378" y="633" type="line"/>
      <point x="380" y="824" type="line"/>
      <point x="380" y="1097" type="line"/>
      <point x="1281" y="1097" type="line"/>
      <point x="1281" y="1278" type="line"/>
      <point x="165" y="1278" type="line"/>
      <point x="165" y="533" type="line"/>
      <point x="357" y="493" type="line"/>
      <point x="454" y="594"/>
      <point x="598" y="657"/>
      <point x="786" y="657" type="curve" smooth="yes"/>
      <point x="1011" y="657"/>
      <point x="1113" y="570"/>
      <point x="1113" y="425" type="curve" smooth="yes"/>
      <point x="1113" y="416" type="line" smooth="yes"/>
      <point x="1113" y="266"/>
      <point x="1000" y="164"/>
      <point x="705" y="164" type="curve" smooth="yes"/>
      <point x="475" y="164"/>
      <point x="280" y="225"/>
      <point x="155" y="285" type="curve"/>
      <point x="179" y="78" type="line"/>
      <point x="279" y="32"/>
      <point x="466" y="-26"/>
    </contour>
  </outline>
</glyph>
<glyph name="at" format="2">
  <advance width="2074"/>
  <unicode hex="0040"/>
  <outline>
    <contour>
      <point x="924" y="70" type="curve" smooth="yes"/>
      <point x="1113" y="70"/>
      <point x="1207" y="162"/>
      <point x="1255" y="281" type="curve"/>
      <point x="1313" y="281" type="line"/>
      <point x="1280" y="433" type="line"/>
      <point x="1244" y="318"/>
      <point x="1139" y="239"/>
      <point x="1015" y="239" type="curve" smooth="yes"/>
      <point x="889" y="239"/>
      <point x="815" y="302"/>
      <point x="815" y="433" type="curve" smooth="yes"/>
      <point x="815" y="436"/>
      <point x="815" y="439"/>
      <point x="815" y="442" type="curve" smooth="yes"/>
      <point x="817" y="611"/>
      <point x="899" y="730"/>
      <point x="1065" y="730" type="curve" smooth="yes"/>
      <point x="1200" y="730"/>
      <point x="1286" y="653"/>
      <point x="1285" y="502" type="curve" smooth="yes"/>
      <point x="1285" y="495"/>
      <point x="1285" y="487"/>
      <point x="1285" y="479" type="curve"/>
      <point x="1350" y="682" type="line"/>
      <point x="1290" y="682" type="line"/>
      <point x="1263" y="809"/>
      <point x="1181" y="892"/>
      <point x="1002" y="892" type="curve" smooth="yes"/>
      <point x="742" y="892"/>
      <point x="607" y="692"/>
      <point x="605" y="418" type="curve" smooth="yes"/>
      <point x="605" y="415"/>
      <point x="605" y="411"/>
      <point x="605" y="408" type="curve" smooth="yes"/>
      <point x="605" y="186"/>
      <point x="732" y="70"/>
    </contour>
    <contour>
      <point x="1441" y="129" type="line"/>
      <point x="1509" y="869" type="line"/>
      <point x="1315" y="869" type="line"/>
      <point x="1314" y="857" type="line"/>
      <point x="1295" y="633" type="line"/>
      <point x="1295" y="603" type="line"/>
      <point x="1271" y="372" type="line"/>
      <point x="1270" y="334" type="line"/>
      <point x="1242" y="85" type="line"/>
    </contour>
    <contour>
      <point x="1242" y="85" type="line"/>
      <point x="1288" y="79"/>
      <point x="1322" y="80"/>
      <point x="1368" y="80" type="curve" smooth="yes"/>
      <point x="1754" y="80"/>
      <point x="1975" y="238"/>
      <point x="1975" y="624" type="curve" smooth="yes"/>
      <point x="1975" y="630"/>
      <point x="1975" y="636"/>
      <point x="1975" y="641" type="curve" smooth="yes"/>
      <point x="1974" y="1081"/>
      <point x="1665" y="1332"/>
      <point x="1112" y="1332" type="curve" smooth="yes"/>
      <point x="491" y="1332"/>
      <point x="116" y="993"/>
      <point x="114" y="404" type="curve" smooth="yes"/>
      <point x="114" y="399"/>
      <point x="114" y="394"/>
      <point x="114" y="388" type="curve" smooth="yes"/>
      <point x="114" y="-116"/>
      <point x="433" y="-374"/>
      <point x="1003" y="-374" type="curve" smooth="yes"/>
      <point x="1323" y="-374"/>
      <point x="1548" y="-318"/>
      <point x="1735" y="-225" type="curve"/>
      <point x="1771" y="-48" type="line"/>
      <point x="1576" y="-160"/>
      <point x="1322" y="-222"/>
      <point x="1033" y="-222" type="curve" smooth="yes"/>
      <point x="554" y="-222"/>
      <point x="297" y="-21"/>
      <point x="297" y="393" type="curve" smooth="yes"/>
      <point x="297" y="396"/>
      <point x="297" y="401"/>
      <point x="297" y="405" type="curve" smooth="yes"/>
      <point x="298" y="899"/>
      <point x="587" y="1185"/>
      <point x="1102" y="1185" type="curve" smooth="yes"/>
      <point x="1559" y="1185"/>
      <point x="1791" y="994"/>
      <point x="1792" y="641" type="curve" smooth="yes"/>
      <point x="1792" y="636"/>
      <point x="1792" y="629"/>
      <point x="1792" y="624" type="curve" smooth="yes"/>
      <point x="1792" y="354"/>
      <point x="1665" y="235"/>
      <point x="1470" y="235" type="curve" smooth="yes"/>
      <point x="1431" y="235"/>
      <point x="1415" y="236"/>
      <point x="1394" y="240" type="curve"/>
    </contour>
  </outline>
</glyph>
<glyph name="B" format="2">
  <advance width="1608"/>
  <unicode hex="0042"/>
  <anchor x="806" y="0" name="bottom"/>
  <anchor x="806" y="1278" name="top"/>
  <outline>
    <contour>
      <point x="1044" y="0" type="line" smooth="yes"/>
      <point x="1360" y="0"/>
      <point x="1500" y="135"/>
      <point x="1500" y="353" type="curve" smooth="yes"/>
      <point x="1500" y="369" type="line" smooth="yes"/>
      <point x="1500" y="560"/>
      <point x="1395" y="665"/>
      <point x="1204" y="690" type="curve"/>
      <point x="1204" y="699" type="line"/>
      <point x="1371" y="713"/>
      <point x="1460" y="810"/>
      <point x="1460" y="954" type="curve" smooth="yes"/>
      <point x="1460" y="969" type="line" smooth="yes"/>
      <point x="1460" y="1166"/>
      <point x="1330" y="1278"/>
      <point x="1016" y="1278" type="curve" smooth="yes"/>
      <point x="345" y="1278" type="line"/>
      <point x="345" y="1100" type="line"/>
      <point x="1005" y="1100" type="line" smooth="yes"/>
      <point x="1166" y="1100"/>
      <point x="1236" y="1035"/>
      <point x="1236" y="927" type="curve" smooth="yes"/>
      <point x="1236" y="915" type="line" smooth="yes"/>
      <point x="1236" y="813"/>
      <point x="1166" y="745"/>
      <point x="1005" y="745" type="curve" smooth="yes"/>
      <point x="345" y="745" type="line"/>
      <point x="345" y="571" type="line"/>
      <point x="1026" y="571" type="line" smooth="yes"/>
      <point x="1197" y="571"/>
      <point x="1270" y="501"/>
      <point x="1270" y="383" type="curve" smooth="yes"/>
      <point x="1270" y="370" type="line" smooth="yes"/>
      <point x="1270" y="254"/>
      <point x="1195" y="181"/>
      <point x="1029" y="181" type="curve" smooth="yes"/>
      <point x="345" y="181" type="line"/>
      <point x="345" y="0" type="line"/>
    </contour>
    <contour>
      <point x="404" y="0" type="line"/>
      <point x="404" y="1278" type="line"/>
      <point x="185" y="1278" type="line"/>
      <point x="185" y="0" type="line"/>
    </contour>
  </outline>
</glyph>
<glyph name="E" format="2">
  <advance width="1473"/>
  <unicode hex="0045"/>
  <anchor x="773" y="0" name="bottom"/>
  <anchor x="1363" y="5" name="ogonek"/>
  <anchor x="773" y="1278" name="top"/>
  <anchor x="20" y="1278" name="topleft"/>
  <outline>
    <contour>
      <point x="404" y="0" type="line"/>
      <point x="404" y="1278" type="line"/>
      <point x="185" y="1278" type="line"/>
      <point x="185" y="0" type="line"/>
    </contour>
    <contour>
      <point x="1346" y="0" type="line"/>
      <point x="1346" y="181" type="line"/>
      <point x="196" y="181" type="line"/>
      <point x="196" y="0" type="line"/>
    </contour>
    <contour>
      <point x="1309" y="560" type="line"/>
      <point x="1309" y="738" type="line"/>
      <point x="299" y="738" type="line"/>
      <point x="299" y="560" type="line"/>
    </contour>
    <contour>
      <point x="1332" y="1097" type="line"/>
      <point x="1332" y="1278" type="line"/>
      <point x="196" y="1278" type="line"/>
      <point x="196" y="1097" type="line"/>
    </contour>
  </outline>
</glyph>
<glyph name="V" format="2">
  <advance width="1565"/>
  <unicode hex="0056"/>
  <anchor x="783" y="0" name="bottom"/>
  <anchor x="783" y="1278" name="top"/>
  <outline>
    <contour>
      <point x="952" y="0" type="line"/>
      <point x="1518" y="1278" type="line"/>
      <point x="1277" y="1278" type="line"/>
      <point x="796" y="171" type="line"/>
      <point x="769" y="171" type="line"/>
      <point x="288" y="1278" type="line"/>
      <point x="47" y="1278" type="line"/>
      <point x="615" y="0" type="line"/>
    </contour>
  </outline>
</glyph>
<glyph name="Z" format="2">
  <advance width="1441"/>
  <unicode hex="005A"/>
  <anchor x="721" y="0" name="bottom"/>
  <anchor x="721" y="639" name="center"/>
  <anchor x="721" y="1278" name="top"/>
  <outline>
    <contour>
      <point x="398" y="182" type="line"/>
      <point x="1327" y="1105" type="line"/>
      <point x="1327" y="1278" type="line"/>
      <point x="112" y="1278" type="line"/>
      <point x="112" y="1097" type="line"/>
      <point x="1030" y="1097" type="line"/>
      <point x="104" y="172" type="line"/>
      <point x="104" y="0" type="line"/>
      <point x="1337" y="0" type="line"/>
      <point x="1337" y="182" type="line"/>
    </contour>
  </outline>
</glyph>
<glyph name="c" format="2">
  <advance width="1229"/>
  <unicode hex="0063"/>
  <anchor x="660" y="0" name="bottom"/>
  <anchor x="660" y="958" name="top"/>
  <outline>
    <contour>
      <point x="690" y="-32" type="curve" smooth="yes"/>
      <point x="888" y="-32"/>
      <point x="1031" y="18"/>
      <point x="1120" y="69" type="curve"/>
      <point x="1141" y="261" type="line"/>
      <point x="1036" y="200"/>
      <point x="907" y="149"/>
      <point x="727" y="149" type="curve" smooth="yes"/>
      <point x="461" y="149"/>
      <point x="321" y="267"/>
      <point x="321" y="476" type="curve" smooth="yes"/>
      <point x="321" y="493" type="line" smooth="yes"/>
      <point x="321" y="700"/>
      <point x="457" y="814"/>
      <point x="719" y="814" type="curve" smooth="yes"/>
      <point x="900" y="814"/>
      <point x="1031" y="763"/>
      <point x="1129" y="703" type="curve"/>
      <point x="1108" y="893" type="line"/>
      <point x="1023" y="941"/>
      <point x="883" y="992"/>
      <point x="688" y="992" type="curve" smooth="yes"/>
      <point x="306" y="992"/>
      <point x="101" y="813"/>
      <point x="101" y="494" type="curve" smooth="yes"/>
      <point x="101" y="475" type="line" smooth="yes"/>
      <point x="101" y="149"/>
      <point x="306" y="-32"/>
    </contour>
  </outline>
</glyph>
<glyph name="j" format="2">
  <advance width="587"/>
  <unicode hex="006A"/>
  <outline>
    <component base="jbottom"/>
    <contour>
      <point x="425" y="172" type="line"/>
      <point x="425" y="958" type="line"/>
      <point x="208" y="958" type="line"/>
      <point x="208" y="172" type="line"/>
    </contour>
    <contour>
      <point x="316" y="1104" type="curve" smooth="yes"/>
      <point x="407" y="1104"/>
      <point x="450" y="1145"/>
      <point x="450" y="1215" type="curve" smooth="yes"/>
      <point x="450" y="1219" type="line" smooth="yes"/>
      <point x="450" y="1287"/>
      <point x="407" y="1329"/>
      <point x="316" y="1329" type="curve" smooth="yes"/>
      <point x="226" y="1329"/>
      <point x="184" y="1287"/>
      <point x="184" y="1219" type="curve" smooth="yes"/>
      <point x="184" y="1215" type="line" smooth="yes"/>
      <point x="184" y="1146"/>
      <point x="226" y="1104"/>
    </contour>
  </outline>
</glyph>
<glyph name="o" format="2">
  <advance width="1409"/>
  <unicode hex="006F"/>
  <anchor x="705" y="0" name="bottom"/>
  <anchor x="705" y="479" name="center"/>
  <anchor x="1017" y="5" name="ogonek"/>
  <anchor x="705" y="958" name="top"/>
  <anchor x="1251" y="958" name="topright"/>
  <outline>
    <contour>
      <point x="704" y="-30" type="curve" smooth="yes"/>
      <point x="1096" y="-30"/>
      <point x="1308" y="146"/>
      <point x="1308" y="468" type="curve"/>
      <point x="1308" y="493" type="line"/>
      <point x="1308" y="813"/>
      <point x="1096" y="990"/>
      <point x="704" y="990" type="curve" smooth="yes"/>
      <point x="313" y="990"/>
      <point x="101" y="813"/>
      <point x="101" y="493" type="curve"/>
      <point x="101" y="468" type="line"/>
      <point x="101" y="147"/>
      <point x="312" y="-30"/>
    </contour>
    <contour>
      <point x="704" y="143" type="curve" smooth="yes"/>
      <point x="458" y="143"/>
      <point x="320" y="259"/>
      <point x="320" y="468" type="curve" smooth="yes"/>
      <point x="320" y="493" type="line" smooth="yes"/>
      <point x="320" y="702"/>
      <point x="458" y="817"/>
      <point x="704" y="817" type="curve" smooth="yes"/>
      <point x="952" y="817"/>
      <point x="1089" y="702"/>
      <point x="1089" y="493" type="curve" smooth="yes"/>
      <point x="1089" y="468" type="line" smooth="yes"/>
      <point x="1089" y="259"/>
      <point x="951" y="143"/>
    </contour>
  </outline>
</glyph>
<glyph name="cent" format="2">
  <advance width="1229"/>
  <unicode hex="00A2"/>
  <outline>
    <component base="c"/>
    <contour>
      <point x="796" y="1216" type="line"/>
      <point x="594" y="1216" type="line"/>
      <point x="594" y="875" type="line"/>
      <point x="796" y="875" type="line"/>
    </contour>
    <contour>
      <point x="796" y="100" type="line"/>
      <point x="594" y="100" type="line"/>
      <point x="594" y="-253" type="line"/>
      <point x="796" y="-253" type="line"/>
    </contour>
  </outline>
</glyph>
<glyph name="currency" format="2">
  <advance width="1294"/>
  <unicode hex="00A4"/>
  <outline>
    <contour>
      <point x="646" y="205" type="curve" smooth="yes"/>
      <point x="945" y="205"/>
      <point x="1113" y="352"/>
      <point x="1113" y="611" type="curve"/>
      <point x="1113" y="619" type="line"/>
      <point x="1113" y="878"/>
      <point x="945" y="1024"/>
      <point x="646" y="1024" type="curve" smooth="yes"/>
      <point x="348" y="1024"/>
      <point x="180" y="878"/>
      <point x="180" y="619" type="curve"/>
      <point x="180" y="611" type="line"/>
      <point x="180" y="352"/>
      <point x="348" y="205"/>
    </contour>
    <contour>
      <point x="646" y="371" type="curve" smooth="yes"/>
      <point x="475" y="371"/>
      <point x="377" y="456"/>
      <point x="377" y="611" type="curve" smooth="yes"/>
      <point x="377" y="619" type="line" smooth="yes"/>
      <point x="377" y="773"/>
      <point x="475" y="858"/>
      <point x="646" y="858" type="curve" smooth="yes"/>
      <point x="817" y="858"/>
      <point x="916" y="773"/>
      <point x="916" y="619" type="curve" smooth="yes"/>
      <point x="916" y="611" type="line" smooth="yes"/>
      <point x="916" y="456"/>
      <point x="817" y="371"/>
    </contour>
    <contour>
      <point x="844" y="318" type="line"/>
      <point x="1076" y="99" type="line"/>
      <point x="1189" y="209" type="line"/>
      <point x="964" y="421" type="line"/>
    </contour>
    <contour>
      <point x="335" y="426" type="line"/>
      <point x="105" y="209" type="line"/>
      <point x="218" y="99" type="line"/>
      <point x="443" y="311" type="line"/>
    </contour>
    <contour>
      <point x="442" y="916" type="line"/>
      <point x="218" y="1128" type="line"/>
      <point x="105" y="1018" type="line"/>
      <point x="318" y="817" type="line"/>
    </contour>
    <contour>
      <point x="969" y="810" type="line"/>
      <point x="1189" y="1018" type="line"/>
      <point x="1076" y="1128" type="line"/>
      <point x="852" y="916" type="line"/>
    </contour>
  </outline>
</glyph>
<glyph name="brokenbar" format="2">
  <advance width="612"/>
  <unicode hex="00A6"/>
  <outline>
    <contour>
      <point x="403" y="1415" type="line"/>
      <point x="209" y="1415" type="line"/>
      <point x="209" y="585" type="line"/>
      <point x="403" y="585" type="line"/>
    </contour>
    <contour>
      <point x="403" y="385" type="line"/>
      <point x="209" y="385" type="line"/>
      <point x="209" y="-445" type="line"/>
      <point x="403" y="-445" type="line"/>
    </contour>
  </outline>
</glyph>
<glyph name="Eth" format="2">
  <advance width="1635"/>
  <unicode hex="00D0"/>
  <outline>
    <component base="D"/>
    <contour>
      <point x="857" y="568" type="line"/>
      <point x="857" y="732" type="line"/>
      <point x="-3" y="733" type="line"/>
      <point x="-3" y="569" type="line"/>
    </contour>
  </outline>
</glyph>
<glyph name="divide" format="2">
  <advance width="1337"/>
  <unicode hex="00F7"/>
  <outline>
    <component base="period" xScale="0.98" yScale="0.98" xOffset="421" yOffset="91"/>
    <component base="period" xScale="0.98" yScale="0.98" xOffset="421" yOffset="931"/>
    <contour>
      <point x="1196" y="520" type="line"/>
      <point x="1196" y="692" type="line"/>
      <point x="141" y="692" type="line"/>
      <point x="141" y="520" type="line"/>
    </contour>
  </outline>
</glyph>
<glyph name="OE" format="2">
  <advance width="2475"/>
  <unicode hex="0152"/>
  <anchor x="1240" y="0" name="bottom"/>
  <anchor x="1240" y="1278" name="top"/>
  <outline>
    <contour>
      <point x="847" y="-33" type="curve" smooth="yes"/>
      <point x="1316" y="-33"/>
      <point x="1578" y="218"/>
      <point x="1578" y="631" type="curve"/>
      <point x="1578" y="648" type="line"/>
      <point x="1578" y="1061"/>
      <point x="1316" y="1311"/>
      <point x="847" y="1311" type="curve" smooth="yes"/>
      <point x="373" y="1311"/>
      <point x="112" y="1071"/>
      <point x="112" y="648" type="curve"/>
      <point x="112" y="631" type="line"/>
      <point x="112" y="208"/>
      <point x="373" y="-33"/>
    </contour>
    <contour>
      <point x="847" y="150" type="curve" smooth="yes"/>
      <point x="514" y="150"/>
      <point x="344" y="330"/>
      <point x="344" y="630" type="curve" smooth="yes"/>
      <point x="344" y="649" type="line" smooth="yes"/>
      <point x="344" y="948"/>
      <point x="514" y="1128"/>
      <point x="847" y="1128" type="curve" smooth="yes"/>
      <point x="1179" y="1128"/>
      <point x="1350" y="948"/>
      <point x="1350" y="649" type="curve" smooth="yes"/>
      <point x="1350" y="630" type="line" smooth="yes"/>
      <point x="1350" y="330"/>
      <point x="1179" y="150"/>
    </contour>
    <contour>
      <point x="2348" y="0" type="line"/>
      <point x="2348" y="181" type="line"/>
      <point x="1083" y="181" type="line"/>
      <point x="1083" y="0" type="line"/>
    </contour>
    <contour>
      <point x="2311" y="560" type="line"/>
      <point x="2311" y="738" type="line"/>
      <point x="1468" y="738" type="line"/>
      <point x="1468" y="560" type="line"/>
    </contour>
    <contour>
      <point x="2334" y="1097" type="line"/>
      <point x="2334" y="1278" type="line"/>
      <point x="1097" y="1278" type="line"/>
      <point x="1097" y="1097" type="line"/>
    </contour>
  </outline>
</glyph>
<glyph name="tildecomb" format="2">
  <advance width="909"/>
  <unicode hex="0303"/>
  <anchor x="455" y="958" name="_top"/>
  <anchor x="455" y="1343" name="top"/>
  <outline>
    <contour>
      <point x="617" y="1111" type="curve" smooth="yes"/>
      <point x="757" y="1111"/>
      <point x="809" y="1192"/>
      <point x="809" y="1326" type="curve" smooth="yes"/>
      <point x="809" y="1361" type="line"/>
      <point x="670" y="1361" type="line"/>
      <point x="670" y="1348" type="line" smooth="yes"/>
      <point x="670" y="1293"/>
      <point x="652" y="1264"/>
      <point x="605" y="1264" type="curve" smooth="yes"/>
      <point x="516" y="1264"/>
      <point x="417" y="1349"/>
      <point x="292" y="1349" type="curve" smooth="yes"/>
      <point x="151" y="1349"/>
      <point x="100" y="1266"/>
      <point x="100" y="1134" type="curve" smooth="yes"/>
      <point x="100" y="1099" type="line"/>
      <point x="238" y="1099" type="line"/>
      <point x="238" y="1112" type="line" smooth="yes"/>
      <point x="238" y="1167"/>
      <point x="257" y="1196"/>
      <point x="304" y="1196" type="curve" smooth="yes"/>
      <point x="392" y="1196"/>
      <point x="494" y="1111"/>
    </contour>
  </outline>
</glyph>
<glyph name="Candrabindu_Spacing.ka" format="2">
  <advance width="1549"/>
  <unicode hex="0C80"/>
  <unicode hex="0D04"/>
  <outline>
    <contour>
      <point x="774" y="989" type="curve" smooth="yes"/>
      <point x="847.784" y="989"/>
      <point x="891" y="943.9"/>
      <point x="891" y="846" type="curve" smooth="yes"/>
      <point x="891" y="717" type="line" smooth="yes"/>
      <point x="891" y="620.062"/>
      <point x="847.784" y="576"/>
      <point x="774" y="576" type="curve" smooth="yes"/>
      <point x="700.182" y="576"/>
      <point x="658" y="620.062"/>
      <point x="658" y="717" type="curve" smooth="yes"/>
      <point x="658" y="846" type="line" smooth="yes"/>
      <point x="658" y="943.9"/>
      <point x="700.182" y="989"/>
    </contour>
    <contour>
      <point x="774" y="70" type="curve" smooth="yes"/>
      <point x="1205" y="70"/>
      <point x="1425" y="272.349"/>
      <point x="1425" y="668" type="curve" smooth="yes"/>
      <point x="1425" y="718.7"/>
      <point x="1422.33" y="753.8"/>
      <point x="1417" y="798" type="curve"/>
      <point x="1215" y="798" type="line"/>
      <point x="1215" y="702" type="line" smooth="yes"/>
      <point x="1215" y="403.02"/>
      <point x="1070.94" y="255"/>
      <point x="774" y="255" type="curve" smooth="yes"/>
      <point x="477.393" y="255"/>
      <point x="334" y="403.02"/>
      <point x="334" y="702" type="curve" smooth="yes"/>
      <point x="334" y="798" type="line"/>
      <point x="132" y="798" type="line"/>
      <point x="126.667" y="753.8"/>
      <point x="124" y="718.7"/>
      <point x="124" y="668" type="curve" smooth="yes"/>
      <point x="124" y="272.349"/>
      <point x="343" y="70"/>
    </contour>
  </outline>
</glyph>
<glyph name="Candrabindu" format="2">
  <unicode hex="0C81"/>
  <unicode hex="0D01"/>
  <outline>
    <contour>
      <point x="-1037" y="1484" type="curve" smooth="yes"/>
      <point x="-1227.27" y="1484"/>
      <point x="-1336" y="1571.8"/>
      <point x="-1336" y="1732" type="curve" smooth="yes"/>
      <point x="-1336" y="1759" type="line"/>
      <point x="-1514" y="1759" type="line"/>
      <point x="-1514" y="1725" type="line" smooth="yes"/>
      <point x="-1514" y="1464"/>
      <point x="-1339" y="1324"/>
      <point x="-1037" y="1324" type="curve" smooth="yes"/>
      <point x="-736" y="1324"/>
      <point x="-559" y="1464"/>
      <point x="-559" y="1725" type="curve" smooth="yes"/>
      <point x="-559" y="1759" type="line"/>
      <point x="-738" y="1759" type="line"/>
      <point x="-738" y="1732" type="line" smooth="yes"/>
      <point x="-738" y="1571.8"/>
      <point x="-846.727" y="1484"/>
    </contour>
    <contour>
      <point x="-1158" y="1764" type="line" smooth="yes"/>
      <point x="-1158" y="1686.75"/>
      <point x="-1115.17" y="1640"/>
      <point x="-1035" y="1640" type="curve" smooth="yes"/>
      <point x="-955.991" y="1640"/>
      <point x="-911" y="1686.75"/>
      <point x="-911" y="1764" type="curve" smooth="yes"/>
      <point x="-911" y="1768" type="line" smooth="yes"/>
      <point x="-911" y="1849.3"/>
      <point x="-955.991" y="1893"/>
      <point x="-1035" y="1893" type="curve" smooth="yes"/>
      <point x="-1115.17" y="1893"/>
      <point x="-1158" y="1849.3"/>
      <point x="-1158" y="1768" type="curve" smooth="yes"/>
    </contour>
  </outline>
</glyph>
<glyph name="Visarga.kn" format="2">
  <advance width="888"/>
  <unicode hex="0C83"/>
  <outline>
    <contour>
      <point x="441" y="-22" type="curve" smooth="yes"/>
      <point x="691" y="-22"/>
      <point x="819" y="73.709"/>
      <point x="819" y="248" type="curve" smooth="yes"/>
      <point x="819" y="251" type="line" smooth="yes"/>
      <point x="819" y="426.299"/>
      <point x="691" y="521"/>
      <point x="441" y="521" type="curve" smooth="yes"/>
      <point x="192" y="521"/>
      <point x="64" y="426.299"/>
      <point x="64" y="251" type="curve" smooth="yes"/>
      <point x="64" y="248" type="line" smooth="yes"/>
      <point x="64" y="73.709"/>
      <point x="192" y="-22"/>
    </contour>
    <contour>
      <point x="441" y="368" type="curve" smooth="yes"/>
      <point x="560.522" y="368"/>
      <point x="623" y="326.214"/>
      <point x="623" y="251" type="curve" smooth="yes"/>
      <point x="623" y="248" type="line" smooth="yes"/>
      <point x="623" y="173.621"/>
      <point x="560.522" y="131"/>
      <point x="441" y="131" type="curve" smooth="yes"/>
      <point x="323.35" y="131"/>
      <point x="260" y="173.621"/>
      <point x="260" y="248" type="curve" smooth="yes"/>
      <point x="260" y="251" type="line" smooth="yes"/>
      <point x="260" y="326.214"/>
      <point x="323.35" y="368"/>
    </contour>
    <contour>
      <point x="441" y="608" type="curve" smooth="yes"/>
      <point x="691" y="608"/>
      <point x="819" y="702.704"/>
      <point x="819" y="877" type="curve" smooth="yes"/>
      <point x="819" y="880" type="line" smooth="yes"/>
      <point x="819" y="1055.3"/>
      <point x="691" y="1150"/>
      <point x="441" y="1150" type="curve" smooth="yes"/>
      <point x="192" y="1150"/>
      <point x="64" y="1055.3"/>
      <point x="64" y="880" type="curve" smooth="yes"/>
      <point x="64" y="877" type="line" smooth="yes"/>
      <point x="64" y="702.704"/>
      <point x="192" y="608"/>
    </contour>
    <contour>
      <point x="441" y="997" type="curve" smooth="yes"/>
      <point x="560.522" y="997"/>
      <point x="623" y="955.214"/>
      <point x="623" y="880" type="curve" smooth="yes"/>
      <point x="623" y="877" type="line" smooth="yes"/>
      <point x="623" y="802.621"/>
      <point x="560.522" y="760"/>
      <point x="441" y="760" type="curve" smooth="yes"/>
      <point x="323.35" y="760"/>
      <point x="260" y="802.621"/>
      <point x="260" y="877" type="curve" smooth="yes"/>
      <point x="260" y="880" type="line" smooth="yes"/>
      <point x="260" y="955.214"/>
      <point x="323.35" y="997"/>
    </contour>
  </outline>
</glyph>
<glyph name="vowelA.kn" format="2">
  <advance width="2200"/>
  <unicode hex="0C85"/>
  <outline>
    <contour>
      <point x="1639" y="455" type="line"/>
      <point x="1639" y="627" type="line"/>
      <point x="938" y="627" type="line"/>
      <point x="938" y="455" type="line"/>
    </contour>
    <contour>
      <point x="1593" y="1184" type="curve" smooth="yes"/>
      <point x="1321.75" y="1184"/>
      <point x="1176" y="1058.51"/>
      <point x="1176" y="867" type="curve" smooth="yes"/>
      <point x="1176" y="861" type="line" smooth="yes"/>
      <point x="1176" y="730.557"/>
      <point x="1244.96" y="657.667"/>
      <point x="1365" y="634" type="curve"/>
      <point x="1365" y="603" type="line"/>
      <point x="1623" y="603" type="line"/>
      <point x="1623" y="627" type="line"/>
      <point x="1468.63" y="627"/>
      <point x="1384" y="691.873"/>
      <point x="1384" y="810" type="curve" smooth="yes"/>
      <point x="1384" y="815" type="line" smooth="yes"/>
      <point x="1384" y="934.373"/>
      <point x="1458.48" y="1001"/>
      <point x="1598" y="1001" type="curve" smooth="yes"/>
      <point x="1784.36" y="1001"/>
      <point x="1880" y="887.047"/>
      <point x="1880" y="667" type="curve" smooth="yes"/>
      <point x="1880" y="660" type="line" smooth="yes"/>
      <point x="1880" y="321.992"/>
      <point x="1619.66" y="151"/>
      <point x="1112" y="151" type="curve" smooth="yes"/>
      <point x="581.327" y="151"/>
      <point x="312" y="316.992"/>
      <point x="312" y="645" type="curve" smooth="yes"/>
      <point x="312" y="659" type="line"/>
      <point x="103" y="663" type="line"/>
      <point x="103" y="659" type="line" smooth="yes"/>
      <point x="103" y="199.648"/>
      <point x="448" y="-35"/>
      <point x="1115" y="-35" type="curve" smooth="yes"/>
      <point x="1760" y="-35"/>
      <point x="2092" y="200"/>
      <point x="2092" y="654" type="curve" smooth="yes"/>
      <point x="2092" y="660" type="line" smooth="yes"/>
      <point x="2092" y="1004"/>
      <point x="1921.71" y="1184"/>
    </contour>
    <contour>
      <point x="591" y="1184" type="curve" smooth="yes"/>
      <point x="275" y="1184"/>
      <point x="103" y="996.553"/>
      <point x="103" y="666" type="curve" smooth="yes"/>
      <point x="103" y="661" type="line"/>
      <point x="312" y="657" type="line"/>
      <point x="312" y="686" type="line" smooth="yes"/>
      <point x="312" y="893.773"/>
      <point x="411.288" y="1004"/>
      <point x="591" y="1004" type="curve" smooth="yes"/>
      <point x="723.63" y="1004"/>
      <point x="797" y="944.166"/>
      <point x="797" y="837" type="curve" smooth="yes"/>
      <point x="797" y="833" type="line" smooth="yes"/>
      <point x="797" y="731.022"/>
      <point x="723.568" y="673"/>
      <point x="588" y="673" type="curve" smooth="yes"/>
      <point x="457" y="673"/>
      <point x="354" y="719.241"/>
      <point x="291" y="796" type="curve"/>
      <point x="277" y="671" type="line"/>
      <point x="319" y="671" type="line"/>
      <point x="372.066" y="561"/>
      <point x="480.491" y="496"/>
      <point x="643" y="496" type="curve" smooth="yes"/>
      <point x="872.989" y="496"/>
      <point x="1005" y="620.012"/>
      <point x="1005" y="836" type="curve" smooth="yes"/>
      <point x="1005" y="840" type="line" smooth="yes"/>
      <point x="1005" y="1062.25"/>
      <point x="859" y="1184"/>
    </contour>
  </outline>
</glyph>
<glyph name="vowelAa.kn" format="2">
  <advance width="2170"/>
  <unicode hex="0C86"/>
  <outline>
    <contour>
      <point x="1639" y="455" type="line" smooth="yes"/>
      <point x="1737.65" y="455"/>
      <point x="1788" y="426.283"/>
      <point x="1788" y="355" type="curve" smooth="yes"/>
      <point x="1788" y="352" type="line" smooth="yes"/>
      <point x="1788" y="218.985"/>
      <point x="1562.58" y="151"/>
      <point x="1153" y="151" type="curve" smooth="yes"/>
      <point x="595.326" y="151"/>
      <point x="312" y="317.328"/>
      <point x="312" y="646" type="curve" smooth="yes"/>
      <point x="312" y="660" type="line"/>
      <point x="103" y="666" type="line"/>
      <point x="103" y="663" type="line" smooth="yes"/>
      <point x="103" y="202"/>
      <point x="462" y="-35"/>
      <point x="1156" y="-35" type="curve" smooth="yes"/>
      <point x="1704" y="-35"/>
      <point x="2000" y="88.4637"/>
      <point x="2000" y="333" type="curve" smooth="yes"/>
      <point x="2000" y="336" type="line" smooth="yes"/>
      <point x="2000" y="456.548"/>
      <point x="1936.95" y="523.519"/>
      <point x="1810" y="535" type="curve"/>
      <point x="1810" y="542" type="line"/>
      <point x="1970.67" y="556.538"/>
      <point x="2073" y="658.301"/>
      <point x="2073" y="825" type="curve" smooth="yes"/>
      <point x="2073" y="828" type="line" smooth="yes"/>
      <point x="2073" y="1057.51"/>
      <point x="1916" y="1184"/>
      <point x="1627" y="1184" type="curve" smooth="yes"/>
      <point x="1336.24" y="1184"/>
      <point x="1180" y="1069.43"/>
      <point x="1180" y="858" type="curve" smooth="yes"/>
      <point x="1180" y="851" type="line" smooth="yes"/>
      <point x="1180" y="726.675"/>
      <point x="1245.2" y="657.562"/>
      <point x="1369" y="633" type="curve"/>
      <point x="1369" y="627" type="line"/>
      <point x="938" y="627" type="line"/>
      <point x="938" y="455" type="line"/>
    </contour>
    <contour>
      <point x="1864" y="813" type="line" smooth="yes"/>
      <point x="1864" y="698.053"/>
      <point x="1782.41" y="631"/>
      <point x="1627" y="631" type="curve" smooth="yes"/>
      <point x="1471.26" y="631"/>
      <point x="1388" y="698.053"/>
      <point x="1388" y="813" type="curve" smooth="yes"/>
      <point x="1388" y="818" type="line" smooth="yes"/>
      <point x="1388" y="936.11"/>
      <point x="1471.26" y="1004"/>
      <point x="1627" y="1004" type="curve" smooth="yes"/>
      <point x="1782.41" y="1004"/>
      <point x="1864" y="936.11"/>
      <point x="1864" y="818" type="curve" smooth="yes"/>
    </contour>
    <contour>
      <point x="591" y="1184" type="curve" smooth="yes"/>
      <point x="275" y="1184"/>
      <point x="103" y="996.553"/>
      <point x="103" y="666" type="curve" smooth="yes"/>
      <point x="103" y="661" type="line"/>
      <point x="312" y="657" type="line"/>
      <point x="312" y="686" type="line" smooth="yes"/>
      <point x="312" y="893.773"/>
      <point x="411.288" y="1004"/>
      <point x="591" y="1004" type="curve" smooth="yes"/>
      <point x="723.63" y="1004"/>
      <point x="797" y="944.166"/>
      <point x="797" y="837" type="curve" smooth="yes"/>
      <point x="797" y="833" type="line" smooth="yes"/>
      <point x="797" y="731.022"/>
      <point x="723.568" y="673"/>
      <point x="588" y="673" type="curve" smooth="yes"/>
      <point x="457" y="673"/>
      <point x="354" y="719.241"/>
      <point x="291" y="796" type="curve"/>
      <point x="277" y="671" type="line"/>
      <point x="319" y="671" type="line"/>
      <point x="372.066" y="561"/>
      <point x="480.491" y="496"/>
      <point x="643" y="496" type="curve" smooth="yes"/>
      <point x="872.989" y="496"/>
      <point x="1005" y="620.012"/>
      <point x="1005" y="836" type="curve" smooth="yes"/>
      <point x="1005" y="840" type="line" smooth="yes"/>
      <point x="1005" y="1062.25"/>
      <point x="859" y="1184"/>
    </contour>
  </outline>
</glyph>
<glyph name="vowelI.kn" format="2">
  <advance width="1923"/>
  <unicode hex="0C87"/>
  <outline>
    <contour>
      <point x="1824" y="-163" type="line"/>
      <point x="1785.19" y="28.3996"/>
      <point x="1722.86" y="173.703"/>
      <point x="1612" y="316" type="curve"/>
      <point x="1489" y="187" type="line"/>
      <point x="1541.8" y="86.2878"/>
      <point x="1568.28" y="-17.416"/>
      <point x="1588" y="-163" type="curve"/>
    </contour>
    <contour>
      <point x="1790" y="702" type="curve" smooth="yes"/>
      <point x="1790" y="712" type="line" smooth="yes"/>
      <point x="1790" y="1020"/>
      <point x="1629" y="1184"/>
      <point x="1323" y="1184" type="curve" smooth="yes"/>
      <point x="1075" y="1184"/>
      <point x="955" y="1073.37"/>
      <point x="932" y="897" type="curve"/>
      <point x="925" y="897" type="line"/>
      <point x="902" y="1073.37"/>
      <point x="778" y="1184"/>
      <point x="521" y="1184" type="curve" smooth="yes"/>
      <point x="229" y="1184"/>
      <point x="75" y="1055"/>
      <point x="75" y="813" type="curve" smooth="yes"/>
      <point x="75" y="809" type="line" smooth="yes"/>
      <point x="75" y="753"/>
      <point x="84" y="708"/>
      <point x="103" y="668" type="curve"/>
      <point x="306" y="668" type="line"/>
      <point x="291" y="703"/>
      <point x="283" y="746"/>
      <point x="283" y="791" type="curve" smooth="yes"/>
      <point x="283" y="794" type="line" smooth="yes"/>
      <point x="283" y="927.35"/>
      <point x="370.685" y="999"/>
      <point x="539" y="999" type="curve" smooth="yes"/>
      <point x="720.656" y="999"/>
      <point x="803.492" y="908.371"/>
      <point x="816" y="727" type="curve" smooth="yes"/>
      <point x="818" y="698" type="line"/>
      <point x="1039" y="698" type="line"/>
      <point x="1041" y="727" type="line" smooth="yes"/>
      <point x="1053.51" y="908.371"/>
      <point x="1134.35" y="999"/>
      <point x="1306" y="999" type="curve" smooth="yes"/>
      <point x="1486.33" y="999"/>
      <point x="1578" y="899.344"/>
      <point x="1578" y="709" type="curve" smooth="yes"/>
      <point x="1578" y="701" type="line" smooth="yes"/>
      <point x="1578" y="576.831"/>
      <point x="1542.35" y="463.503"/>
      <point x="1468" y="362" type="curve"/>
      <point x="1448" y="341" type="line"/>
      <point x="1339.38" y="219.629"/>
      <point x="1121.13" y="148"/>
      <point x="870" y="148" type="curve" smooth="yes"/>
      <point x="640.334" y="148"/>
      <point x="525" y="193.789"/>
      <point x="525" y="293" type="curve"/>
      <point x="525" y="295" type="line"/>
      <point x="525" y="393.852"/>
      <point x="632.33" y="438"/>
      <point x="850" y="438" type="curve" smooth="yes"/>
      <point x="1118.63" y="438"/>
      <point x="1305.67" y="370.708"/>
      <point x="1437" y="248" type="curve"/>
      <point x="1530" y="388" type="line"/>
      <point x="1375.77" y="535.436"/>
      <point x="1169.46" y="618"/>
      <point x="847" y="618" type="curve" smooth="yes"/>
      <point x="496" y="618"/>
      <point x="312" y="515.684"/>
      <point x="312" y="294" type="curve"/>
      <point x="312" y="292" type="line"/>
      <point x="312" y="71"/>
      <point x="501" y="-34"/>
      <point x="865" y="-34" type="curve" smooth="yes"/>
      <point x="1157.86" y="-34"/>
      <point x="1409.59" y="42.6468"/>
      <point x="1549" y="183" type="curve"/>
      <point x="1600" y="226" type="line"/>
      <point x="1721" y="345"/>
      <point x="1790" y="515"/>
    </contour>
  </outline>
</glyph>
<glyph name="vowelII.kn" format="2">
  <advance width="2361"/>
  <unicode hex="0C88"/>
  <outline>
    <contour>
      <point x="556" y="994" type="line"/>
      <point x="556" y="968" type="line"/>
      <point x="364.442" y="916.353"/>
      <point x="261" y="753.445"/>
      <point x="261" y="529" type="curve" smooth="yes"/>
      <point x="261" y="520" type="line" smooth="yes"/>
      <point x="261" y="152.652"/>
      <point x="510.255" y="-43"/>
      <point x="975" y="-43" type="curve" smooth="yes"/>
      <point x="1439.75" y="-43"/>
      <point x="1689" y="152.652"/>
      <point x="1689" y="520" type="curve" smooth="yes"/>
      <point x="1689" y="529" type="line" smooth="yes"/>
      <point x="1689" y="752.933"/>
      <point x="1588.53" y="915.47"/>
      <point x="1397" y="967" type="curve"/>
      <point x="1397" y="994" type="line"/>
    </contour>
    <contour>
      <point x="975" y="143" type="curve" smooth="yes"/>
      <point x="646.964" y="143"/>
      <point x="474" y="285.615"/>
      <point x="474" y="555" type="curve" smooth="yes"/>
      <point x="474" y="564" type="line" smooth="yes"/>
      <point x="474" y="833.036"/>
      <point x="646.964" y="975"/>
      <point x="975" y="975" type="curve" smooth="yes"/>
      <point x="1304.03" y="975"/>
      <point x="1477" y="833.036"/>
      <point x="1477" y="564" type="curve" smooth="yes"/>
      <point x="1477" y="555" type="line" smooth="yes"/>
      <point x="1477" y="285.615"/>
      <point x="1304.03" y="143"/>
    </contour>
    <contour>
      <point x="1317" y="975" type="line"/>
      <point x="1312" y="1148" type="line"/>
      <point x="242" y="1148" type="line"/>
      <point x="242" y="975" type="line"/>
    </contour>
    <contour>
      <point x="2052" y="306" type="line" smooth="yes"/>
      <point x="2052" y="199.595"/>
      <point x="1993.13" y="142"/>
      <point x="1880" y="142" type="curve" smooth="yes"/>
      <point x="1822.58" y="142"/>
      <point x="1767.28" y="152"/>
      <point x="1728" y="165" type="curve"/>
      <point x="1754" y="-9" type="line"/>
      <point x="1802" y="-24"/>
      <point x="1865" y="-34"/>
      <point x="1930" y="-34" type="curve" smooth="yes"/>
      <point x="2148" y="-34"/>
      <point x="2264" y="72.3915"/>
      <point x="2264" y="262" type="curve" smooth="yes"/>
      <point x="2264" y="268" type="line" smooth="yes"/>
      <point x="2264" y="408.066"/>
      <point x="2187.96" y="489.991"/>
      <point x="2073" y="510" type="curve"/>
      <point x="2073" y="535" type="line"/>
      <point x="1740" y="525" type="line"/>
      <point x="1753" y="482" type="line"/>
      <point x="1834" y="482" type="line" smooth="yes"/>
      <point x="1979.67" y="482"/>
      <point x="2052" y="428.149"/>
      <point x="2052" y="311" type="curve" smooth="yes"/>
    </contour>
    <contour>
      <point x="1979" y="517" type="line"/>
      <point x="2074" y="517" type="line" smooth="yes"/>
      <point x="2198" y="517"/>
      <point x="2242" y="582.532"/>
      <point x="2242" y="685" type="curve" smooth="yes"/>
      <point x="2242" y="776.202"/>
      <point x="2198.17" y="916.654"/>
      <point x="2130" y="996" type="curve"/>
      <point x="1989" y="996" type="line"/>
      <point x="1989" y="655" type="line"/>
      <point x="1602" y="655" type="line"/>
      <point x="1572" y="654" type="line"/>
      <point x="384" y="654" type="line"/>
      <point x="360" y="655" type="line"/>
      <point x="48" y="655" type="line"/>
      <point x="48" y="482" type="line"/>
      <point x="359" y="482" type="line"/>
      <point x="384" y="482" type="line"/>
      <point x="1589" y="482" type="line"/>
      <point x="1619" y="482" type="line"/>
      <point x="1973" y="482" type="line"/>
    </contour>
    <contour>
      <point x="1465" y="1552" type="line"/>
      <point x="1513" y="1479.1"/>
      <point x="1543" y="1391.01"/>
      <point x="1543" y="1307" type="curve" smooth="yes"/>
      <point x="1543" y="1194.16"/>
      <point x="1495.1" y="1148"/>
      <point x="1383" y="1148" type="curve" smooth="yes"/>
      <point x="1293" y="1148" type="line"/>
      <point x="1293" y="974" type="line"/>
      <point x="1453" y="974" type="line" smooth="yes"/>
      <point x="1644" y="974"/>
      <point x="1739" y="1072.2"/>
      <point x="1739" y="1277" type="curve" smooth="yes"/>
      <point x="1739" y="1375.6"/>
      <point x="1709.33" y="1474.16"/>
      <point x="1647" y="1552" type="curve"/>
    </contour>
  </outline>
</glyph>
<glyph name="vowelU.kn" format="2">
  <advance width="3125"/>
  <unicode hex="0C89"/>
  <outline>
    <contour>
      <point x="619" y="1184" type="curve" smooth="yes"/>
      <point x="891" y="1184"/>
      <point x="1040" y="1059"/>
      <point x="1040" y="830" type="curve" smooth="yes"/>
      <point x="1040" y="826" type="line" smooth="yes"/>
      <point x="1040" y="603"/>
      <point x="903.468" y="476"/>
      <point x="668" y="476" type="curve" smooth="yes"/>
      <point x="497.954" y="476"/>
      <point x="389.633" y="541.116"/>
      <point x="335" y="651" type="curve"/>
      <point x="293" y="651" type="line"/>
      <point x="305" y="783" type="line"/>
      <point x="371" y="701.914"/>
      <point x="478" y="654"/>
      <point x="615" y="654" type="curve" smooth="yes"/>
      <point x="756" y="654"/>
      <point x="831" y="714.919"/>
      <point x="831" y="823" type="curve" smooth="yes"/>
      <point x="831" y="827" type="line" smooth="yes"/>
      <point x="831" y="940.073"/>
      <point x="755" y="1003"/>
      <point x="617" y="1003" type="curve" smooth="yes"/>
      <point x="427" y="1003"/>
      <point x="328" y="889.009"/>
      <point x="328" y="664" type="curve" smooth="yes"/>
      <point x="328" y="660" type="line"/>
      <point x="121" y="624" type="line"/>
      <point x="121" y="633" type="line" smooth="yes"/>
      <point x="121" y="996"/>
      <point x="296" y="1184"/>
    </contour>
    <contour>
      <point x="328" y="618" type="line" smooth="yes"/>
      <point x="328" y="309.662"/>
      <point x="484" y="152"/>
      <point x="788" y="152" type="curve" smooth="yes"/>
      <point x="1080.34" y="152"/>
      <point x="1233" y="287.661"/>
      <point x="1233" y="552" type="curve" smooth="yes"/>
      <point x="1233" y="713" type="line" smooth="yes"/>
      <point x="1233" y="1020"/>
      <point x="1378.66" y="1174"/>
      <point x="1663" y="1174" type="curve" smooth="yes"/>
      <point x="1949.34" y="1174"/>
      <point x="2095" y="1020"/>
      <point x="2095" y="713" type="curve" smooth="yes"/>
      <point x="2095" y="633" type="line"/>
      <point x="1883" y="633" type="line"/>
      <point x="1883" y="708" type="line" smooth="yes"/>
      <point x="1883" y="898.32"/>
      <point x="1813" y="988"/>
      <point x="1664" y="988" type="curve" smooth="yes"/>
      <point x="1516" y="988"/>
      <point x="1445" y="899.317"/>
      <point x="1445" y="708" type="curve" smooth="yes"/>
      <point x="1445" y="551" type="line" smooth="yes"/>
      <point x="1445" y="166"/>
      <point x="1218.69" y="-34"/>
      <point x="790" y="-34" type="curve" smooth="yes"/>
      <point x="346" y="-34"/>
      <point x="121" y="188"/>
      <point x="121" y="617" type="curve" smooth="yes"/>
      <point x="121" y="626" type="line"/>
      <point x="328" y="661" type="line"/>
    </contour>
    <contour>
      <point x="2995" y="539" type="line" smooth="yes"/>
      <point x="2995" y="163"/>
      <point x="2803.64" y="-33"/>
      <point x="2434" y="-33" type="curve" smooth="yes"/>
      <point x="2070.95" y="-33"/>
      <point x="1883" y="148"/>
      <point x="1883" y="496" type="curve" smooth="yes"/>
      <point x="1883" y="666" type="line"/>
      <point x="2095" y="666" type="line"/>
      <point x="2095" y="508" type="line" smooth="yes"/>
      <point x="2095" y="271.666"/>
      <point x="2210" y="153"/>
      <point x="2434" y="153" type="curve" smooth="yes"/>
      <point x="2666.33" y="153"/>
      <point x="2783" y="285.66"/>
      <point x="2783" y="543" type="curve" smooth="yes"/>
      <point x="2783" y="549" type="line" smooth="yes"/>
      <point x="2783" y="831.342"/>
      <point x="2658.31" y="978"/>
      <point x="2424" y="978" type="curve" smooth="yes"/>
      <point x="2404" y="978"/>
      <point x="2382" y="977"/>
      <point x="2359" y="974" type="curve"/>
      <point x="2359" y="1157" type="line"/>
      <point x="2393" y="1162"/>
      <point x="2420" y="1164"/>
      <point x="2455" y="1164" type="curve" smooth="yes"/>
      <point x="2803" y="1164"/>
      <point x="2995" y="945"/>
      <point x="2995" y="546" type="curve" smooth="yes"/>
    </contour>
  </outline>
</glyph>
<glyph name="vowelUu.kn" format="2">
  <advance width="3977"/>
  <unicode hex="0C8A"/>
  <outline>
    <contour>
      <point x="2710" y="493" type="line"/>
      <point x="2710" y="391" type="line" smooth="yes"/>
      <point x="2710" y="110"/>
      <point x="2568.62" y="-34"/>
      <point x="2295" y="-34" type="curve" smooth="yes"/>
      <point x="2022.7" y="-34"/>
      <point x="1883" y="109"/>
      <point x="1883" y="392" type="curve" smooth="yes"/>
      <point x="1883" y="648" type="line"/>
      <point x="2095" y="648" type="line"/>
      <point x="2095" y="398" type="line" smooth="yes"/>
      <point x="2095" y="232.048"/>
      <point x="2158.68" y="152"/>
      <point x="2295" y="152" type="curve" smooth="yes"/>
      <point x="2432.68" y="152"/>
      <point x="2498" y="231.064"/>
      <point x="2498" y="397" type="curve" smooth="yes"/>
      <point x="2498" y="493" type="line"/>
    </contour>
    <contour>
      <point x="619" y="1184" type="curve" smooth="yes"/>
      <point x="891" y="1184"/>
      <point x="1040" y="1059"/>
      <point x="1040" y="830" type="curve" smooth="yes"/>
      <point x="1040" y="826" type="line" smooth="yes"/>
      <point x="1040" y="603"/>
      <point x="903.468" y="476"/>
      <point x="668" y="476" type="curve" smooth="yes"/>
      <point x="497.954" y="476"/>
      <point x="389.633" y="541.116"/>
      <point x="335" y="651" type="curve"/>
      <point x="293" y="651" type="line"/>
      <point x="305" y="783" type="line"/>
      <point x="371" y="701.914"/>
      <point x="478" y="654"/>
      <point x="615" y="654" type="curve" smooth="yes"/>
      <point x="756" y="654"/>
      <point x="831" y="714.919"/>
      <point x="831" y="823" type="curve" smooth="yes"/>
      <point x="831" y="827" type="line" smooth="yes"/>
      <point x="831" y="940.073"/>
      <point x="755" y="1003"/>
      <point x="617" y="1003" type="curve" smooth="yes"/>
      <point x="427" y="1003"/>
      <point x="328" y="889.009"/>
      <point x="328" y="664" type="curve" smooth="yes"/>
      <point x="328" y="660" type="line"/>
      <point x="121" y="624" type="line"/>
      <point x="121" y="633" type="line" smooth="yes"/>
      <point x="121" y="996"/>
      <point x="296" y="1184"/>
    </contour>
    <contour>
      <point x="328" y="618" type="line" smooth="yes"/>
      <point x="328" y="309.662"/>
      <point x="484" y="152"/>
      <point x="788" y="152" type="curve" smooth="yes"/>
      <point x="1080.34" y="152"/>
      <point x="1233" y="287.661"/>
      <point x="1233" y="552" type="curve" smooth="yes"/>
      <point x="1233" y="713" type="line" smooth="yes"/>
      <point x="1233" y="1020"/>
      <point x="1378.66" y="1174"/>
      <point x="1663" y="1174" type="curve" smooth="yes"/>
      <point x="1949.34" y="1174"/>
      <point x="2095" y="1020"/>
      <point x="2095" y="713" type="curve" smooth="yes"/>
      <point x="2095" y="633" type="line"/>
      <point x="1883" y="633" type="line"/>
      <point x="1883" y="708" type="line" smooth="yes"/>
      <point x="1883" y="898.32"/>
      <point x="1813" y="988"/>
      <point x="1664" y="988" type="curve" smooth="yes"/>
      <point x="1516" y="988"/>
      <point x="1445" y="899.317"/>
      <point x="1445" y="708" type="curve" smooth="yes"/>
      <point x="1445" y="551" type="line" smooth="yes"/>
      <point x="1445" y="166"/>
      <point x="1218.69" y="-34"/>
      <point x="790" y="-34" type="curve" smooth="yes"/>
      <point x="346" y="-34"/>
      <point x="121" y="188"/>
      <point x="121" y="617" type="curve" smooth="yes"/>
      <point x="121" y="626" type="line"/>
      <point x="328" y="661" type="line"/>
    </contour>
    <contour>
      <point x="3173" y="1184" type="curve" smooth="yes"/>
      <point x="3617" y="1184"/>
      <point x="3849" y="955"/>
      <point x="3849" y="513" type="curve" smooth="yes"/>
      <point x="3849" y="504" type="line"/>
      <point x="3637" y="470" type="line"/>
      <point x="3637" y="519" type="line" smooth="yes"/>
      <point x="3637" y="836.362"/>
      <point x="3479.02" y="998"/>
      <point x="3174" y="998" type="curve" smooth="yes"/>
      <point x="2868.29" y="998"/>
      <point x="2710" y="850.354"/>
      <point x="2710" y="559" type="curve" smooth="yes"/>
      <point x="2710" y="471" type="line"/>
      <point x="2498" y="471" type="line"/>
      <point x="2498" y="564" type="line" smooth="yes"/>
      <point x="2498" y="973"/>
      <point x="2730.34" y="1184"/>
    </contour>
    <contour>
      <point x="3849" y="496" type="line" smooth="yes"/>
      <point x="3849" y="151"/>
      <point x="3684.6" y="-33"/>
      <point x="3378" y="-33" type="curve" smooth="yes"/>
      <point x="3098.59" y="-33"/>
      <point x="2946" y="94.1739"/>
      <point x="2946" y="327" type="curve" smooth="yes"/>
      <point x="2946" y="330" type="line" smooth="yes"/>
      <point x="2946" y="550.059"/>
      <point x="3077.43" y="678"/>
      <point x="3314" y="678" type="curve" smooth="yes"/>
      <point x="3473" y="678"/>
      <point x="3579.15" y="612.375"/>
      <point x="3630" y="503" type="curve"/>
      <point x="3672" y="503" type="line"/>
      <point x="3659" y="371" type="line"/>
      <point x="3597.64" y="450.729"/>
      <point x="3497.69" y="500"/>
      <point x="3372" y="500" type="curve" smooth="yes"/>
      <point x="3225.66" y="500"/>
      <point x="3155" y="437.292"/>
      <point x="3155" y="328" type="curve" smooth="yes"/>
      <point x="3155" y="324" type="line" smooth="yes"/>
      <point x="3155" y="211.111"/>
      <point x="3232.14" y="148"/>
      <point x="3377" y="148" type="curve" smooth="yes"/>
      <point x="3548.66" y="148"/>
      <point x="3637" y="255.234"/>
      <point x="3637" y="463" type="curve" smooth="yes"/>
      <point x="3637" y="472" type="line"/>
      <point x="3849" y="506" type="line"/>
    </contour>
  </outline>
</glyph>
<glyph name="vowelE.kn" format="2">
  <advance width="2021"/>
  <unicode hex="0C8E"/>
  <outline>
    <contour>
      <point x="1439" y="-34" type="curve" smooth="yes"/>
      <point x="1738.69" y="-34"/>
      <point x="1896" y="134"/>
      <point x="1896" y="449" type="curve" smooth="yes"/>
      <point x="1896" y="453" type="line" smooth="yes"/>
      <point x="1896" y="957"/>
      <point x="1519" y="1220"/>
      <point x="757" y="1220" type="curve" smooth="yes"/>
      <point x="713" y="1220"/>
      <point x="660" y="1220"/>
      <point x="573" y="1220" type="curve"/>
      <point x="499" y="1039" type="line"/>
      <point x="602" y="1039"/>
      <point x="675" y="1039"/>
      <point x="726" y="1039" type="curve" smooth="yes"/>
      <point x="1368.34" y="1039"/>
      <point x="1684" y="836.694"/>
      <point x="1684" y="456" type="curve" smooth="yes"/>
      <point x="1684" y="452" type="line" smooth="yes"/>
      <point x="1684" y="255"/>
      <point x="1592.36" y="152"/>
      <point x="1415" y="152" type="curve" smooth="yes"/>
      <point x="1233.89" y="152"/>
      <point x="1150.72" y="246.671"/>
      <point x="1136" y="438" type="curve" smooth="yes"/>
      <point x="1133" y="477" type="line"/>
      <point x="912" y="477" type="line"/>
      <point x="909" y="441" type="line" smooth="yes"/>
      <point x="892.752" y="246.019"/>
      <point x="796.649" y="149"/>
      <point x="589" y="149" type="curve" smooth="yes"/>
      <point x="409.681" y="149"/>
      <point x="317" y="218.976"/>
      <point x="317" y="354" type="curve" smooth="yes"/>
      <point x="317" y="359" type="line" smooth="yes"/>
      <point x="317" y="481.382"/>
      <point x="390.712" y="546"/>
      <point x="524" y="546" type="curve" smooth="yes"/>
      <point x="599" y="546"/>
      <point x="665" y="526"/>
      <point x="710" y="498" type="curve"/>
      <point x="697" y="678" type="line"/>
      <point x="643" y="708"/>
      <point x="578" y="724"/>
      <point x="488" y="724" type="curve" smooth="yes"/>
      <point x="245" y="724"/>
      <point x="108" y="591"/>
      <point x="108" y="360" type="curve" smooth="yes"/>
      <point x="108" y="352" type="line" smooth="yes"/>
      <point x="108" y="101"/>
      <point x="270.691" y="-34"/>
      <point x="579" y="-34" type="curve" smooth="yes"/>
      <point x="858.729" y="-34"/>
      <point x="994.095" y="80.5205"/>
      <point x="1019" y="270" type="curve"/>
      <point x="1026" y="270" type="line"/>
      <point x="1048.62" y="80.5206"/>
      <point x="1176.45" y="-34"/>
    </contour>
  </outline>
</glyph>
<glyph name="vowelO.kn" format="2">
  <advance width="2039"/>
  <unicode hex="0C92"/>
  <outline>
    <contour>
      <point x="1644" y="617" type="line"/>
      <point x="1694.32" y="549.477"/>
      <point x="1718" y="470.349"/>
      <point x="1718" y="387" type="curve" smooth="yes"/>
      <point x="1718" y="383" type="line" smooth="yes"/>
      <point x="1718" y="239.098"/>
      <point x="1629.7" y="152"/>
      <point x="1458" y="152" type="curve" smooth="yes"/>
      <point x="1262.47" y="152"/>
      <point x="1171.99" y="248.131"/>
      <point x="1156" y="440" type="curve" smooth="yes"/>
      <point x="1154" y="464" type="line"/>
      <point x="1031" y="464" type="line"/>
      <point x="1045" y="270" type="line"/>
      <point x="1066.19" y="78.8784"/>
      <point x="1203.27" y="-34"/>
      <point x="1480" y="-34" type="curve" smooth="yes"/>
      <point x="1776.32" y="-34"/>
      <point x="1930" y="112.476"/>
      <point x="1930" y="363" type="curve" smooth="yes"/>
      <point x="1930" y="368" type="line" smooth="yes"/>
      <point x="1930" y="467.403"/>
      <point x="1897.39" y="554.996"/>
      <point x="1847" y="617" type="curve"/>
    </contour>
    <contour>
      <point x="610" y="1184" type="curve" smooth="yes"/>
      <point x="309" y="1184"/>
      <point x="145" y="1060"/>
      <point x="145" y="830" type="curve" smooth="yes"/>
      <point x="145" y="825" type="line" smooth="yes"/>
      <point x="145" y="762"/>
      <point x="160" y="706"/>
      <point x="184" y="666" type="curve"/>
      <point x="380" y="666" type="line"/>
      <point x="357" y="712"/>
      <point x="345" y="763"/>
      <point x="345" y="813" type="curve" smooth="yes"/>
      <point x="345" y="816" type="line" smooth="yes"/>
      <point x="345" y="942.717"/>
      <point x="435.318" y="1009"/>
      <point x="610" y="1009" type="curve" smooth="yes"/>
      <point x="769.377" y="1009"/>
      <point x="853" y="954.707"/>
      <point x="853" y="850" type="curve" smooth="yes"/>
      <point x="853" y="846" type="line" smooth="yes"/>
      <point x="853" y="761.514"/>
      <point x="797.718" y="716.823"/>
      <point x="626" y="678" type="curve" smooth="yes"/>
      <point x="511" y="652" type="line" smooth="yes"/>
      <point x="224.511" y="587.229"/>
      <point x="116" y="492.731"/>
      <point x="116" y="301" type="curve" smooth="yes"/>
      <point x="116" y="293" type="line" smooth="yes"/>
      <point x="116" y="85"/>
      <point x="279" y="-34"/>
      <point x="580" y="-34" type="curve" smooth="yes"/>
      <point x="872" y="-34"/>
      <point x="1013" y="80.5206"/>
      <point x="1038" y="270" type="curve"/>
      <point x="1056" y="270" type="line"/>
      <point x="1055" y="464" type="line"/>
      <point x="931" y="464" type="line"/>
      <point x="929" y="441" type="line" smooth="yes"/>
      <point x="912.187" y="247.646"/>
      <point x="809.652" y="151"/>
      <point x="586" y="151" type="curve" smooth="yes"/>
      <point x="413.66" y="151"/>
      <point x="325" y="206.519"/>
      <point x="325" y="301" type="curve" smooth="yes"/>
      <point x="325" y="306" type="line" smooth="yes"/>
      <point x="325" y="398.984"/>
      <point x="390.746" y="443.469"/>
      <point x="581" y="489" type="curve" smooth="yes"/>
      <point x="698" y="517" type="line" smooth="yes"/>
      <point x="953.08" y="578.045"/>
      <point x="1060" y="667.923"/>
      <point x="1060" y="844" type="curve" smooth="yes"/>
      <point x="1060" y="849" type="line" smooth="yes"/>
      <point x="1060" y="1067"/>
      <point x="902" y="1184"/>
    </contour>
  </outline>
</glyph>
<glyph name="vowelOo.kn" format="2">
  <advance width="2039"/>
  <unicode hex="0C93"/>
  <outline>
    <component base="vowelO.kn"/>
    <contour>
      <point x="778" y="1648" type="curve" smooth="yes"/>
      <point x="490" y="1648"/>
      <point x="333" y="1543.15"/>
      <point x="333" y="1354" type="curve" smooth="yes"/>
      <point x="333" y="1348" type="line" smooth="yes"/>
      <point x="333" y="1221.25"/>
      <point x="413" y="1141.51"/>
      <point x="585" y="1128" type="curve"/>
      <point x="689" y="1178" type="line"/>
      <point x="583.444" y="1195"/>
      <point x="539" y="1249"/>
      <point x="539" y="1320" type="curve" smooth="yes"/>
      <point x="539" y="1324" type="line" smooth="yes"/>
      <point x="539" y="1424.1"/>
      <point x="620.937" y="1478"/>
      <point x="781" y="1478" type="curve" smooth="yes"/>
      <point x="941.477" y="1478"/>
      <point x="1027" y="1422.1"/>
      <point x="1027" y="1318" type="curve"/>
      <point x="1027" y="1316" type="line"/>
      <point x="1027" y="1295"/>
      <point x="1024" y="1272"/>
      <point x="1019" y="1251" type="curve"/>
      <point x="1209" y="1251" type="line"/>
      <point x="1218" y="1275"/>
      <point x="1224" y="1307"/>
      <point x="1224" y="1344" type="curve" smooth="yes"/>
      <point x="1224" y="1347" type="line" smooth="yes"/>
      <point x="1224" y="1541"/>
      <point x="1067" y="1648"/>
    </contour>
  </outline>
</glyph>
<glyph name="vowelAu.kn" format="2">
  <advance width="2157"/>
  <unicode hex="0C94"/>
  <outline>
    <contour>
      <point x="1723" y="396" type="curve"/>
      <point x="1723" y="395" type="line"/>
      <point x="1723" y="244"/>
      <point x="1633" y="152"/>
      <point x="1458" y="152" type="curve" smooth="yes"/>
      <point x="1262" y="152"/>
      <point x="1172" y="248"/>
      <point x="1156" y="440" type="curve" smooth="yes"/>
      <point x="1154" y="464" type="line"/>
      <point x="1031" y="464" type="line"/>
      <point x="1045" y="270" type="line"/>
      <point x="1066" y="79"/>
      <point x="1205" y="-34"/>
      <point x="1484" y="-34" type="curve" smooth="yes"/>
      <point x="1781" y="-34"/>
      <point x="1935" y="112"/>
      <point x="1935" y="359" type="curve" smooth="yes"/>
      <point x="1935" y="362" type="line" smooth="yes"/>
      <point x="1935" y="405"/>
      <point x="1930" y="446"/>
      <point x="1918" y="486" type="curve"/>
      <point x="1712" y="486" type="line"/>
      <point x="1719" y="458"/>
      <point x="1723" y="427"/>
    </contour>
    <contour>
      <point x="610" y="1184" type="curve" smooth="yes"/>
      <point x="309" y="1184"/>
      <point x="145" y="1060"/>
      <point x="145" y="830" type="curve" smooth="yes"/>
      <point x="145" y="825" type="line" smooth="yes"/>
      <point x="145" y="762"/>
      <point x="160" y="706"/>
      <point x="184" y="666" type="curve"/>
      <point x="380" y="666" type="line"/>
      <point x="357" y="712"/>
      <point x="345" y="763"/>
      <point x="345" y="813" type="curve" smooth="yes"/>
      <point x="345" y="816" type="line" smooth="yes"/>
      <point x="345" y="943"/>
      <point x="435" y="1009"/>
      <point x="610" y="1009" type="curve" smooth="yes"/>
      <point x="769" y="1009"/>
      <point x="853" y="955"/>
      <point x="853" y="850" type="curve" smooth="yes"/>
      <point x="853" y="846" type="line" smooth="yes"/>
      <point x="853" y="762"/>
      <point x="798" y="717"/>
      <point x="626" y="678" type="curve" smooth="yes"/>
      <point x="511" y="652" type="line" smooth="yes"/>
      <point x="225" y="587"/>
      <point x="116" y="493"/>
      <point x="116" y="301" type="curve" smooth="yes"/>
      <point x="116" y="293" type="line" smooth="yes"/>
      <point x="116" y="85"/>
      <point x="279" y="-34"/>
      <point x="580" y="-34" type="curve" smooth="yes"/>
      <point x="872" y="-34"/>
      <point x="1013" y="81"/>
      <point x="1038" y="270" type="curve"/>
      <point x="1056" y="270" type="line"/>
      <point x="1055" y="464" type="line"/>
      <point x="931" y="464" type="line"/>
      <point x="929" y="441" type="line" smooth="yes"/>
      <point x="912" y="248"/>
      <point x="810" y="151"/>
      <point x="586" y="151" type="curve" smooth="yes"/>
      <point x="414" y="151"/>
      <point x="325" y="207"/>
      <point x="325" y="301" type="curve" smooth="yes"/>
      <point x="325" y="306" type="line" smooth="yes"/>
      <point x="325" y="399"/>
      <point x="391" y="443"/>
      <point x="581" y="489" type="curve" smooth="yes"/>
      <point x="698" y="517" type="line" smooth="yes"/>
      <point x="953" y="578"/>
      <point x="1060" y="668"/>
      <point x="1060" y="844" type="curve" smooth="yes"/>
      <point x="1060" y="849" type="line" smooth="yes"/>
      <point x="1060" y="1067"/>
      <point x="902" y="1184"/>
    </contour>
    <contour>
      <point x="815" y="1036" type="line" smooth="yes"/>
      <point x="984" y="1036"/>
      <point x="1079" y="1113.79"/>
      <point x="1079" y="1253" type="curve" smooth="yes"/>
      <point x="1079" y="1257" type="line" smooth="yes"/>
      <point x="1079" y="1341.12"/>
      <point x="1033.55" y="1399.01"/>
      <point x="951" y="1418" type="curve"/>
      <point x="951" y="1446.5" type="line"/>
      <point x="715" y="1446.5" type="line"/>
      <point x="715" y="1425" type="line"/>
      <point x="817.667" y="1425"/>
      <point x="869" y="1384.67"/>
      <point x="869" y="1304" type="curve" smooth="yes"/>
      <point x="869" y="1300" type="line" smooth="yes"/>
      <point x="869" y="1222.32"/>
      <point x="816.667" y="1183"/>
      <point x="712" y="1183" type="curve" smooth="yes"/>
      <point x="625" y="1183" type="line"/>
      <point x="625" y="1036" type="line"/>
    </contour>
    <contour>
      <point x="2085" y="1034" type="line"/>
      <point x="2085" y="1039" type="line" smooth="yes"/>
      <point x="2085" y="1401.6"/>
      <point x="1850.02" y="1598"/>
      <point x="1395" y="1598" type="curve" smooth="yes"/>
      <point x="228" y="1598" type="line"/>
      <point x="228" y="1425" type="line"/>
      <point x="1387" y="1425" type="line" smooth="yes"/>
      <point x="1705.46" y="1425"/>
      <point x="1874" y="1298.35"/>
      <point x="1874" y="1047" type="curve" smooth="yes"/>
      <point x="1874" y="1024" type="line"/>
    </contour>
    <contour>
      <point x="1874.33" y="1024.7" type="line"/>
      <point x="1874.33" y="1015.98" type="line" smooth="yes"/>
      <point x="1874.33" y="841.046"/>
      <point x="1796.17" y="750.76"/>
      <point x="1644.3" y="750.76" type="curve" smooth="yes"/>
      <point x="1514.32" y="750.76"/>
      <point x="1445.11" y="802.908"/>
      <point x="1445.11" y="896.186" type="curve" smooth="yes"/>
      <point x="1445.11" y="900.065" type="line" smooth="yes"/>
      <point x="1445.11" y="990.604"/>
      <point x="1508.39" y="1042.55"/>
      <point x="1639.45" y="1042.55" type="curve" smooth="yes"/>
      <point x="1751.22" y="1042.55"/>
      <point x="1840.1" y="996.093"/>
      <point x="1894.66" y="920.914" type="curve"/>
      <point x="1908.27" y="1049.67" type="line"/>
      <point x="1866.51" y="1049.67" type="line"/>
      <point x="1820.1" y="1155.17"/>
      <point x="1724.24" y="1218.46"/>
      <point x="1580.08" y="1218.46" type="curve" smooth="yes"/>
      <point x="1360.4" y="1218.46"/>
      <point x="1238.35" y="1102.12"/>
      <point x="1238.35" y="902.004" type="curve" smooth="yes"/>
      <point x="1238.35" y="899.095" type="line" smooth="yes"/>
      <point x="1238.35" y="687.55"/>
      <point x="1382.08" y="572"/>
      <point x="1645.27" y="572" type="curve" smooth="yes"/>
      <point x="1931.52" y="572"/>
      <point x="2085" y="731.644"/>
      <point x="2085" y="1030.98" type="curve" smooth="yes"/>
      <point x="2085" y="1036.67" type="line"/>
    </contour>
  </outline>
</glyph>
<glyph name="Ka.kn" format="2">
  <advance width="1533"/>
  <unicode hex="0C95"/>
  <outline>
    <contour>
      <point x="96" y="740" type="line"/>
      <point x="96" y="566" type="line"/>
      <point x="443" y="577" type="line"/>
      <point x="441" y="615" type="line"/>
      <point x="1087" y="615" type="line"/>
      <point x="1087" y="577" type="line"/>
      <point x="1438" y="566" type="line"/>
      <point x="1438" y="740" type="line"/>
    </contour>
    <contour>
      <point x="661" y="1057" type="line"/>
      <point x="661" y="629" type="line"/>
      <point x="873" y="629" type="line"/>
      <point x="873" y="1057" type="line"/>
    </contour>
    <contour>
      <point x="96" y="1148" type="line"/>
      <point x="96" y="974" type="line"/>
      <point x="1061" y="974" type="line"/>
      <point x="1061" y="1148" type="line"/>
    </contour>
    <contour>
      <point x="768" y="136" type="curve" smooth="yes"/>
      <point x="512.639" y="136"/>
      <point x="381" y="209.189"/>
      <point x="381" y="349" type="curve" smooth="yes"/>
      <point x="381" y="353" type="line" smooth="yes"/>
      <point x="381" y="492.811"/>
      <point x="512.639" y="566"/>
      <point x="768" y="566" type="curve" smooth="yes"/>
      <point x="1023.35" y="566"/>
      <point x="1154" y="492.811"/>
      <point x="1154" y="353" type="curve" smooth="yes"/>
      <point x="1154" y="349" type="line" smooth="yes"/>
      <point x="1154" y="209.189"/>
      <point x="1023.35" y="136"/>
    </contour>
    <contour>
      <point x="391" y="628" type="line"/>
      <point x="391" y="569" type="line"/>
      <point x="243.6" y="538.582"/>
      <point x="170" y="456.323"/>
      <point x="170" y="322" type="curve" smooth="yes"/>
      <point x="170" y="314" type="line" smooth="yes"/>
      <point x="170" y="81"/>
      <point x="376.345" y="-45"/>
      <point x="768" y="-45" type="curve" smooth="yes"/>
      <point x="1159" y="-45"/>
      <point x="1365" y="81"/>
      <point x="1365" y="314" type="curve" smooth="yes"/>
      <point x="1365" y="322" type="line" smooth="yes"/>
      <point x="1365" y="456.323"/>
      <point x="1291.4" y="538.582"/>
      <point x="1144" y="569" type="curve"/>
      <point x="1144" y="628" type="line"/>
    </contour>
    <contour>
      <point x="1183" y="1552" type="line"/>
      <point x="1231" y="1479.1"/>
      <point x="1261" y="1391.01"/>
      <point x="1261" y="1307" type="curve" smooth="yes"/>
      <point x="1261" y="1194.16"/>
      <point x="1213.1" y="1148"/>
      <point x="1101" y="1148" type="curve" smooth="yes"/>
      <point x="1011" y="1148" type="line"/>
      <point x="1011" y="974" type="line"/>
      <point x="1171" y="974" type="line" smooth="yes"/>
      <point x="1362" y="974"/>
      <point x="1457" y="1072.2"/>
      <point x="1457" y="1277" type="curve" smooth="yes"/>
      <point x="1457" y="1375.6"/>
      <point x="1427.33" y="1474.16"/>
      <point x="1365" y="1552" type="curve"/>
    </contour>
  </outline>
  <guideline angle="90" x="1000" y="0"/>
  <guideline angle="0" x="0" y="-272"/>
</glyph>
<glyph name="Nga.kn" format="2">
  <advance width="2055"/>
  <unicode hex="0C99"/>
  <outline>
    <contour>
      <point x="1414" y="1184" type="curve" smooth="yes"/>
      <point x="1131.22" y="1184"/>
      <point x="998.096" y="1063.21"/>
      <point x="967" y="889" type="curve"/>
      <point x="1057" y="802" type="line"/>
      <point x="1087" y="928.804"/>
      <point x="1193" y="1014"/>
      <point x="1385" y="1014" type="curve" smooth="yes"/>
      <point x="1596.35" y="1014"/>
      <point x="1704" y="925.088"/>
      <point x="1704" y="753" type="curve"/>
      <point x="1704" y="752" type="line"/>
      <point x="1704" y="740"/>
      <point x="1704" y="728"/>
      <point x="1702" y="712" type="curve"/>
      <point x="1907" y="712" type="line"/>
      <point x="1910" y="729"/>
      <point x="1912" y="748"/>
      <point x="1912" y="771" type="curve"/>
      <point x="1912" y="773" type="line"/>
      <point x="1912" y="1035"/>
      <point x="1738.23" y="1184"/>
    </contour>
    <contour>
      <point x="1354" y="468" type="curve" smooth="yes"/>
      <point x="1431" y="468"/>
      <point x="1465" y="510"/>
      <point x="1465" y="621" type="curve" smooth="yes"/>
      <point x="1465" y="633" type="line" smooth="yes"/>
      <point x="1465" y="744"/>
      <point x="1431" y="786"/>
      <point x="1354" y="786" type="curve" smooth="yes"/>
      <point x="1279" y="786"/>
      <point x="1244" y="744"/>
      <point x="1244" y="633" type="curve" smooth="yes"/>
      <point x="1244" y="621" type="line" smooth="yes"/>
      <point x="1244" y="510"/>
      <point x="1279" y="468"/>
    </contour>
    <contour>
      <point x="1723" y="396" type="curve"/>
      <point x="1723" y="395" type="line"/>
      <point x="1723" y="244"/>
      <point x="1633" y="152"/>
      <point x="1458" y="152" type="curve" smooth="yes"/>
      <point x="1262" y="152"/>
      <point x="1172" y="248"/>
      <point x="1156" y="440" type="curve" smooth="yes"/>
      <point x="1154" y="464" type="line"/>
      <point x="1031" y="464" type="line"/>
      <point x="1045" y="270" type="line"/>
      <point x="1066" y="79"/>
      <point x="1205" y="-34"/>
      <point x="1484" y="-34" type="curve" smooth="yes"/>
      <point x="1781" y="-34"/>
      <point x="1935" y="112"/>
      <point x="1935" y="359" type="curve" smooth="yes"/>
      <point x="1935" y="362" type="line" smooth="yes"/>
      <point x="1935" y="405"/>
      <point x="1930" y="446"/>
      <point x="1918" y="486" type="curve"/>
      <point x="1712" y="486" type="line"/>
      <point x="1719" y="458"/>
      <point x="1723" y="427"/>
    </contour>
    <contour>
      <point x="610" y="1184" type="curve" smooth="yes"/>
      <point x="309" y="1184"/>
      <point x="145" y="1060"/>
      <point x="145" y="830" type="curve" smooth="yes"/>
      <point x="145" y="825" type="line" smooth="yes"/>
      <point x="145" y="762"/>
      <point x="160" y="706"/>
      <point x="184" y="666" type="curve"/>
      <point x="380" y="666" type="line"/>
      <point x="357" y="712"/>
      <point x="345" y="763"/>
      <point x="345" y="813" type="curve" smooth="yes"/>
      <point x="345" y="816" type="line" smooth="yes"/>
      <point x="345" y="943"/>
      <point x="435" y="1009"/>
      <point x="610" y="1009" type="curve" smooth="yes"/>
      <point x="769" y="1009"/>
      <point x="853" y="955"/>
      <point x="853" y="850" type="curve" smooth="yes"/>
      <point x="853" y="846" type="line" smooth="yes"/>
      <point x="853" y="762"/>
      <point x="798" y="717"/>
      <point x="626" y="678" type="curve" smooth="yes"/>
      <point x="511" y="652" type="line" smooth="yes"/>
      <point x="225" y="587"/>
      <point x="116" y="493"/>
      <point x="116" y="301" type="curve" smooth="yes"/>
      <point x="116" y="293" type="line" smooth="yes"/>
      <point x="116" y="85"/>
      <point x="279" y="-34"/>
      <point x="580" y="-34" type="curve" smooth="yes"/>
      <point x="872" y="-34"/>
      <point x="1013" y="81"/>
      <point x="1038" y="270" type="curve"/>
      <point x="1056" y="270" type="line"/>
      <point x="1055" y="464" type="line"/>
      <point x="931" y="464" type="line"/>
      <point x="929" y="441" type="line" smooth="yes"/>
      <point x="912" y="248"/>
      <point x="810" y="151"/>
      <point x="586" y="151" type="curve" smooth="yes"/>
      <point x="414" y="151"/>
      <point x="325" y="207"/>
      <point x="325" y="301" type="curve" smooth="yes"/>
      <point x="325" y="306" type="line" smooth="yes"/>
      <point x="325" y="399"/>
      <point x="391" y="443"/>
      <point x="581" y="489" type="curve" smooth="yes"/>
      <point x="698" y="517" type="line" smooth="yes"/>
      <point x="953" y="578"/>
      <point x="1060" y="668"/>
      <point x="1060" y="844" type="curve" smooth="yes"/>
      <point x="1060" y="849" type="line" smooth="yes"/>
      <point x="1060" y="1067"/>
      <point x="902" y="1184"/>
    </contour>
  </outline>
</glyph>
<glyph name="Ja.kn" format="2">
  <advance width="2052"/>
  <unicode hex="0C9C"/>
  <anchor x="1037" y="0" name="nukta"/>
  <outline>
    <contour>
      <point x="1603" y="1149" type="line"/>
      <point x="1644.38" y="1092.39"/>
      <point x="1662" y="1027.69"/>
      <point x="1662" y="964" type="curve" smooth="yes"/>
      <point x="1662" y="960" type="line" smooth="yes"/>
      <point x="1662" y="824.795"/>
      <point x="1570.33" y="750"/>
      <point x="1387" y="750" type="curve" smooth="yes"/>
      <point x="1191.24" y="750"/>
      <point x="1077.54" y="829.403"/>
      <point x="1037" y="964" type="curve"/>
      <point x="1037" y="968" type="line"/>
      <point x="935" y="930" type="line"/>
      <point x="936" y="927" type="line"/>
      <point x="953.179" y="715"/>
      <point x="1114.86" y="575"/>
      <point x="1416" y="575" type="curve" smooth="yes"/>
      <point x="1711.73" y="575"/>
      <point x="1872" y="701"/>
      <point x="1872" y="930" type="curve" smooth="yes"/>
      <point x="1872" y="935" type="line" smooth="yes"/>
      <point x="1872" y="1020"/>
      <point x="1845.86" y="1094"/>
      <point x="1803" y="1149" type="curve"/>
    </contour>
    <contour>
      <point x="1723" y="396" type="curve"/>
      <point x="1723" y="395" type="line"/>
      <point x="1723" y="244"/>
      <point x="1633" y="152"/>
      <point x="1458" y="152" type="curve" smooth="yes"/>
      <point x="1262" y="152"/>
      <point x="1172" y="248"/>
      <point x="1156" y="440" type="curve" smooth="yes"/>
      <point x="1154" y="464" type="line"/>
      <point x="1031" y="464" type="line"/>
      <point x="1045" y="270" type="line"/>
      <point x="1066" y="79"/>
      <point x="1205" y="-34"/>
      <point x="1484" y="-34" type="curve" smooth="yes"/>
      <point x="1781" y="-34"/>
      <point x="1935" y="112"/>
      <point x="1935" y="359" type="curve" smooth="yes"/>
      <point x="1935" y="362" type="line" smooth="yes"/>
      <point x="1935" y="405"/>
      <point x="1930" y="446"/>
      <point x="1918" y="486" type="curve"/>
      <point x="1712" y="486" type="line"/>
      <point x="1719" y="458"/>
      <point x="1723" y="427"/>
    </contour>
    <contour>
      <point x="610" y="1184" type="curve" smooth="yes"/>
      <point x="309" y="1184"/>
      <point x="145" y="1060"/>
      <point x="145" y="830" type="curve" smooth="yes"/>
      <point x="145" y="825" type="line" smooth="yes"/>
      <point x="145" y="762"/>
      <point x="160" y="706"/>
      <point x="184" y="666" type="curve"/>
      <point x="380" y="666" type="line"/>
      <point x="357" y="712"/>
      <point x="345" y="763"/>
      <point x="345" y="813" type="curve" smooth="yes"/>
      <point x="345" y="816" type="line" smooth="yes"/>
      <point x="345" y="943"/>
      <point x="435" y="1009"/>
      <point x="610" y="1009" type="curve" smooth="yes"/>
      <point x="769" y="1009"/>
      <point x="853" y="955"/>
      <point x="853" y="850" type="curve" smooth="yes"/>
      <point x="853" y="846" type="line" smooth="yes"/>
      <point x="853" y="762"/>
      <point x="798" y="717"/>
      <point x="626" y="678" type="curve" smooth="yes"/>
      <point x="511" y="652" type="line" smooth="yes"/>
      <point x="225" y="587"/>
      <point x="116" y="493"/>
      <point x="116" y="301" type="curve" smooth="yes"/>
      <point x="116" y="293" type="line" smooth="yes"/>
      <point x="116" y="85"/>
      <point x="279" y="-34"/>
      <point x="580" y="-34" type="curve" smooth="yes"/>
      <point x="872" y="-34"/>
      <point x="1013" y="81"/>
      <point x="1038" y="270" type="curve"/>
      <point x="1056" y="270" type="line"/>
      <point x="1055" y="464" type="line"/>
      <point x="931" y="464" type="line"/>
      <point x="929" y="441" type="line" smooth="yes"/>
      <point x="912" y="248"/>
      <point x="810" y="151"/>
      <point x="586" y="151" type="curve" smooth="yes"/>
      <point x="414" y="151"/>
      <point x="325" y="207"/>
      <point x="325" y="301" type="curve" smooth="yes"/>
      <point x="325" y="306" type="line" smooth="yes"/>
      <point x="325" y="399"/>
      <point x="391" y="443"/>
      <point x="581" y="489" type="curve" smooth="yes"/>
      <point x="698" y="517" type="line" smooth="yes"/>
      <point x="953" y="578"/>
      <point x="1060" y="668"/>
      <point x="1060" y="844" type="curve" smooth="yes"/>
      <point x="1060" y="849" type="line" smooth="yes"/>
      <point x="1060" y="1067"/>
      <point x="902" y="1184"/>
    </contour>
  </outline>
</glyph>
<glyph name="Jha.kn" format="2">
  <advance width="3471"/>
  <unicode hex="0C9D"/>
  <outline>
    <component base="matraU.kn" xOffset="1718"/>
    <component base="matraU.kn" xOffset="2606"/>
    <component base="Ra.kn"/>
    <contour>
      <point x="1469" y="433" type="line"/>
      <point x="1557" y="435" type="line"/>
      <point x="1557" y="447" type="line"/>
      <point x="1469" y="447" type="line"/>
    </contour>
    <contour>
      <point x="2372" y="-423" type="curve" smooth="yes"/>
      <point x="2451" y="-423"/>
      <point x="2490" y="-373.616"/>
      <point x="2490" y="-278" type="curve" smooth="yes"/>
      <point x="2490" y="-272" type="line" smooth="yes"/>
      <point x="2490" y="-135.72"/>
      <point x="2452" y="-32.3597"/>
      <point x="2372" y="79" type="curve"/>
      <point x="2293" y="-32.3597"/>
      <point x="2255" y="-135.72"/>
      <point x="2255" y="-272" type="curve" smooth="yes"/>
      <point x="2255" y="-278" type="line" smooth="yes"/>
      <point x="2255" y="-373.616"/>
      <point x="2294" y="-423"/>
    </contour>
  </outline>
</glyph>
<glyph name="Nya.kn" format="2">
  <advance width="2577"/>
  <unicode hex="0C9E"/>
  <outline>
    <contour>
      <point x="2298.06" y="789" type="curve" smooth="yes"/>
      <point x="2298.06" y="786" type="line" smooth="yes"/>
      <point x="2298.06" y="741"/>
      <point x="2289.01" y="698"/>
      <point x="2272.06" y="663" type="curve"/>
      <point x="2476.06" y="663" type="line"/>
      <point x="2496.41" y="704.418"/>
      <point x="2506.06" y="751.014"/>
      <point x="2506.06" y="809" type="curve" smooth="yes"/>
      <point x="2506.06" y="813" type="line" smooth="yes"/>
      <point x="2506.06" y="1055"/>
      <point x="2359.36" y="1184"/>
      <point x="2087" y="1184" type="curve" smooth="yes"/>
      <point x="1871.69" y="1184"/>
      <point x="1752.41" y="1106.56"/>
      <point x="1714" y="980" type="curve"/>
      <point x="1681" y="980" type="line"/>
      <point x="1712" y="709" type="line"/>
      <point x="1790" y="708" type="line"/>
      <point x="1790" y="720" type="line" smooth="yes"/>
      <point x="1790" y="900.354"/>
      <point x="1880" y="999"/>
      <point x="2050" y="999" type="curve" smooth="yes"/>
      <point x="2213.06" y="999"/>
      <point x="2298.06" y="925.602"/>
    </contour>
    <contour>
      <point x="1824" y="-163" type="line"/>
      <point x="1785.19" y="28.3996"/>
      <point x="1722.86" y="173.703"/>
      <point x="1612" y="316" type="curve"/>
      <point x="1489" y="187" type="line"/>
      <point x="1541.8" y="86.2878"/>
      <point x="1568.28" y="-17.416"/>
      <point x="1588" y="-163" type="curve"/>
    </contour>
    <contour>
      <point x="1306" y="999" type="curve" smooth="yes"/>
      <point x="1486.33" y="999"/>
      <point x="1578" y="899.344"/>
      <point x="1578" y="709" type="curve" smooth="yes"/>
      <point x="1578" y="701" type="line" smooth="yes"/>
      <point x="1578" y="576.831"/>
      <point x="1542.35" y="463.503"/>
      <point x="1468" y="362" type="curve"/>
      <point x="1448" y="341" type="line"/>
      <point x="1339.38" y="219.629"/>
      <point x="1121.13" y="148"/>
      <point x="870" y="148" type="curve" smooth="yes"/>
      <point x="640.334" y="148"/>
      <point x="525" y="193.789"/>
      <point x="525" y="293" type="curve"/>
      <point x="525" y="295" type="line"/>
      <point x="525" y="393.852"/>
      <point x="632.33" y="438"/>
      <point x="850" y="438" type="curve" smooth="yes"/>
      <point x="1118.63" y="438"/>
      <point x="1305.67" y="370.708"/>
      <point x="1437" y="248" type="curve"/>
      <point x="1530" y="388" type="line"/>
      <point x="1375.77" y="535.436"/>
      <point x="1169.46" y="618"/>
      <point x="847" y="618" type="curve" smooth="yes"/>
      <point x="496" y="618"/>
      <point x="312" y="515.684"/>
      <point x="312" y="294" type="curve"/>
      <point x="312" y="292" type="line"/>
      <point x="312" y="71"/>
      <point x="501" y="-34"/>
      <point x="865" y="-34" type="curve" smooth="yes"/>
      <point x="1157.86" y="-34"/>
      <point x="1409.59" y="42.6468"/>
      <point x="1549" y="183" type="curve"/>
      <point x="1600" y="226" type="line"/>
      <point x="1721" y="345"/>
      <point x="1790" y="515"/>
      <point x="1790" y="702" type="curve" smooth="yes"/>
      <point x="1790" y="712" type="line" smooth="yes"/>
      <point x="1790" y="815.295"/>
      <point x="1737.68" y="896.367"/>
      <point x="1707.05" y="980" type="curve" smooth="yes"/>
      <point x="1660.23" y="1107.87"/>
      <point x="1538.04" y="1184"/>
      <point x="1323" y="1184" type="curve" smooth="yes"/>
      <point x="1075" y="1184"/>
      <point x="955" y="1073.37"/>
      <point x="932" y="897" type="curve"/>
      <point x="925" y="897" type="line"/>
      <point x="902" y="1073.37"/>
      <point x="778" y="1184"/>
      <point x="521" y="1184" type="curve" smooth="yes"/>
      <point x="229" y="1184"/>
      <point x="75" y="1056.74"/>
      <point x="75" y="818" type="curve" smooth="yes"/>
      <point x="75" y="814" type="line" smooth="yes"/>
      <point x="75" y="756.014"/>
      <point x="84" y="709.418"/>
      <point x="103" y="668" type="curve"/>
      <point x="306" y="668" type="line"/>
      <point x="291" y="703"/>
      <point x="283" y="746"/>
      <point x="283" y="791" type="curve" smooth="yes"/>
      <point x="283" y="794" type="line" smooth="yes"/>
      <point x="283" y="927.35"/>
      <point x="370.685" y="999"/>
      <point x="539" y="999" type="curve" smooth="yes"/>
      <point x="720.656" y="999"/>
      <point x="803.492" y="908.371"/>
      <point x="816" y="727" type="curve" smooth="yes"/>
      <point x="818" y="698" type="line"/>
      <point x="1039" y="698" type="line"/>
      <point x="1041" y="727" type="line" smooth="yes"/>
      <point x="1053.51" y="908.371"/>
      <point x="1134.35" y="999"/>
    </contour>
  </outline>
</glyph>
<glyph name="Dda.kn" format="2">
  <advance width="2007"/>
  <unicode hex="0CA1"/>
  <outline>
    <contour>
      <point x="1690" y="334" type="line" smooth="yes"/>
      <point x="1690" y="219.826"/>
      <point x="1602.77" y="150"/>
      <point x="1438" y="150" type="curve" smooth="yes"/>
      <point x="1228.35" y="150"/>
      <point x="1134" y="245.553"/>
      <point x="1117" y="441" type="curve" smooth="yes"/>
      <point x="1115" y="464" type="line"/>
      <point x="892" y="464" type="line"/>
      <point x="890" y="441" type="line" smooth="yes"/>
      <point x="873.234" y="248.195"/>
      <point x="794.933" y="152"/>
      <point x="614" y="152" type="curve" smooth="yes"/>
      <point x="433.985" y="152"/>
      <point x="342" y="256.666"/>
      <point x="342" y="465" type="curve" smooth="yes"/>
      <point x="342" y="473" type="line" smooth="yes"/>
      <point x="342" y="804.453"/>
      <point x="554.677" y="975"/>
      <point x="970" y="975" type="curve"/>
      <point x="958" y="994" type="line"/>
      <point x="495" y="992" type="line"/>
      <point x="495" y="968" type="line"/>
      <point x="269.129" y="916.325"/>
      <point x="130" y="738.664"/>
      <point x="130" y="458" type="curve" smooth="yes"/>
      <point x="130" y="450" type="line" smooth="yes"/>
      <point x="130" y="133.144"/>
      <point x="295.735" y="-34"/>
      <point x="596" y="-34" type="curve" smooth="yes"/>
      <point x="853.817" y="-34"/>
      <point x="977.232" y="80.4578"/>
      <point x="1000" y="270" type="curve"/>
      <point x="1006" y="270" type="line"/>
      <point x="1032" y="80.4578"/>
      <point x="1172" y="-34"/>
      <point x="1459" y="-34" type="curve" smooth="yes"/>
      <point x="1748" y="-34"/>
      <point x="1902" y="94.8513"/>
      <point x="1902" y="314" type="curve" smooth="yes"/>
      <point x="1902" y="320" type="line" smooth="yes"/>
      <point x="1902" y="491.314"/>
      <point x="1802.94" y="587.197"/>
      <point x="1611" y="606" type="curve"/>
      <point x="1611" y="613" type="line"/>
      <point x="1730.83" y="626.872"/>
      <point x="1796" y="686.628"/>
      <point x="1796" y="788" type="curve"/>
      <point x="1796" y="790" type="line"/>
      <point x="1796" y="886.055"/>
      <point x="1736.7" y="951.187"/>
      <point x="1612" y="967" type="curve"/>
      <point x="1612" y="1019" type="line"/>
      <point x="1214" y="1021" type="line"/>
      <point x="1105" y="975" type="line"/>
      <point x="1435.81" y="975"/>
      <point x="1584" y="916.575"/>
      <point x="1584" y="805" type="curve"/>
      <point x="1584" y="804" type="line"/>
      <point x="1584" y="725.701"/>
      <point x="1522.5" y="694.951"/>
      <point x="1375" y="691" type="curve" smooth="yes"/>
      <point x="1263" y="688" type="line"/>
      <point x="1263" y="516" type="line"/>
      <point x="1424" y="513" type="line" smooth="yes"/>
      <point x="1600.69" y="509.708"/>
      <point x="1690" y="458.941"/>
      <point x="1690" y="339" type="curve" smooth="yes"/>
    </contour>
    <contour>
      <point x="1544" y="975" type="line"/>
      <point x="1544" y="1148" type="line"/>
      <point x="129" y="1148" type="line"/>
      <point x="129" y="975" type="line"/>
    </contour>
    <contour>
      <point x="1644" y="1552" type="line"/>
      <point x="1692" y="1479.1"/>
      <point x="1722" y="1391.01"/>
      <point x="1722" y="1307" type="curve" smooth="yes"/>
      <point x="1722" y="1194.16"/>
      <point x="1674.1" y="1148"/>
      <point x="1562" y="1148" type="curve" smooth="yes"/>
      <point x="1472" y="1148" type="line"/>
      <point x="1472" y="974" type="line"/>
      <point x="1632" y="974" type="line" smooth="yes"/>
      <point x="1823" y="974"/>
      <point x="1918" y="1072.2"/>
      <point x="1918" y="1277" type="curve" smooth="yes"/>
      <point x="1918" y="1375.6"/>
      <point x="1888.33" y="1474.16"/>
      <point x="1826" y="1552" type="curve"/>
    </contour>
  </outline>
  <guideline angle="90" x="424" y="0"/>
</glyph>
<glyph name="Nna.kn" format="2">
  <advance width="2090"/>
  <unicode hex="0CA3"/>
  <outline>
    <contour>
      <point x="1961" y="538" type="line"/>
      <point x="1961" y="546" type="line" smooth="yes"/>
      <point x="1961" y="966"/>
      <point x="1783.63" y="1185"/>
      <point x="1434" y="1185" type="curve" smooth="yes"/>
      <point x="1182.86" y="1185"/>
      <point x="1051.44" y="1074.47"/>
      <point x="1031" y="898" type="curve"/>
      <point x="1024" y="898" type="line"/>
      <point x="1003.49" y="1074.47"/>
      <point x="869.674" y="1185"/>
      <point x="604" y="1185" type="curve" smooth="yes"/>
      <point x="291.448" y="1185"/>
      <point x="127" y="1064.22"/>
      <point x="127" y="838" type="curve" smooth="yes"/>
      <point x="127" y="832" type="line" smooth="yes"/>
      <point x="127" y="679.007"/>
      <point x="222.55" y="587.212"/>
      <point x="390" y="570" type="curve"/>
      <point x="390" y="563" type="line"/>
      <point x="219.541" y="544.615"/>
      <point x="122" y="451.723"/>
      <point x="122" y="294" type="curve" smooth="yes"/>
      <point x="122" y="288" type="line" smooth="yes"/>
      <point x="122" y="83.0737"/>
      <point x="277.738" y="-34"/>
      <point x="570" y="-34" type="curve" smooth="yes"/>
      <point x="688.039" y="-34"/>
      <point x="788.373" y="-14.5"/>
      <point x="871" y="18" type="curve"/>
      <point x="893" y="201" type="line"/>
      <point x="814.191" y="166"/>
      <point x="712.866" y="143"/>
      <point x="588" y="143" type="curve" smooth="yes"/>
      <point x="421.252" y="143"/>
      <point x="334" y="204.868"/>
      <point x="334" y="307" type="curve" smooth="yes"/>
      <point x="334" y="312" type="line" smooth="yes"/>
      <point x="334" y="422.058"/>
      <point x="427.668" y="469.65"/>
      <point x="611" y="472" type="curve" smooth="yes"/>
      <point x="767" y="474" type="line"/>
      <point x="767" y="647" type="line"/>
      <point x="611" y="649" type="line" smooth="yes"/>
      <point x="430.991" y="651.308"/>
      <point x="339" y="702.489"/>
      <point x="339" y="815" type="curve" smooth="yes"/>
      <point x="339" y="820" type="line" smooth="yes"/>
      <point x="339" y="940.043"/>
      <point x="431.986" y="1002"/>
      <point x="614" y="1002" type="curve" smooth="yes"/>
      <point x="809" y="1002"/>
      <point x="900.535" y="912.809"/>
      <point x="915" y="732" type="curve" smooth="yes"/>
      <point x="917" y="707" type="line"/>
      <point x="1138" y="707" type="line"/>
      <point x="1140" y="732" type="line" smooth="yes"/>
      <point x="1154.31" y="910.837"/>
      <point x="1243.63" y="1002"/>
      <point x="1423" y="1002" type="curve" smooth="yes"/>
      <point x="1640.03" y="1002"/>
      <point x="1749" y="844.641"/>
      <point x="1749" y="535" type="curve" smooth="yes"/>
      <point x="1749" y="504" type="line"/>
    </contour>
    <contour>
      <point x="1749" y="505" type="line"/>
      <point x="1749" y="496" type="line" smooth="yes"/>
      <point x="1749" y="266.468"/>
      <point x="1660.66" y="148"/>
      <point x="1489" y="148" type="curve" smooth="yes"/>
      <point x="1350.66" y="148"/>
      <point x="1277" y="208.601"/>
      <point x="1277" y="317" type="curve" smooth="yes"/>
      <point x="1277" y="321" type="line" smooth="yes"/>
      <point x="1277" y="425.844"/>
      <point x="1346.03" y="486"/>
      <point x="1489" y="486" type="curve" smooth="yes"/>
      <point x="1612.06" y="486"/>
      <point x="1709.92" y="437.111"/>
      <point x="1770" y="358" type="curve"/>
      <point x="1783" y="488" type="line"/>
      <point x="1742" y="488" type="line"/>
      <point x="1691.96" y="597.375"/>
      <point x="1587.48" y="663"/>
      <point x="1431" y="663" type="curve" smooth="yes"/>
      <point x="1198.29" y="663"/>
      <point x="1069" y="538"/>
      <point x="1069" y="323" type="curve" smooth="yes"/>
      <point x="1069" y="320" type="line" smooth="yes"/>
      <point x="1069" y="91.7011"/>
      <point x="1217.7" y="-33"/>
      <point x="1490" y="-33" type="curve" smooth="yes"/>
      <point x="1801.6" y="-33"/>
      <point x="1961" y="162.478"/>
      <point x="1961" y="529" type="curve" smooth="yes"/>
      <point x="1961" y="539" type="line"/>
    </contour>
  </outline>
  <guideline angle="90" x="676" y="0"/>
</glyph>
<glyph name="Tha.kn" format="2">
  <advance width="2006"/>
  <unicode hex="0CA5"/>
  <outline>
    <contour>
      <point x="1004" y="562" type="curve" smooth="yes"/>
      <point x="1086.31" y="562"/>
      <point x="1124" y="611"/>
      <point x="1124" y="711" type="curve" smooth="yes"/>
      <point x="1124" y="718" type="line" smooth="yes"/>
      <point x="1124" y="818"/>
      <point x="1086.31" y="867"/>
      <point x="1004" y="867" type="curve" smooth="yes"/>
      <point x="922" y="867"/>
      <point x="884" y="818"/>
      <point x="884" y="718" type="curve" smooth="yes"/>
      <point x="884" y="711" type="line" smooth="yes"/>
      <point x="884" y="611"/>
      <point x="922" y="562"/>
    </contour>
    <contour>
      <point x="1491" y="975" type="line"/>
      <point x="1491" y="1148" type="line"/>
      <point x="129" y="1148" type="line"/>
      <point x="129" y="975" type="line"/>
    </contour>
    <contour>
      <point x="342" y="476" type="line" smooth="yes"/>
      <point x="342" y="805.454"/>
      <point x="554.677" y="975"/>
      <point x="970" y="975" type="curve"/>
      <point x="969" y="995" type="line"/>
      <point x="495" y="995" type="line"/>
      <point x="495" y="968" type="line"/>
      <point x="269.129" y="916.298"/>
      <point x="130" y="739.256"/>
      <point x="130" y="460" type="curve" smooth="yes"/>
      <point x="130" y="448" type="line" smooth="yes"/>
      <point x="130" y="132.453"/>
      <point x="296.38" y="-34"/>
      <point x="595" y="-34" type="curve" smooth="yes"/>
      <point x="852.817" y="-34"/>
      <point x="976.244" y="80.4578"/>
      <point x="1000" y="270" type="curve"/>
      <point x="1007" y="270" type="line"/>
      <point x="1029.72" y="80.4578"/>
      <point x="1155.17" y="-34"/>
      <point x="1412" y="-34" type="curve" smooth="yes"/>
      <point x="1712.28" y="-34"/>
      <point x="1878" y="132.453"/>
      <point x="1878" y="448" type="curve" smooth="yes"/>
      <point x="1878" y="460" type="line" smooth="yes"/>
      <point x="1878" y="738.61"/>
      <point x="1740.87" y="914.306"/>
      <point x="1515" y="967" type="curve"/>
      <point x="1515" y="995" type="line"/>
      <point x="1038" y="995" type="line"/>
      <point x="1038" y="975" type="line"/>
      <point x="1454.33" y="975"/>
      <point x="1666" y="805.454"/>
      <point x="1666" y="476" type="curve" smooth="yes"/>
      <point x="1666" y="466" type="line" smooth="yes"/>
      <point x="1666" y="257.664"/>
      <point x="1573.02" y="152"/>
      <point x="1393" y="152" type="curve" smooth="yes"/>
      <point x="1213.74" y="152"/>
      <point x="1128.35" y="248.058"/>
      <point x="1117" y="441" type="curve" smooth="yes"/>
      <point x="1116" y="458" type="line"/>
      <point x="891" y="458" type="line"/>
      <point x="890" y="441" type="line" smooth="yes"/>
      <point x="878.653" y="248.107"/>
      <point x="794.266" y="152"/>
      <point x="614" y="152" type="curve" smooth="yes"/>
      <point x="433.985" y="152"/>
      <point x="342" y="257.663"/>
      <point x="342" y="466" type="curve" smooth="yes"/>
    </contour>
    <contour>
      <point x="1003" y="-423" type="curve" smooth="yes"/>
      <point x="1082" y="-423"/>
      <point x="1121" y="-373.616"/>
      <point x="1121" y="-278" type="curve" smooth="yes"/>
      <point x="1121" y="-272" type="line" smooth="yes"/>
      <point x="1121" y="-135.72"/>
      <point x="1083" y="-32.3597"/>
      <point x="1003" y="79" type="curve"/>
      <point x="924" y="-32.3597"/>
      <point x="886" y="-135.72"/>
      <point x="886" y="-272" type="curve" smooth="yes"/>
      <point x="886" y="-278" type="line" smooth="yes"/>
      <point x="886" y="-373.616"/>
      <point x="925" y="-423"/>
    </contour>
    <contour>
      <point x="1608" y="1552" type="line"/>
      <point x="1656" y="1479.1"/>
      <point x="1686" y="1391.01"/>
      <point x="1686" y="1307" type="curve" smooth="yes"/>
      <point x="1686" y="1194.16"/>
      <point x="1638.1" y="1148"/>
      <point x="1526" y="1148" type="curve" smooth="yes"/>
      <point x="1436" y="1148" type="line"/>
      <point x="1436" y="974" type="line"/>
      <point x="1596" y="974" type="line" smooth="yes"/>
      <point x="1787" y="974"/>
      <point x="1882" y="1072.2"/>
      <point x="1882" y="1277" type="curve" smooth="yes"/>
      <point x="1882" y="1375.6"/>
      <point x="1852.33" y="1474.16"/>
      <point x="1790" y="1552" type="curve"/>
    </contour>
  </outline>
  <guideline angle="90" x="730" y="0"/>
  <guideline angle="90" x="421" y="0"/>
  <guideline angle="0" x="0" y="-274"/>
  <guideline angle="90" x="112" y="0"/>
</glyph>
<glyph name="Dha.kn" format="2">
  <advance width="2007"/>
  <unicode hex="0CA7"/>
  <outline>
    <contour>
      <point x="342" y="476" type="line" smooth="yes"/>
      <point x="342" y="805.032"/>
      <point x="554.677" y="975"/>
      <point x="970" y="975" type="curve"/>
      <point x="969" y="995" type="line"/>
      <point x="495" y="995" type="line"/>
      <point x="495" y="968" type="line"/>
      <point x="269.187" y="916.303"/>
      <point x="130" y="739.322"/>
      <point x="130" y="460" type="curve" smooth="yes"/>
      <point x="130" y="448" type="line" smooth="yes"/>
      <point x="130" y="132"/>
      <point x="296" y="-34"/>
      <point x="596" y="-34" type="curve" smooth="yes"/>
      <point x="853" y="-34"/>
      <point x="977" y="80.5205"/>
      <point x="1000" y="270" type="curve"/>
      <point x="1007" y="270" type="line"/>
      <point x="1030" y="80.5206"/>
      <point x="1155" y="-34"/>
      <point x="1412" y="-34" type="curve" smooth="yes"/>
      <point x="1712" y="-34"/>
      <point x="1878" y="132"/>
      <point x="1878" y="448" type="curve" smooth="yes"/>
      <point x="1878" y="460" type="line" smooth="yes"/>
      <point x="1878" y="738.772"/>
      <point x="1740.81" y="915.405"/>
      <point x="1515" y="967" type="curve"/>
      <point x="1515" y="995" type="line"/>
      <point x="1038" y="995" type="line"/>
      <point x="1038" y="975" type="line"/>
      <point x="1454.33" y="975"/>
      <point x="1666" y="805.032"/>
      <point x="1666" y="476" type="curve" smooth="yes"/>
      <point x="1666" y="466" type="line" smooth="yes"/>
      <point x="1666" y="257.663"/>
      <point x="1573.32" y="152"/>
      <point x="1393" y="152" type="curve" smooth="yes"/>
      <point x="1212.35" y="152"/>
      <point x="1132.26" y="247.685"/>
      <point x="1117" y="441" type="curve" smooth="yes"/>
      <point x="1114" y="479" type="line"/>
      <point x="893" y="479" type="line"/>
      <point x="890" y="441" type="line" smooth="yes"/>
      <point x="874.738" y="247.685"/>
      <point x="794.655" y="152"/>
      <point x="614" y="152" type="curve" smooth="yes"/>
      <point x="433.674" y="152"/>
      <point x="342" y="257.663"/>
      <point x="342" y="466" type="curve" smooth="yes"/>
    </contour>
    <contour>
      <point x="1491" y="975" type="line"/>
      <point x="1491" y="1148" type="line"/>
      <point x="129" y="1148" type="line"/>
      <point x="129" y="975" type="line"/>
    </contour>
    <contour>
      <point x="1609" y="1552" type="line"/>
      <point x="1657" y="1479.1"/>
      <point x="1687" y="1391.01"/>
      <point x="1687" y="1307" type="curve" smooth="yes"/>
      <point x="1687" y="1194.16"/>
      <point x="1639.1" y="1148"/>
      <point x="1527" y="1148" type="curve" smooth="yes"/>
      <point x="1437" y="1148" type="line"/>
      <point x="1437" y="974" type="line"/>
      <point x="1597" y="974" type="line" smooth="yes"/>
      <point x="1788" y="974"/>
      <point x="1883" y="1072.2"/>
      <point x="1883" y="1277" type="curve" smooth="yes"/>
      <point x="1883" y="1375.6"/>
      <point x="1853.33" y="1474.16"/>
      <point x="1791" y="1552" type="curve"/>
    </contour>
    <contour>
      <point x="1003" y="-423" type="curve" smooth="yes"/>
      <point x="1082" y="-423"/>
      <point x="1121" y="-373.616"/>
      <point x="1121" y="-278" type="curve" smooth="yes"/>
      <point x="1121" y="-272" type="line" smooth="yes"/>
      <point x="1121" y="-135.72"/>
      <point x="1083" y="-32.3597"/>
      <point x="1003" y="79" type="curve"/>
      <point x="924" y="-32.3597"/>
      <point x="886" y="-135.72"/>
      <point x="886" y="-272" type="curve" smooth="yes"/>
      <point x="886" y="-278" type="line" smooth="yes"/>
      <point x="886" y="-373.616"/>
      <point x="925" y="-423"/>
    </contour>
  </outline>
</glyph>
<glyph name="Ya.kn" format="2">
  <advance width="3370"/>
  <unicode hex="0CAF"/>
  <outline>
    <component base="matraU.kn" xOffset="2505"/>
    <contour>
      <point x="1641" y="994" type="line"/>
      <point x="1641" y="975" type="line"/>
      <point x="1972.01" y="975"/>
      <point x="2138" y="829.626"/>
      <point x="2138" y="536" type="curve" smooth="yes"/>
      <point x="2138" y="533" type="line" smooth="yes"/>
      <point x="2138" y="284.309"/>
      <point x="2016.31" y="153"/>
      <point x="1784" y="153" type="curve" smooth="yes"/>
      <point x="1575" y="153"/>
      <point x="1454" y="260.25"/>
      <point x="1454" y="439" type="curve" smooth="yes"/>
      <point x="1454" y="443" type="line"/>
      <point x="1351" y="437" type="line"/>
      <point x="1351" y="334" type="line"/>
      <point x="1360.32" y="112"/>
      <point x="1522.93" y="-34"/>
      <point x="1815" y="-34" type="curve" smooth="yes"/>
      <point x="2165.84" y="-34"/>
      <point x="2350" y="154.477"/>
      <point x="2350" y="508" type="curve" smooth="yes"/>
      <point x="2350" y="512" type="line" smooth="yes"/>
      <point x="2350" y="777.846"/>
      <point x="2237.5" y="925.136"/>
      <point x="2051" y="967" type="curve"/>
      <point x="2051" y="994" type="line"/>
    </contour>
    <contour>
      <point x="1606.33" y="1148" type="line"/>
      <point x="1606.33" y="974.711" type="line"/>
      <point x="1925.33" y="974.711" type="line"/>
      <point x="1922.33" y="1148" type="line"/>
    </contour>
    <contour>
      <point x="1472" y="587" type="line" smooth="yes"/>
      <point x="1472" y="981.572"/>
      <point x="1233.9" y="1197"/>
      <point x="798" y="1197" type="curve" smooth="yes"/>
      <point x="363.1" y="1197"/>
      <point x="126" y="981.549"/>
      <point x="126" y="587" type="curve" smooth="yes"/>
      <point x="126" y="574" type="line" smooth="yes"/>
      <point x="126" y="180.477"/>
      <point x="363.1" y="-36"/>
      <point x="799" y="-36" type="curve" smooth="yes"/>
      <point x="1234.9" y="-36"/>
      <point x="1472" y="180.477"/>
      <point x="1472" y="574" type="curve" smooth="yes"/>
    </contour>
    <contour>
      <point x="799" y="148" type="curve" smooth="yes"/>
      <point x="496.688" y="148"/>
      <point x="338" y="297.306"/>
      <point x="338" y="578" type="curve" smooth="yes"/>
      <point x="338" y="583" type="line" smooth="yes"/>
      <point x="338" y="864.69"/>
      <point x="495.686" y="1013"/>
      <point x="798" y="1013" type="curve" smooth="yes"/>
      <point x="1101.31" y="1013"/>
      <point x="1260" y="864.69"/>
      <point x="1260" y="583" type="curve" smooth="yes"/>
      <point x="1260" y="578" type="line" smooth="yes"/>
      <point x="1260" y="297.306"/>
      <point x="1102.32" y="148"/>
    </contour>
    <contour>
      <point x="2077" y="1552" type="line"/>
      <point x="2125" y="1479.1"/>
      <point x="2155" y="1391.01"/>
      <point x="2155" y="1307" type="curve" smooth="yes"/>
      <point x="2155" y="1194.16"/>
      <point x="2107.1" y="1148"/>
      <point x="1995" y="1148" type="curve" smooth="yes"/>
      <point x="1905" y="1148" type="line"/>
      <point x="1905" y="974" type="line"/>
      <point x="2065" y="974" type="line" smooth="yes"/>
      <point x="2256" y="974"/>
      <point x="2351" y="1072.2"/>
      <point x="2351" y="1277" type="curve" smooth="yes"/>
      <point x="2351" y="1375.6"/>
      <point x="2321.33" y="1474.16"/>
      <point x="2259" y="1552" type="curve"/>
    </contour>
  </outline>
</glyph>
<glyph name="RraObsolete.kn" format="2">
  <advance width="2239"/>
  <unicode hex="0CB1"/>
  <outline>
    <contour>
      <point x="123" y="589" type="line"/>
      <point x="123" y="585" type="line" smooth="yes"/>
      <point x="123" y="174.652"/>
      <point x="315.27" y="-34"/>
      <point x="675" y="-34" type="curve" smooth="yes"/>
      <point x="957.156" y="-34"/>
      <point x="1093.01" y="78.9518"/>
      <point x="1116" y="266" type="curve"/>
      <point x="1123" y="266" type="line"/>
      <point x="1145.99" y="78.9518"/>
      <point x="1281.84" y="-34"/>
      <point x="1564" y="-34" type="curve" smooth="yes"/>
      <point x="1923.73" y="-34"/>
      <point x="2116" y="175.326"/>
      <point x="2116" y="587" type="curve" smooth="yes"/>
      <point x="2116" y="594" type="line" smooth="yes"/>
      <point x="2116" y="981.328"/>
      <point x="1948.1" y="1184"/>
      <point x="1624" y="1184" type="curve" smooth="yes"/>
      <point x="1363.81" y="1184"/>
      <point x="1224" y="1066.43"/>
      <point x="1224" y="887" type="curve" smooth="yes"/>
      <point x="1224" y="881" type="line" smooth="yes"/>
      <point x="1224" y="760.9"/>
      <point x="1287.31" y="696.79"/>
      <point x="1401" y="675" type="curve"/>
      <point x="1401" y="644" type="line"/>
      <point x="1667" y="642" type="line"/>
      <point x="1667" y="666" type="line"/>
      <point x="1515.21" y="666"/>
      <point x="1432" y="723.492"/>
      <point x="1432" y="830" type="curve" smooth="yes"/>
      <point x="1432" y="835" type="line" smooth="yes"/>
      <point x="1432" y="941.537"/>
      <point x="1500.56" y="1001"/>
      <point x="1629" y="1001" type="curve" smooth="yes"/>
      <point x="1810.73" y="1001"/>
      <point x="1904" y="865.894"/>
      <point x="1904" y="605" type="curve" smooth="yes"/>
      <point x="1904" y="598" type="line" smooth="yes"/>
      <point x="1904" y="301.658"/>
      <point x="1778.91" y="152"/>
      <point x="1540" y="152" type="curve" smooth="yes"/>
      <point x="1338.94" y="152"/>
      <point x="1249.29" y="244.48"/>
      <point x="1234" y="428" type="curve" smooth="yes"/>
      <point x="1233.19" y="437.763" type="line"/>
      <point x="1007.81" y="437.763" type="line"/>
      <point x="1007" y="428" type="line" smooth="yes"/>
      <point x="991.694" y="244.33"/>
      <point x="900.056" y="152"/>
      <point x="699" y="152" type="curve" smooth="yes"/>
      <point x="456.811" y="152"/>
      <point x="330" y="302.664"/>
      <point x="330" y="601" type="curve" smooth="yes"/>
      <point x="330" y="618" type="line"/>
    </contour>
    <contour>
      <point x="1706" y="497" type="line"/>
      <point x="1706" y="666.5" type="line"/>
      <point x="901" y="666.5" type="line"/>
      <point x="663.089" y="497" type="line"/>
    </contour>
    <contour>
      <point x="663" y="497" type="curve"/>
      <point x="852.289" y="527"/>
      <point x="1032" y="604.532"/>
      <point x="1032" y="833" type="curve" smooth="yes"/>
      <point x="1032" y="837" type="line" smooth="yes"/>
      <point x="1032" y="1060.14"/>
      <point x="887.549" y="1184"/>
      <point x="625" y="1184" type="curve" smooth="yes"/>
      <point x="291.738" y="1184"/>
      <point x="123" y="971.562"/>
      <point x="123" y="593" type="curve" smooth="yes"/>
      <point x="123" y="588" type="line"/>
      <point x="330" y="617" type="line"/>
      <point x="330" y="624" type="line" smooth="yes"/>
      <point x="330" y="868.084"/>
      <point x="422.098" y="1003"/>
      <point x="622" y="1003" type="curve" smooth="yes"/>
      <point x="752.378" y="1003"/>
      <point x="823" y="944.765"/>
      <point x="823" y="838" type="curve" smooth="yes"/>
      <point x="823" y="834" type="line" smooth="yes"/>
      <point x="823" y="731.385"/>
      <point x="751.212" y="673"/>
      <point x="615" y="673" type="curve" smooth="yes"/>
      <point x="481.315" y="673"/>
      <point x="375.357" y="721.246"/>
      <point x="310" y="801" type="curve"/>
      <point x="297" y="668" type="line"/>
      <point x="337" y="668" type="line"/>
      <point x="385.994" y="563.068"/>
      <point x="496.459" y="497"/>
    </contour>
  </outline>
  <guideline angle="90" x="491" y="0"/>
  <guideline angle="90" x="912" y="0"/>
</glyph>
<glyph name="La.kn" format="2">
  <advance width="1928"/>
  <unicode hex="0CB2"/>
  <outline>
    <contour>
      <point x="325" y="660" type="line"/>
      <point x="325" y="664" type="line" smooth="yes"/>
      <point x="325" y="889.36"/>
      <point x="424.658" y="1004"/>
      <point x="616" y="1004" type="curve" smooth="yes"/>
      <point x="754.065" y="1004"/>
      <point x="830" y="940.511"/>
      <point x="830" y="827" type="curve" smooth="yes"/>
      <point x="830" y="823" type="line" smooth="yes"/>
      <point x="830" y="715.369"/>
      <point x="755.041" y="654"/>
      <point x="614" y="654" type="curve" smooth="yes"/>
      <point x="476" y="654"/>
      <point x="368" y="701.479"/>
      <point x="301" y="783" type="curve"/>
      <point x="289" y="651" type="line"/>
      <point x="331" y="651" type="line"/>
      <point x="385.627" y="541.744"/>
      <point x="494.949" y="477"/>
      <point x="667" y="477" type="curve" smooth="yes"/>
      <point x="902.468" y="477"/>
      <point x="1039" y="602.549"/>
      <point x="1039" y="823" type="curve" smooth="yes"/>
      <point x="1039" y="827" type="line" smooth="yes"/>
      <point x="1039" y="1057.94"/>
      <point x="890" y="1184"/>
      <point x="618" y="1184" type="curve" smooth="yes"/>
      <point x="292.406" y="1184"/>
      <point x="116" y="1006.24"/>
      <point x="116" y="663" type="curve" smooth="yes"/>
      <point x="116" y="654" type="line"/>
    </contour>
    <contour>
      <point x="116" y="658" type="line"/>
      <point x="116" y="654" type="line" smooth="yes"/>
      <point x="116" y="201"/>
      <point x="415" y="-36"/>
      <point x="973" y="-36" type="curve" smooth="yes"/>
      <point x="1518" y="-36"/>
      <point x="1803" y="184"/>
      <point x="1803" y="610" type="curve" smooth="yes"/>
      <point x="1803" y="615" type="line" smooth="yes"/>
      <point x="1803" y="966"/>
      <point x="1612" y="1166"/>
      <point x="1290" y="1166" type="curve" smooth="yes"/>
      <point x="1257" y="1166"/>
      <point x="1230" y="1165"/>
      <point x="1201" y="1160" type="curve"/>
      <point x="1201" y="977" type="line"/>
      <point x="1216" y="979"/>
      <point x="1232" y="980"/>
      <point x="1254" y="980" type="curve" smooth="yes"/>
      <point x="1464.25" y="980"/>
      <point x="1591" y="849.363"/>
      <point x="1591" y="620" type="curve" smooth="yes"/>
      <point x="1591" y="614" type="line" smooth="yes"/>
      <point x="1591" y="309.966"/>
      <point x="1387.34" y="150"/>
      <point x="973" y="150" type="curve" smooth="yes"/>
      <point x="550" y="150"/>
      <point x="325" y="316.984"/>
      <point x="325" y="643" type="curve" smooth="yes"/>
      <point x="325" y="670" type="line"/>
    </contour>
  </outline>
</glyph>
<glyph name="Ssa.kn" format="2">
  <advance width="2094"/>
  <unicode hex="0CB7"/>
  <outline>
    <contour>
      <point x="493" y="724" type="curve" smooth="yes"/>
      <point x="250" y="724"/>
      <point x="113" y="591"/>
      <point x="113" y="360" type="curve" smooth="yes"/>
      <point x="113" y="352" type="line" smooth="yes"/>
      <point x="113" y="101"/>
      <point x="275.691" y="-34"/>
      <point x="584" y="-34" type="curve" smooth="yes"/>
      <point x="863.729" y="-34"/>
      <point x="999.095" y="80.5205"/>
      <point x="1024" y="270" type="curve"/>
      <point x="1031" y="270" type="line"/>
      <point x="1053.23" y="80.5206"/>
      <point x="1178.9" y="-34"/>
      <point x="1437" y="-34" type="curve" smooth="yes"/>
      <point x="1655.85" y="-34"/>
      <point x="1786.16" y="58.101"/>
      <point x="1816" y="233" type="curve"/>
      <point x="1823" y="232" type="line"/>
      <point x="1821" y="-143" type="line"/>
      <point x="2059" y="-143" type="line"/>
      <point x="1965" y="295"/>
      <point x="1898" y="567"/>
      <point x="1801" y="796" type="curve"/>
      <point x="1595" y="796" type="line"/>
      <point x="1642.11" y="685.85"/>
      <point x="1696" y="517.055"/>
      <point x="1696" y="413" type="curve" smooth="yes"/>
      <point x="1696" y="244.87"/>
      <point x="1604.68" y="152"/>
      <point x="1427" y="152" type="curve" smooth="yes"/>
      <point x="1241.35" y="152"/>
      <point x="1155.72" y="246.643"/>
      <point x="1141" y="438" type="curve" smooth="yes"/>
      <point x="1138" y="477" type="line"/>
      <point x="917" y="477" type="line"/>
      <point x="914" y="441" type="line" smooth="yes"/>
      <point x="897.752" y="246.019"/>
      <point x="801.649" y="149"/>
      <point x="594" y="149" type="curve" smooth="yes"/>
      <point x="414.681" y="149"/>
      <point x="322" y="218.976"/>
      <point x="322" y="354" type="curve" smooth="yes"/>
      <point x="322" y="359" type="line" smooth="yes"/>
      <point x="322" y="481.382"/>
      <point x="395.712" y="546"/>
      <point x="529" y="546" type="curve" smooth="yes"/>
      <point x="604" y="546"/>
      <point x="670" y="526"/>
      <point x="715" y="498" type="curve"/>
      <point x="702" y="678" type="line"/>
      <point x="648" y="708"/>
      <point x="583" y="724"/>
    </contour>
    <contour>
      <point x="1490" y="974" type="line"/>
      <point x="1490" y="1148" type="line"/>
      <point x="177" y="1148" type="line"/>
      <point x="177" y="974" type="line"/>
    </contour>
    <contour>
      <point x="1028" y="923" type="curve" smooth="yes"/>
      <point x="947" y="923"/>
      <point x="909" y="878"/>
      <point x="909" y="761" type="curve" smooth="yes"/>
      <point x="909" y="749" type="line" smooth="yes"/>
      <point x="909" y="632"/>
      <point x="947" y="587"/>
      <point x="1028" y="587" type="curve" smooth="yes"/>
      <point x="1110" y="587"/>
      <point x="1147" y="632"/>
      <point x="1147" y="749" type="curve" smooth="yes"/>
      <point x="1147" y="761" type="line" smooth="yes"/>
      <point x="1147" y="878"/>
      <point x="1110" y="923"/>
    </contour>
    <contour>
      <point x="1607" y="1552" type="line"/>
      <point x="1655" y="1479.1"/>
      <point x="1685" y="1391.01"/>
      <point x="1685" y="1307" type="curve" smooth="yes"/>
      <point x="1685" y="1194.16"/>
      <point x="1637.1" y="1148"/>
      <point x="1525" y="1148" type="curve" smooth="yes"/>
      <point x="1435" y="1148" type="line"/>
      <point x="1435" y="974" type="line"/>
      <point x="1595" y="974" type="line" smooth="yes"/>
      <point x="1786" y="974"/>
      <point x="1881" y="1072.2"/>
      <point x="1881" y="1277" type="curve" smooth="yes"/>
      <point x="1881" y="1375.6"/>
      <point x="1851.33" y="1474.16"/>
      <point x="1789" y="1552" type="curve"/>
    </contour>
  </outline>
</glyph>
<glyph name="Sa.kn" format="2">
  <advance width="1860"/>
  <unicode hex="0CB8"/>
  <outline>
    <contour>
      <point x="1380" y="974" type="line"/>
      <point x="1380" y="1148" type="line"/>
      <point x="132" y="1148" type="line"/>
      <point x="132" y="974" type="line"/>
    </contour>
    <contour>
      <point x="929" y="596" type="curve" smooth="yes"/>
      <point x="1011" y="596"/>
      <point x="1049" y="642"/>
      <point x="1049" y="758" type="curve" smooth="yes"/>
      <point x="1049" y="770" type="line" smooth="yes"/>
      <point x="1049" y="887"/>
      <point x="1011" y="932"/>
      <point x="929" y="932" type="curve" smooth="yes"/>
      <point x="848" y="932"/>
      <point x="811" y="887"/>
      <point x="811" y="770" type="curve" smooth="yes"/>
      <point x="811" y="758" type="line" smooth="yes"/>
      <point x="811" y="642"/>
      <point x="848" y="596"/>
    </contour>
    <contour>
      <point x="1739.3" y="406" type="curve" smooth="yes"/>
      <point x="1739.3" y="411" type="line" smooth="yes"/>
      <point x="1739.3" y="574"/>
      <point x="1680.3" y="706"/>
      <point x="1575.3" y="796" type="curve"/>
      <point x="1353.3" y="796" type="line"/>
      <point x="1463.3" y="706"/>
      <point x="1528.3" y="575"/>
      <point x="1528.3" y="424" type="curve" smooth="yes"/>
      <point x="1528.3" y="419" type="line" smooth="yes"/>
      <point x="1528.3" y="248.043"/>
      <point x="1432.37" y="152"/>
      <point x="1271" y="152" type="curve" smooth="yes"/>
      <point x="1129.45" y="152"/>
      <point x="1049.49" y="217.748"/>
      <point x="959" y="350" type="curve" smooth="yes"/>
      <point x="933" y="388" type="line" smooth="yes"/>
      <point x="820.841" y="551.925"/>
      <point x="713.962" y="638"/>
      <point x="503" y="638" type="curve" smooth="yes"/>
      <point x="254" y="638"/>
      <point x="109" y="509"/>
      <point x="109" y="262" type="curve" smooth="yes"/>
      <point x="109" y="256" type="line" smooth="yes"/>
      <point x="109" y="145"/>
      <point x="140" y="48"/>
      <point x="194" y="-26" type="curve"/>
      <point x="408" y="-26" type="line"/>
      <point x="355.231" y="46"/>
      <point x="319" y="145"/>
      <point x="319" y="240" type="curve" smooth="yes"/>
      <point x="319" y="246" type="line" smooth="yes"/>
      <point x="319" y="382.029"/>
      <point x="391.087" y="453"/>
      <point x="518" y="453" type="curve" smooth="yes"/>
      <point x="636.11" y="453"/>
      <point x="685.446" y="397.656"/>
      <point x="768" y="277" type="curve" smooth="yes"/>
      <point x="794" y="239" type="line" smooth="yes"/>
      <point x="917.113" y="59.065"/>
      <point x="1048.08" y="-34"/>
      <point x="1282" y="-34" type="curve" smooth="yes"/>
      <point x="1575" y="-34"/>
      <point x="1739.3" y="122.129"/>
    </contour>
    <contour>
      <point x="1430" y="1552" type="line"/>
      <point x="1478" y="1479.1"/>
      <point x="1508" y="1391.01"/>
      <point x="1508" y="1307" type="curve" smooth="yes"/>
      <point x="1508" y="1194.16"/>
      <point x="1460.1" y="1148"/>
      <point x="1348" y="1148" type="curve" smooth="yes"/>
      <point x="1258" y="1148" type="line"/>
      <point x="1258" y="974" type="line"/>
      <point x="1418" y="974" type="line" smooth="yes"/>
      <point x="1609" y="974"/>
      <point x="1704" y="1072.2"/>
      <point x="1704" y="1277" type="curve" smooth="yes"/>
      <point x="1704" y="1375.6"/>
      <point x="1674.33" y="1474.16"/>
      <point x="1612" y="1552" type="curve"/>
    </contour>
  </outline>
  <guideline angle="90" x="1736" y="0"/>
  <guideline angle="90" x="425" y="0"/>
</glyph>
<glyph name="Avagraha" format="2">
  <advance width="1152"/>
  <unicode hex="0CBD"/>
  <outline>
    <contour>
      <point x="1004" y="1148" type="line"/>
      <point x="455" y="1148" type="line" smooth="yes"/>
      <point x="203" y="1148"/>
      <point x="78" y="1057"/>
      <point x="78" y="877" type="curve" smooth="yes"/>
      <point x="78" y="874" type="line" smooth="yes"/>
      <point x="78" y="472"/>
      <point x="840" y="569"/>
      <point x="840" y="310" type="curve"/>
      <point x="840" y="308" type="line"/>
      <point x="840" y="202.323"/>
      <point x="752.488" y="149"/>
      <point x="567" y="149" type="curve" smooth="yes"/>
      <point x="403.624" y="149"/>
      <point x="255.565" y="178.302"/>
      <point x="83" y="246" type="curve"/>
      <point x="112" y="53" type="line"/>
      <point x="246" y="-3.69663"/>
      <point x="402" y="-34"/>
      <point x="582" y="-34" type="curve" smooth="yes"/>
      <point x="895" y="-34"/>
      <point x="1052" y="80"/>
      <point x="1052" y="300" type="curve" smooth="yes"/>
      <point x="1052" y="303" type="line" smooth="yes"/>
      <point x="1052" y="734"/>
      <point x="290" y="636"/>
      <point x="290" y="871" type="curve"/>
      <point x="290" y="872" type="line"/>
      <point x="290" y="939.424"/>
      <point x="343.438" y="974"/>
      <point x="461" y="974" type="curve" smooth="yes"/>
      <point x="1004" y="974" type="line"/>
    </contour>
  </outline>
</glyph>
<glyph name="matraAa.kn" format="2">
  <advance width="2038"/>
  <unicode hex="0CBE"/>
  <outline>
    <contour>
      <point x="1910" y="502" type="line"/>
      <point x="1910" y="507" type="line" smooth="yes"/>
      <point x="1910" y="929"/>
      <point x="1668" y="1148"/>
      <point x="1186" y="1148" type="curve" smooth="yes"/>
      <point x="379" y="1148" type="line"/>
      <point x="379" y="974" type="line"/>
      <point x="1177" y="974" type="line" smooth="yes"/>
      <point x="1525.99" y="974"/>
      <point x="1698" y="817.434"/>
      <point x="1698" y="513" type="curve" smooth="yes"/>
      <point x="1698" y="470" type="line"/>
    </contour>
    <contour>
      <point x="1439" y="-33" type="curve" smooth="yes"/>
      <point x="1745.6" y="-33"/>
      <point x="1910" y="151"/>
      <point x="1910" y="496" type="curve" smooth="yes"/>
      <point x="1910" y="506" type="line"/>
      <point x="1698" y="472" type="line"/>
      <point x="1698" y="463" type="line" smooth="yes"/>
      <point x="1698" y="255.234"/>
      <point x="1609.66" y="148"/>
      <point x="1438" y="148" type="curve" smooth="yes"/>
      <point x="1292.48" y="148"/>
      <point x="1215" y="211.111"/>
      <point x="1215" y="324" type="curve" smooth="yes"/>
      <point x="1215" y="328" type="line" smooth="yes"/>
      <point x="1215" y="437.927"/>
      <point x="1285.99" y="501"/>
      <point x="1433" y="501" type="curve" smooth="yes"/>
      <point x="1558.69" y="501"/>
      <point x="1658.64" y="452.111"/>
      <point x="1720" y="373" type="curve"/>
      <point x="1733" y="503" type="line"/>
      <point x="1691" y="503" type="line"/>
      <point x="1640.15" y="612.375"/>
      <point x="1534" y="678"/>
      <point x="1375" y="678" type="curve" smooth="yes"/>
      <point x="1138.43" y="678"/>
      <point x="1007" y="550.059"/>
      <point x="1007" y="330" type="curve" smooth="yes"/>
      <point x="1007" y="327" type="line" smooth="yes"/>
      <point x="1007" y="94.1739"/>
      <point x="1159.59" y="-33"/>
    </contour>
  </outline>
</glyph>
<glyph name="matraUu.kn" format="2">
  <advance width="1766"/>
  <unicode hex="0CC2"/>
  <outline>
    <contour>
      <point x="73" y="152" type="curve" smooth="yes"/>
      <point x="-73.6636" y="152"/>
      <point x="-148" y="231.966"/>
      <point x="-148" y="384" type="curve" smooth="yes"/>
      <point x="-148" y="422" type="line"/>
      <point x="-249" y="421" type="line"/>
      <point x="-249" y="317" type="line" smooth="yes"/>
      <point x="-249" y="87"/>
      <point x="-118.186" y="-34"/>
      <point x="111" y="-34" type="curve" smooth="yes"/>
      <point x="363.772" y="-34"/>
      <point x="499" y="107"/>
      <point x="499" y="381" type="curve" smooth="yes"/>
      <point x="499" y="481" type="line"/>
      <point x="287" y="481" type="line"/>
      <point x="287" y="392" type="line" smooth="yes"/>
      <point x="287" y="229.037"/>
      <point x="214.676" y="152"/>
    </contour>
    <contour>
      <point x="962" y="1184" type="curve" smooth="yes"/>
      <point x="519.344" y="1184"/>
      <point x="287" y="973"/>
      <point x="287" y="564" type="curve" smooth="yes"/>
      <point x="287" y="471" type="line"/>
      <point x="499" y="471" type="line"/>
      <point x="499" y="559" type="line" smooth="yes"/>
      <point x="499" y="850.354"/>
      <point x="657.294" y="998"/>
      <point x="963" y="998" type="curve" smooth="yes"/>
      <point x="1268.02" y="998"/>
      <point x="1426" y="836.362"/>
      <point x="1426" y="519" type="curve" smooth="yes"/>
      <point x="1426" y="470" type="line"/>
      <point x="1638" y="504" type="line"/>
      <point x="1638" y="513" type="line" smooth="yes"/>
      <point x="1638" y="955"/>
      <point x="1406" y="1184"/>
    </contour>
    <contour>
      <point x="1638" y="506" type="line"/>
      <point x="1426" y="472" type="line"/>
      <point x="1426" y="463" type="line" smooth="yes"/>
      <point x="1426" y="255.234"/>
      <point x="1337.66" y="148"/>
      <point x="1166" y="148" type="curve" smooth="yes"/>
      <point x="1021.14" y="148"/>
      <point x="944" y="211.111"/>
      <point x="944" y="324" type="curve" smooth="yes"/>
      <point x="944" y="328" type="line" smooth="yes"/>
      <point x="944" y="437.292"/>
      <point x="1014.66" y="500"/>
      <point x="1161" y="500" type="curve" smooth="yes"/>
      <point x="1286.69" y="500"/>
      <point x="1386.64" y="450.729"/>
      <point x="1448" y="371" type="curve"/>
      <point x="1461" y="503" type="line"/>
      <point x="1419" y="503" type="line"/>
      <point x="1368.15" y="612.375"/>
      <point x="1262" y="678"/>
      <point x="1103" y="678" type="curve" smooth="yes"/>
      <point x="866.429" y="678"/>
      <point x="735" y="550.059"/>
      <point x="735" y="330" type="curve" smooth="yes"/>
      <point x="735" y="327" type="line" smooth="yes"/>
      <point x="735" y="94.1739"/>
      <point x="887.587" y="-33"/>
      <point x="1167" y="-33" type="curve" smooth="yes"/>
      <point x="1473.6" y="-33"/>
      <point x="1638" y="151"/>
      <point x="1638" y="496" type="curve" smooth="yes"/>
    </contour>
  </outline>
</glyph>
<glyph name="matraRu.kn" format="2">
  <advance width="215"/>
  <unicode hex="0CC3"/>
  <outline>
    <contour>
      <point x="-605" y="-423" type="line"/>
      <point x="-605" y="-425" type="line"/>
      <point x="-605" y="-658.3"/>
      <point x="-439.797" y="-784"/>
      <point x="-155" y="-784" type="curve" smooth="yes"/>
      <point x="177.066" y="-784"/>
      <point x="339" y="-627.962"/>
      <point x="339" y="-333" type="curve" smooth="yes"/>
      <point x="339" y="-326" type="line" smooth="yes"/>
      <point x="339" y="-132.892"/>
      <point x="279.674" y="44.1231"/>
      <point x="163" y="197" type="curve"/>
      <point x="-15" y="197" type="line"/>
      <point x="108.231" y="25.0135"/>
      <point x="163" y="-137.921"/>
      <point x="163" y="-326" type="curve" smooth="yes"/>
      <point x="163" y="-334" type="line" smooth="yes"/>
      <point x="163" y="-535.14"/>
      <point x="65.8505" y="-640"/>
      <point x="-152" y="-640" type="curve" smooth="yes"/>
      <point x="-343.722" y="-640"/>
      <point x="-441" y="-569.067"/>
      <point x="-441" y="-430" type="curve" smooth="yes"/>
      <point x="-441" y="-417" type="line"/>
    </contour>
    <contour>
      <point x="-304" y="-128" type="curve" smooth="yes"/>
      <point x="-494" y="-128"/>
      <point x="-605" y="-231"/>
      <point x="-605" y="-422" type="curve"/>
      <point x="-605" y="-424" type="line"/>
      <point x="-441" y="-418" type="line"/>
      <point x="-441" y="-407" type="line" smooth="yes"/>
      <point x="-441" y="-316.243"/>
      <point x="-390" y="-261"/>
      <point x="-302" y="-261" type="curve" smooth="yes"/>
      <point x="-239.293" y="-261"/>
      <point x="-205" y="-288.627"/>
      <point x="-205" y="-335" type="curve"/>
      <point x="-205" y="-337" type="line"/>
      <point x="-205" y="-386.359"/>
      <point x="-239.278" y="-414"/>
      <point x="-300" y="-414" type="curve" smooth="yes"/>
      <point x="-365" y="-414"/>
      <point x="-418" y="-386"/>
      <point x="-456" y="-337" type="curve"/>
      <point x="-476" y="-433" type="line"/>
      <point x="-436" y="-433" type="line"/>
      <point x="-408" y="-496"/>
      <point x="-347" y="-532"/>
      <point x="-258" y="-532" type="curve" smooth="yes"/>
      <point x="-118" y="-532"/>
      <point x="-39" y="-464.287"/>
      <point x="-39" y="-342" type="curve"/>
      <point x="-39" y="-340" type="line"/>
      <point x="-39" y="-205"/>
      <point x="-130" y="-128"/>
    </contour>
  </outline>
</glyph>
<glyph name="matraRuu.kn" format="2">
  <advance width="870"/>
  <unicode hex="0CC4"/>
  <outline>
    <contour>
      <point x="-11" y="192" type="line"/>
      <point x="110" y="22"/>
      <point x="163" y="-140"/>
      <point x="163" y="-326" type="curve" smooth="yes"/>
      <point x="163" y="-334" type="line" smooth="yes"/>
      <point x="163" y="-535"/>
      <point x="66" y="-640"/>
      <point x="-152" y="-640" type="curve" smooth="yes"/>
      <point x="-344" y="-640"/>
      <point x="-441" y="-569"/>
      <point x="-441" y="-430" type="curve" smooth="yes"/>
      <point x="-441" y="-417" type="line"/>
      <point x="-605" y="-423" type="line"/>
      <point x="-605" y="-425" type="line"/>
      <point x="-605" y="-658"/>
      <point x="-440" y="-784"/>
      <point x="-155" y="-784" type="curve" smooth="yes"/>
      <point x="177" y="-784"/>
      <point x="339" y="-628"/>
      <point x="339" y="-333" type="curve" smooth="yes"/>
      <point x="339" y="-326" type="line" smooth="yes"/>
      <point x="339" y="-133"/>
      <point x="279" y="44"/>
      <point x="157" y="197" type="curve"/>
      <point x="-9" y="197" type="line"/>
    </contour>
    <contour>
      <point x="999" y="-157" type="line"/>
      <point x="999" y="-154" type="line" smooth="yes"/>
      <point x="999" y="74"/>
      <point x="864" y="197"/>
      <point x="594" y="197" type="curve" smooth="yes"/>
      <point x="100" y="197" type="line"/>
      <point x="178" y="63" type="line"/>
      <point x="598" y="63" type="line" smooth="yes"/>
      <point x="754" y="63"/>
      <point x="838" y="-8"/>
      <point x="838" y="-150" type="curve" smooth="yes"/>
      <point x="838" y="-170" type="line"/>
    </contour>
    <contour>
      <point x="838" y="-168" type="line"/>
      <point x="838" y="-173" type="line" smooth="yes"/>
      <point x="838" y="-270"/>
      <point x="794" y="-327"/>
      <point x="707" y="-327" type="curve" smooth="yes"/>
      <point x="644" y="-327"/>
      <point x="610" y="-301"/>
      <point x="610" y="-254" type="curve"/>
      <point x="610" y="-252" type="line"/>
      <point x="610" y="-206"/>
      <point x="645" y="-179"/>
      <point x="708" y="-179" type="curve" smooth="yes"/>
      <point x="771" y="-179"/>
      <point x="824" y="-205"/>
      <point x="865" y="-252" type="curve"/>
      <point x="875" y="-140" type="line"/>
      <point x="833" y="-140" type="line"/>
      <point x="804" y="-89"/>
      <point x="750" y="-59"/>
      <point x="665" y="-59" type="curve" smooth="yes"/>
      <point x="532" y="-59"/>
      <point x="450" y="-126"/>
      <point x="450" y="-248" type="curve"/>
      <point x="450" y="-250" type="line"/>
      <point x="450" y="-384"/>
      <point x="541" y="-457"/>
      <point x="707" y="-457" type="curve" smooth="yes"/>
      <point x="900" y="-457"/>
      <point x="999" y="-351"/>
      <point x="999" y="-158" type="curve" smooth="yes"/>
      <point x="999" y="-156" type="line"/>
    </contour>
    <contour>
      <point x="-304" y="-128" type="curve" smooth="yes"/>
      <point x="-494" y="-128"/>
      <point x="-605" y="-231"/>
      <point x="-605" y="-422" type="curve"/>
      <point x="-605" y="-424" type="line"/>
      <point x="-441" y="-418" type="line"/>
      <point x="-441" y="-407" type="line" smooth="yes"/>
      <point x="-441" y="-316.243"/>
      <point x="-390" y="-261"/>
      <point x="-302" y="-261" type="curve" smooth="yes"/>
      <point x="-239.293" y="-261"/>
      <point x="-205" y="-288.627"/>
      <point x="-205" y="-335" type="curve"/>
      <point x="-205" y="-337" type="line"/>
      <point x="-205" y="-386.359"/>
      <point x="-239.278" y="-414"/>
      <point x="-300" y="-414" type="curve" smooth="yes"/>
      <point x="-365" y="-414"/>
      <point x="-418" y="-386"/>
      <point x="-456" y="-337" type="curve"/>
      <point x="-476" y="-433" type="line"/>
      <point x="-436" y="-433" type="line"/>
      <point x="-408" y="-496"/>
      <point x="-347" y="-532"/>
      <point x="-258" y="-532" type="curve" smooth="yes"/>
      <point x="-118" y="-532"/>
      <point x="-39" y="-464.287"/>
      <point x="-39" y="-342" type="curve"/>
      <point x="-39" y="-340" type="line"/>
      <point x="-39" y="-205"/>
      <point x="-130" y="-128"/>
    </contour>
  </outline>
  <guideline angle="0" x="0" y="-1153"/>
  <guideline angle="0" x="0" y="-640"/>
</glyph>
<glyph name="Halant.kn" format="2">
  <advance width="938"/>
  <unicode hex="0CCD"/>
  <outline>
    <contour>
      <point x="294" y="1005" type="line"/>
      <point x="294" y="1046" type="line" smooth="yes"/>
      <point x="294" y="1260.09"/>
      <point x="387.214" y="1362"/>
      <point x="584" y="1362" type="curve" smooth="yes"/>
      <point x="683.282" y="1362"/>
      <point x="773.353" y="1339.35"/>
      <point x="845" y="1298" type="curve"/>
      <point x="815" y="1484" type="line"/>
      <point x="749.441" y="1518.07"/>
      <point x="670.309" y="1537"/>
      <point x="566" y="1537" type="curve" smooth="yes"/>
      <point x="264.647" y="1537"/>
      <point x="97" y="1361.95"/>
      <point x="97" y="1036" type="curve" smooth="yes"/>
      <point x="97" y="1000" type="line"/>
    </contour>
    <contour>
      <point x="515" y="492" type="curve" smooth="yes"/>
      <point x="749.641" y="492"/>
      <point x="881" y="611"/>
      <point x="881" y="822" type="curve" smooth="yes"/>
      <point x="881" y="825" type="line" smooth="yes"/>
      <point x="881" y="1041"/>
      <point x="755" y="1148"/>
      <point x="500" y="1148" type="curve" smooth="yes"/>
      <point x="-539" y="1148" type="line"/>
      <point x="-539" y="974" type="line"/>
      <point x="199" y="974" type="line"/>
      <point x="204" y="975" type="line"/>
      <point x="481" y="975" type="line" smooth="yes"/>
      <point x="620.507" y="975"/>
      <point x="682" y="928.272"/>
      <point x="682" y="826" type="curve"/>
      <point x="682" y="824" type="line"/>
      <point x="682" y="722.943"/>
      <point x="623.849" y="667"/>
      <point x="513" y="667" type="curve" smooth="yes"/>
      <point x="367.629" y="667"/>
      <point x="294" y="759.275"/>
      <point x="294" y="941" type="curve" smooth="yes"/>
      <point x="294" y="1010" type="line"/>
      <point x="97" y="1010" type="line"/>
      <point x="97" y="943" type="line" smooth="yes"/>
      <point x="97" y="639"/>
      <point x="248.449" y="492"/>
    </contour>
  </outline>
  <guideline angle="0" x="0" y="1808"/>
</glyph>
<glyph name="Lengthmark.kn" format="2">
  <advance width="1121"/>
  <unicode hex="0CD5"/>
  <outline>
    <contour>
      <point x="317" y="660" type="line"/>
      <point x="317" y="664" type="line" smooth="yes"/>
      <point x="317" y="889.36"/>
      <point x="416.658" y="1004"/>
      <point x="608" y="1004" type="curve" smooth="yes"/>
      <point x="746.71" y="1004"/>
      <point x="823" y="940.511"/>
      <point x="823" y="827" type="curve" smooth="yes"/>
      <point x="823" y="823" type="line" smooth="yes"/>
      <point x="823" y="716.006"/>
      <point x="747.694" y="655"/>
      <point x="606" y="655" type="curve" smooth="yes"/>
      <point x="468" y="655"/>
      <point x="360" y="702.111"/>
      <point x="293" y="783" type="curve"/>
      <point x="281" y="651" type="line"/>
      <point x="323" y="651" type="line"/>
      <point x="377.627" y="542.372"/>
      <point x="486.949" y="478"/>
      <point x="659" y="478" type="curve" smooth="yes"/>
      <point x="895.101" y="478"/>
      <point x="1032" y="603.186"/>
      <point x="1032" y="823" type="curve" smooth="yes"/>
      <point x="1032" y="827" type="line" smooth="yes"/>
      <point x="1032" y="1057.94"/>
      <point x="882.646" y="1184"/>
      <point x="610" y="1184" type="curve" smooth="yes"/>
      <point x="284.406" y="1184"/>
      <point x="108" y="1004.19"/>
      <point x="108" y="657" type="curve" smooth="yes"/>
      <point x="108" y="648" type="line"/>
    </contour>
    <contour>
      <point x="108" y="651" type="line"/>
      <point x="108" y="643" type="line" smooth="yes"/>
      <point x="108" y="209"/>
      <point x="367" y="-12"/>
      <point x="854" y="-12" type="curve" smooth="yes"/>
      <point x="947" y="-12" type="line"/>
      <point x="986" y="163" type="line"/>
      <point x="890" y="163" type="line" smooth="yes"/>
      <point x="507" y="163"/>
      <point x="317" y="316.842"/>
      <point x="317" y="644" type="curve" smooth="yes"/>
      <point x="317" y="668" type="line"/>
    </contour>
  </outline>
</glyph>
<glyph name="matraAiLengthmark.kn" format="2">
  <advance width="209"/>
  <unicode hex="0CD6"/>
  <outline>
    <contour>
      <point x="-543" y="-447" type="line"/>
      <point x="-707" y="-448" type="line"/>
      <point x="-707" y="-450" type="line"/>
      <point x="-707" y="-667.057"/>
      <point x="-533.703" y="-783.667"/>
      <point x="-233.083" y="-783.667" type="curve" smooth="yes"/>
      <point x="94.5" y="-783.667"/>
      <point x="259.083" y="-657.417"/>
      <point x="259.083" y="-428" type="curve" smooth="yes"/>
      <point x="259.083" y="-423.417" type="line" smooth="yes"/>
      <point x="259.083" y="-279.833"/>
      <point x="190.917" y="-186.75"/>
      <point x="61.8334" y="-161.917" type="curve"/>
      <point x="-142.917" y="-143.583" type="line"/>
      <point x="-142.917" y="-223.417" type="line"/>
      <point x="-94.75" y="-224.417" type="line" smooth="yes"/>
      <point x="24.094" y="-226.884"/>
      <point x="88.3334" y="-290.973"/>
      <point x="88.3334" y="-410.583" type="curve" smooth="yes"/>
      <point x="88.3334" y="-414" type="line" smooth="yes"/>
      <point x="88.3334" y="-561.167"/>
      <point x="-13.75" y="-642.167"/>
      <point x="-230.333" y="-642.167" type="curve" smooth="yes"/>
      <point x="-438.641" y="-642.167"/>
      <point x="-543" y="-579.2"/>
      <point x="-543" y="-460" type="curve" smooth="yes"/>
    </contour>
    <contour>
      <point x="61.8333" y="-157.167" type="line"/>
      <point x="177.583" y="-146.32"/>
      <point x="238.917" y="-83.9509"/>
      <point x="238.917" y="23.5" type="curve" smooth="yes"/>
      <point x="238.917" y="91.3447"/>
      <point x="211.75" y="152.325"/>
      <point x="165.25" y="197.083" type="curve"/>
      <point x="3.41667" y="197.083" type="line"/>
      <point x="45.6667" y="148.167"/>
      <point x="69.3333" y="94.9167"/>
      <point x="69.3333" y="34.9167" type="curve" smooth="yes"/>
      <point x="69.3333" y="-42.1217"/>
      <point x="20.4583" y="-80.8752"/>
      <point x="-81.1667" y="-84.1666" type="curve" smooth="yes"/>
      <point x="-142.917" y="-86.1666" type="line"/>
      <point x="-142.917" y="-182.333" type="line"/>
      <point x="61.8333" y="-191.833" type="line"/>
    </contour>
    <contour>
      <point x="-406" y="-168" type="curve" smooth="yes"/>
      <point x="-596.264" y="-168"/>
      <point x="-707" y="-265.646"/>
      <point x="-707" y="-447" type="curve"/>
      <point x="-707" y="-449" type="line"/>
      <point x="-543" y="-448" type="line"/>
      <point x="-543" y="-437" type="line" smooth="yes"/>
      <point x="-543" y="-352"/>
      <point x="-491.884" y="-301"/>
      <point x="-404" y="-301" type="curve" smooth="yes"/>
      <point x="-341.758" y="-301"/>
      <point x="-307" y="-324.83"/>
      <point x="-307" y="-365" type="curve"/>
      <point x="-307" y="-367" type="line"/>
      <point x="-307" y="-410.226"/>
      <point x="-340.814" y="-434"/>
      <point x="-402" y="-434" type="curve" smooth="yes"/>
      <point x="-467.143" y="-434"/>
      <point x="-520.286" y="-409.274"/>
      <point x="-558" y="-367" type="curve"/>
      <point x="-578" y="-463" type="line"/>
      <point x="-538" y="-463" type="line"/>
      <point x="-509.941" y="-519.306"/>
      <point x="-448.562" y="-552"/>
      <point x="-360" y="-552" type="curve" smooth="yes"/>
      <point x="-220.144" y="-552"/>
      <point x="-141" y="-487.508"/>
      <point x="-141" y="-372" type="curve"/>
      <point x="-141" y="-370" type="line"/>
      <point x="-141" y="-240.917"/>
      <point x="-231.964" y="-168"/>
    </contour>
  </outline>
</glyph>
<glyph name="vowelRuu.kn" format="2">
  <advance width="3919"/>
  <unicode hex="0CE0"/>
  <outline>
    <component base="matraUu.kn" xOffset="2153" yOffset="-1"/>
    <contour>
      <point x="1505" y="-33" type="curve" smooth="yes"/>
      <point x="1838.97" y="-33"/>
      <point x="2010" y="149.522"/>
      <point x="2010" y="507" type="curve" smooth="yes"/>
      <point x="2010" y="521" type="line" smooth="yes"/>
      <point x="2010" y="774.86"/>
      <point x="1901.68" y="922.773"/>
      <point x="1722" y="967" type="curve"/>
      <point x="1722" y="993" type="line"/>
      <point x="1311" y="993" type="line"/>
      <point x="1311" y="975" type="line"/>
      <point x="1636" y="975"/>
      <point x="1798" y="832.95"/>
      <point x="1798" y="541" type="curve" smooth="yes"/>
      <point x="1798" y="530" type="line" smooth="yes"/>
      <point x="1798" y="282.834"/>
      <point x="1689.03" y="153"/>
      <point x="1480" y="153" type="curve" smooth="yes"/>
      <point x="1306.86" y="153"/>
      <point x="1196.68" y="237.23"/>
      <point x="1177" y="391" type="curve"/>
      <point x="1177" y="414" type="line"/>
      <point x="1085" y="419" type="line"/>
      <point x="1085" y="291" type="line"/>
      <point x="1104.49" y="83"/>
      <point x="1257.48" y="-33"/>
    </contour>
    <contour>
      <point x="1639" y="975" type="line"/>
      <point x="1639" y="1148" type="line"/>
      <point x="1271" y="1148" type="line"/>
      <point x="1271" y="975" type="line"/>
    </contour>
    <contour>
      <point x="581" y="-34" type="curve" smooth="yes"/>
      <point x="897.351" y="-34"/>
      <point x="1102.68" y="94"/>
      <point x="1141" y="315" type="curve"/>
      <point x="1073" y="280" type="line"/>
      <point x="1152" y="279" type="line"/>
      <point x="1188" y="376"/>
      <point x="1206" y="478"/>
      <point x="1206" y="585" type="curve" smooth="yes"/>
      <point x="1206" y="589" type="line" smooth="yes"/>
      <point x="1206" y="982"/>
      <point x="1010.43" y="1184"/>
      <point x="635" y="1184" type="curve" smooth="yes"/>
      <point x="309.523" y="1184"/>
      <point x="136" y="1053"/>
      <point x="136" y="809" type="curve" smooth="yes"/>
      <point x="136" y="806" type="line" smooth="yes"/>
      <point x="136" y="761"/>
      <point x="145" y="710"/>
      <point x="164" y="674" type="curve"/>
      <point x="366" y="674" type="line"/>
      <point x="351" y="708"/>
      <point x="344" y="751"/>
      <point x="344" y="791" type="curve"/>
      <point x="344" y="792" type="line"/>
      <point x="344" y="931"/>
      <point x="448.156" y="1004"/>
      <point x="637" y="1004" type="curve" smooth="yes"/>
      <point x="872.406" y="1004"/>
      <point x="994" y="864"/>
      <point x="994" y="592" type="curve"/>
      <point x="994" y="590" type="line"/>
      <point x="994" y="504.348"/>
      <point x="981.333" y="428.656"/>
      <point x="956" y="344" type="curve"/>
      <point x="955" y="341"/>
      <point x="954" y="336"/>
      <point x="953" y="334" type="curve" smooth="yes"/>
      <point x="892.968" y="209.989"/>
      <point x="773.873" y="147"/>
      <point x="587" y="147" type="curve" smooth="yes"/>
      <point x="413.323" y="147"/>
      <point x="326" y="196.947"/>
      <point x="326" y="293" type="curve" smooth="yes"/>
      <point x="326" y="296" type="line" smooth="yes"/>
      <point x="326" y="392.331"/>
      <point x="406.333" y="440"/>
      <point x="567" y="440" type="curve" smooth="yes"/>
      <point x="740.412" y="440"/>
      <point x="898.059" y="383.368"/>
      <point x="969" y="286" type="curve"/>
      <point x="1012" y="430" type="line"/>
      <point x="932.82" y="544.168"/>
      <point x="773.506" y="617"/>
      <point x="556" y="617" type="curve" smooth="yes"/>
      <point x="265.025" y="617"/>
      <point x="114" y="508.616"/>
      <point x="114" y="297" type="curve" smooth="yes"/>
      <point x="114" y="294" type="line" smooth="yes"/>
      <point x="114" y="80.6024"/>
      <point x="276.52" y="-34"/>
    </contour>
    <contour>
      <point x="1743" y="1552" type="line"/>
      <point x="1791" y="1479.1"/>
      <point x="1821" y="1391.01"/>
      <point x="1821" y="1307" type="curve" smooth="yes"/>
      <point x="1821" y="1194.16"/>
      <point x="1773.1" y="1148"/>
      <point x="1661" y="1148" type="curve" smooth="yes"/>
      <point x="1571" y="1148" type="line"/>
      <point x="1571" y="974" type="line"/>
      <point x="1731" y="974" type="line" smooth="yes"/>
      <point x="1922" y="974"/>
      <point x="2017" y="1072.2"/>
      <point x="2017" y="1277" type="curve" smooth="yes"/>
      <point x="2017" y="1375.6"/>
      <point x="1987.33" y="1474.16"/>
      <point x="1925" y="1552" type="curve"/>
    </contour>
  </outline>
</glyph>
<glyph name="vowelLruu.kn" format="2">
  <advance width="1975"/>
  <unicode hex="0CE1"/>
  <outline>
    <contour>
      <point x="990" y="-85" type="line"/>
      <point x="880" y="-85" type="line"/>
      <point x="851.698" y="10.5032"/>
      <point x="746.32" y="62"/>
      <point x="597" y="62" type="curve" smooth="yes"/>
      <point x="360.159" y="62"/>
      <point x="227" y="-49"/>
      <point x="227" y="-244" type="curve"/>
      <point x="227" y="-246" type="line"/>
      <point x="227" y="-442"/>
      <point x="357.151" y="-553"/>
      <point x="590" y="-553" type="curve" smooth="yes"/>
      <point x="742.36" y="-553"/>
      <point x="844.91" y="-497"/>
      <point x="883" y="-416" type="curve"/>
      <point x="931" y="-416" type="line"/>
      <point x="913" y="-253" type="line"/>
      <point x="878.489" y="-340"/>
      <point x="762.774" y="-389"/>
      <point x="643" y="-389" type="curve" smooth="yes"/>
      <point x="504.737" y="-389"/>
      <point x="430" y="-340"/>
      <point x="430" y="-249" type="curve" smooth="yes"/>
      <point x="430" y="-245" type="line" smooth="yes"/>
      <point x="430" y="-152.006"/>
      <point x="503.93" y="-102"/>
      <point x="648" y="-102" type="curve" smooth="yes"/>
      <point x="812.686" y="-102"/>
      <point x="888" y="-173"/>
      <point x="888" y="-260" type="curve"/>
    </contour>
    <contour>
      <point x="882" y="1148" type="line"/>
      <point x="882" y="835" type="line" smooth="yes"/>
      <point x="882" y="752.058"/>
      <point x="891" y="688.976"/>
      <point x="902" y="623" type="curve"/>
      <point x="895" y="621" type="line"/>
      <point x="854.564" y="729.139"/>
      <point x="738.034" y="793"/>
      <point x="558" y="793" type="curve" smooth="yes"/>
      <point x="269.266" y="793"/>
      <point x="110" y="643.965"/>
      <point x="110" y="361" type="curve" smooth="yes"/>
      <point x="110" y="357" type="line" smooth="yes"/>
      <point x="110" y="269.741"/>
      <point x="131" y="189.988"/>
      <point x="164" y="129" type="curve"/>
      <point x="371" y="129" type="line"/>
      <point x="342" y="191"/>
      <point x="322" y="266"/>
      <point x="322" y="343" type="curve" smooth="yes"/>
      <point x="322" y="346" type="line" smooth="yes"/>
      <point x="322" y="520.429"/>
      <point x="418.629" y="610"/>
      <point x="604" y="610" type="curve" smooth="yes"/>
      <point x="779.884" y="610"/>
      <point x="882.947" y="511.056"/>
      <point x="884" y="341" type="curve" smooth="yes"/>
      <point x="890" y="-628" type="line"/>
      <point x="1084" y="-628" type="line"/>
      <point x="1090" y="341" type="line" smooth="yes"/>
      <point x="1091.05" y="511.056"/>
      <point x="1194.12" y="610"/>
      <point x="1370" y="610" type="curve" smooth="yes"/>
      <point x="1555.37" y="610"/>
      <point x="1652" y="520.429"/>
      <point x="1652" y="346" type="curve" smooth="yes"/>
      <point x="1652" y="343" type="line" smooth="yes"/>
      <point x="1652" y="266"/>
      <point x="1633" y="191"/>
      <point x="1603" y="129" type="curve"/>
      <point x="1811" y="129" type="line"/>
      <point x="1845" y="189.988"/>
      <point x="1864" y="269.741"/>
      <point x="1864" y="357" type="curve" smooth="yes"/>
      <point x="1864" y="361" type="line" smooth="yes"/>
      <point x="1864" y="643.965"/>
      <point x="1704.73" y="793"/>
      <point x="1416" y="793" type="curve" smooth="yes"/>
      <point x="1235.97" y="793"/>
      <point x="1120.44" y="729.139"/>
      <point x="1080" y="621" type="curve"/>
      <point x="1073" y="623" type="line"/>
      <point x="1084" y="688.976"/>
      <point x="1093" y="752.052"/>
      <point x="1093" y="835" type="curve" smooth="yes"/>
      <point x="1093" y="1148" type="line"/>
    </contour>
  </outline>
</glyph>
<glyph name="matraLru.kn" format="2">
  <unicode hex="0CE2"/>
  <outline>
    <contour>
      <point x="-419.167" y="-107.583" type="line"/>
      <point x="-419.167" y="-263.833" type="line" smooth="yes"/>
      <point x="-419.167" y="-316.966"/>
      <point x="-413.5" y="-352.802"/>
      <point x="-405.083" y="-398.333" type="curve"/>
      <point x="-409.583" y="-399.083" type="line"/>
      <point x="-433.115" y="-341.663"/>
      <point x="-492.97" y="-305.917"/>
      <point x="-590.333" y="-305.917" type="curve" smooth="yes"/>
      <point x="-763.798" y="-305.917"/>
      <point x="-862.167" y="-396.012"/>
      <point x="-862.167" y="-563.917" type="curve"/>
      <point x="-862.167" y="-565.75" type="line"/>
      <point x="-862.167" y="-637.299"/>
      <point x="-841.25" y="-701.911"/>
      <point x="-806" y="-747.083" type="curve"/>
      <point x="-637.083" y="-747.083" type="line"/>
      <point x="-672.667" y="-697.191"/>
      <point x="-694.75" y="-640.17"/>
      <point x="-694.75" y="-578.083" type="curve"/>
      <point x="-694.75" y="-576.25" type="line"/>
      <point x="-694.75" y="-492.478"/>
      <point x="-646.5" y="-449.75"/>
      <point x="-558.333" y="-449.75" type="curve" smooth="yes"/>
      <point x="-471.167" y="-449.75"/>
      <point x="-423.903" y="-495.253"/>
      <point x="-421.5" y="-582" type="curve" smooth="yes"/>
      <point x="-417" y="-744.417" type="line"/>
      <point x="-259" y="-744.417" type="line"/>
      <point x="-254.5" y="-582" type="line" smooth="yes"/>
      <point x="-252.096" y="-495.253"/>
      <point x="-204.833" y="-449.75"/>
      <point x="-117.667" y="-449.75" type="curve" smooth="yes"/>
      <point x="-29.4999" y="-449.75"/>
      <point x="18.7501" y="-492.478"/>
      <point x="18.7501" y="-576.25" type="curve"/>
      <point x="18.7501" y="-577.25" type="line"/>
      <point x="18.7501" y="-639.757"/>
      <point x="-2.91657" y="-696.769"/>
      <point x="-38.9166" y="-747.083" type="curve"/>
      <point x="130" y="-747.083" type="line"/>
      <point x="165.25" y="-701.501"/>
      <point x="186.167" y="-636.476"/>
      <point x="186.167" y="-564.917" type="curve"/>
      <point x="186.167" y="-563.917" type="line"/>
      <point x="186.167" y="-396.012"/>
      <point x="91.4167" y="-305.917"/>
      <point x="-75.6667" y="-305.917" type="curve" smooth="yes"/>
      <point x="-178.417" y="-305.917"/>
      <point x="-241.583" y="-341.663"/>
      <point x="-266.417" y="-399.083" type="curve"/>
      <point x="-270.917" y="-398.333" type="line"/>
      <point x="-262.5" y="-352.802"/>
      <point x="-256.833" y="-316.966"/>
      <point x="-256.833" y="-263.833" type="curve" smooth="yes"/>
      <point x="-256.833" y="-107.583" type="line"/>
    </contour>
  </outline>
</glyph>
<glyph name="Ondu.kn" format="2">
  <advance width="1658"/>
  <unicode hex="0CE7"/>
  <outline>
    <contour>
      <point x="828" y="1197" type="curve" smooth="yes"/>
      <point x="374" y="1197"/>
      <point x="132" y="972.932"/>
      <point x="132" y="547" type="curve" smooth="yes"/>
      <point x="132" y="538" type="line" smooth="yes"/>
      <point x="132" y="319.438"/>
      <point x="195" y="140.434"/>
      <point x="315" y="0" type="curve"/>
      <point x="546" y="0" type="line"/>
      <point x="417.697" y="155"/>
      <point x="344" y="331"/>
      <point x="344" y="536" type="curve" smooth="yes"/>
      <point x="344" y="543" type="line" smooth="yes"/>
      <point x="344" y="849.381"/>
      <point x="508.68" y="1011"/>
      <point x="828" y="1011" type="curve" smooth="yes"/>
      <point x="1148.32" y="1011"/>
      <point x="1314" y="849.381"/>
      <point x="1314" y="543" type="curve" smooth="yes"/>
      <point x="1314" y="536" type="line" smooth="yes"/>
      <point x="1314" y="331"/>
      <point x="1241.31" y="155"/>
      <point x="1112" y="0" type="curve"/>
      <point x="1343" y="0" type="line"/>
      <point x="1463" y="140.434"/>
      <point x="1526" y="319.438"/>
      <point x="1526" y="538" type="curve" smooth="yes"/>
      <point x="1526" y="547" type="line" smooth="yes"/>
      <point x="1526" y="972.932"/>
      <point x="1283" y="1197"/>
    </contour>
  </outline>
</glyph>
<glyph name="Eradu.kn" format="2">
  <advance width="1810"/>
  <unicode hex="0CE8"/>
  <outline>
    <contour>
      <point x="397" y="704" type="line"/>
      <point x="397" y="701" type="line" smooth="yes"/>
      <point x="397" y="448.354"/>
      <point x="556" y="319"/>
      <point x="830" y="319" type="curve" smooth="yes"/>
      <point x="1085" y="319"/>
      <point x="1216" y="427.922"/>
      <point x="1216" y="622" type="curve" smooth="yes"/>
      <point x="1216" y="625" type="line" smooth="yes"/>
      <point x="1216" y="805.911"/>
      <point x="1100" y="909"/>
      <point x="898" y="909" type="curve" smooth="yes"/>
      <point x="745.433" y="909"/>
      <point x="650.837" y="840.647"/>
      <point x="607" y="743" type="curve"/>
      <point x="571" y="743" type="line"/>
      <point x="595" y="629" type="line"/>
      <point x="641.113" y="709.536"/>
      <point x="726.245" y="751"/>
      <point x="830" y="751" type="curve" smooth="yes"/>
      <point x="947.065" y="751"/>
      <point x="1011" y="704.524"/>
      <point x="1011" y="623" type="curve" smooth="yes"/>
      <point x="1011" y="619" type="line" smooth="yes"/>
      <point x="1011" y="531.878"/>
      <point x="947.065" y="484"/>
      <point x="830" y="484" type="curve" smooth="yes"/>
      <point x="681.88" y="484"/>
      <point x="600" y="562.149"/>
      <point x="600" y="703" type="curve" smooth="yes"/>
      <point x="600" y="716" type="line"/>
    </contour>
    <contour>
      <point x="600" y="712" type="line"/>
      <point x="600" y="721" type="line" smooth="yes"/>
      <point x="600" y="906.621"/>
      <point x="750.155" y="1012"/>
      <point x="1011" y="1012" type="curve" smooth="yes"/>
      <point x="1316.04" y="1012"/>
      <point x="1473" y="873.824"/>
      <point x="1473" y="607" type="curve" smooth="yes"/>
      <point x="1473" y="598" type="line" smooth="yes"/>
      <point x="1473" y="317.558"/>
      <point x="1299.66" y="172"/>
      <point x="948" y="172" type="curve" smooth="yes"/>
      <point x="0" y="172" type="line"/>
      <point x="34" y="0" type="line"/>
      <point x="998" y="0" type="line" smooth="yes"/>
      <point x="1441" y="0"/>
      <point x="1683" y="213"/>
      <point x="1683" y="589" type="curve" smooth="yes"/>
      <point x="1683" y="601" type="line" smooth="yes"/>
      <point x="1683" y="981"/>
      <point x="1451" y="1184"/>
      <point x="1017" y="1184" type="curve" smooth="yes"/>
      <point x="614" y="1184"/>
      <point x="397" y="1017.4"/>
      <point x="397" y="707" type="curve" smooth="yes"/>
      <point x="397" y="703" type="line"/>
    </contour>
  </outline>
</glyph>
<glyph name="Nalku.kn" format="2">
  <advance width="1747"/>
  <unicode hex="0CEA"/>
  <outline>
    <contour>
      <point x="899" y="368" type="curve" smooth="yes"/>
      <point x="1067.54" y="368"/>
      <point x="1160" y="326.109"/>
      <point x="1160" y="245" type="curve" smooth="yes"/>
      <point x="1160" y="242" type="line" smooth="yes"/>
      <point x="1160" y="160.964"/>
      <point x="1067.54" y="120"/>
      <point x="899" y="120" type="curve" smooth="yes"/>
      <point x="730.458" y="120"/>
      <point x="638" y="160.964"/>
      <point x="638" y="242" type="curve" smooth="yes"/>
      <point x="638" y="245" type="line" smooth="yes"/>
      <point x="638" y="326.109"/>
      <point x="730.458" y="368"/>
    </contour>
    <contour>
      <point x="899" y="497" type="line"/>
      <point x="656" y="432" type="line"/>
      <point x="510" y="405.62"/>
      <point x="430" y="334.595"/>
      <point x="430" y="224" type="curve" smooth="yes"/>
      <point x="430" y="220" type="line" smooth="yes"/>
      <point x="430" y="45.4054"/>
      <point x="602" y="-46"/>
      <point x="899" y="-46" type="curve" smooth="yes"/>
      <point x="1197" y="-46"/>
      <point x="1367" y="45.4054"/>
      <point x="1367" y="220" type="curve" smooth="yes"/>
      <point x="1367" y="224" type="line" smooth="yes"/>
      <point x="1367" y="334.595"/>
      <point x="1288" y="405.62"/>
      <point x="1141" y="432" type="curve"/>
    </contour>
    <contour>
      <point x="754" y="369" type="curve"/>
      <point x="895" y="441" type="line"/>
      <point x="1043" y="373" type="line"/>
      <point x="1454.48" y="380.162"/>
      <point x="1678" y="520.205"/>
      <point x="1678" y="786" type="curve" smooth="yes"/>
      <point x="1678" y="793" type="line" smooth="yes"/>
      <point x="1678" y="1035.64"/>
      <point x="1516.35" y="1164"/>
      <point x="1219" y="1164" type="curve" smooth="yes"/>
      <point x="1178" y="1164"/>
      <point x="1146" y="1162"/>
      <point x="1107" y="1156" type="curve"/>
      <point x="1107" y="982" type="line"/>
      <point x="1126.62" y="984"/>
      <point x="1150.85" y="985"/>
      <point x="1182" y="985" type="curve" smooth="yes"/>
      <point x="1369.47" y="985"/>
      <point x="1469" y="919.857"/>
      <point x="1469" y="790" type="curve" smooth="yes"/>
      <point x="1469" y="785" type="line" smooth="yes"/>
      <point x="1469" y="603.751"/>
      <point x="1269.61" y="513"/>
      <point x="884" y="513" type="curve" smooth="yes"/>
      <point x="461.979" y="513"/>
      <point x="269" y="602"/>
      <point x="269" y="783" type="curve" smooth="yes"/>
      <point x="269" y="808.166" type="line"/>
      <point x="66" y="810" type="line"/>
      <point x="66" y="805" type="line" smooth="yes"/>
      <point x="66" y="508.192"/>
      <point x="308" y="369"/>
    </contour>
    <contour>
      <point x="269" y="804" type="line"/>
      <point x="269" y="813" type="line" smooth="yes"/>
      <point x="269" y="944.328"/>
      <point x="363.306" y="1014"/>
      <point x="534" y="1014" type="curve" smooth="yes"/>
      <point x="638.719" y="1014"/>
      <point x="725" y="977.434"/>
      <point x="725" y="897" type="curve" smooth="yes"/>
      <point x="725" y="893" type="line" smooth="yes"/>
      <point x="725" y="822.89"/>
      <point x="656.838" y="783"/>
      <point x="531" y="783" type="curve" smooth="yes"/>
      <point x="410.586" y="783"/>
      <point x="315.909" y="819.466"/>
      <point x="258" y="880" type="curve"/>
      <point x="244" y="770" type="line"/>
      <point x="276" y="770" type="line"/>
      <point x="328.411" y="679.486"/>
      <point x="435.497" y="626"/>
      <point x="596" y="626" type="curve" smooth="yes"/>
      <point x="806.929" y="626"/>
      <point x="928" y="724.48"/>
      <point x="928" y="896" type="curve" smooth="yes"/>
      <point x="928" y="900" type="line" smooth="yes"/>
      <point x="928" y="1083.48"/>
      <point x="789.053" y="1184"/>
      <point x="534" y="1184" type="curve" smooth="yes"/>
      <point x="230.951" y="1184"/>
      <point x="66" y="1049.75"/>
      <point x="66" y="813" type="curve" smooth="yes"/>
      <point x="66" y="808" type="line"/>
    </contour>
  </outline>
</glyph>
<glyph name="Aidu.kn" format="2">
  <advance width="2194"/>
  <unicode hex="0CEB"/>
  <outline>
    <contour>
      <point x="594" y="1184" type="curve" smooth="yes"/>
      <point x="295.606" y="1184"/>
      <point x="136" y="1055"/>
      <point x="136" y="816" type="curve" smooth="yes"/>
      <point x="136" y="813" type="line" smooth="yes"/>
      <point x="136" y="767"/>
      <point x="145" y="716"/>
      <point x="164" y="679" type="curve"/>
      <point x="363" y="679" type="line"/>
      <point x="349.667" y="709"/>
      <point x="343" y="747"/>
      <point x="343" y="783" type="curve"/>
      <point x="343" y="784" type="line"/>
      <point x="343" y="927.049"/>
      <point x="434.287" y="1004"/>
      <point x="599" y="1004" type="curve" smooth="yes"/>
      <point x="806.713" y="1004"/>
      <point x="915" y="862.021"/>
      <point x="915" y="587" type="curve" smooth="yes"/>
      <point x="915" y="580" type="line"/>
      <point x="914" y="560" type="line"/>
      <point x="914" y="548" type="line" smooth="yes"/>
      <point x="914" y="296.7"/>
      <point x="805.528" y="145"/>
      <point x="559" y="145" type="curve" smooth="yes"/>
      <point x="404.967" y="145"/>
      <point x="326" y="198.287"/>
      <point x="326" y="297" type="curve" smooth="yes"/>
      <point x="326" y="300" type="line" smooth="yes"/>
      <point x="326" y="401.82"/>
      <point x="397.009" y="456"/>
      <point x="540" y="456" type="curve" smooth="yes"/>
      <point x="945" y="456" type="line"/>
      <point x="1056" y="456" type="line"/>
      <point x="1561" y="456" type="line" smooth="yes"/>
      <point x="1638.85" y="456"/>
      <point x="1710.4" y="471.654"/>
      <point x="1763" y="493" type="curve"/>
      <point x="1772" y="517" type="line"/>
      <point x="1964.82" y="535"/>
      <point x="2084" y="648"/>
      <point x="2084" y="837" type="curve" smooth="yes"/>
      <point x="2084" y="841" type="line" smooth="yes"/>
      <point x="2084" y="1065"/>
      <point x="1932" y="1183"/>
      <point x="1650" y="1183" type="curve" smooth="yes"/>
      <point x="1377" y="1183"/>
      <point x="1234" y="1076.59"/>
      <point x="1234" y="871" type="curve" smooth="yes"/>
      <point x="1234" y="866" type="line" smooth="yes"/>
      <point x="1234" y="709"/>
      <point x="1336" y="614"/>
      <point x="1498" y="582" type="curve"/>
      <point x="1639" y="481" type="line"/>
      <point x="1772.56" y="439.656"/>
      <point x="1858" y="401.266"/>
      <point x="1858" y="292" type="curve" smooth="yes"/>
      <point x="1858" y="289" type="line" smooth="yes"/>
      <point x="1858" y="197.188"/>
      <point x="1786.53" y="145"/>
      <point x="1637" y="145" type="curve" smooth="yes"/>
      <point x="1495.29" y="145"/>
      <point x="1360.77" y="171.722"/>
      <point x="1255" y="219" type="curve"/>
      <point x="1278" y="35" type="line"/>
      <point x="1391" y="-12"/>
      <point x="1514" y="-32"/>
      <point x="1650" y="-32" type="curve" smooth="yes"/>
      <point x="1928" y="-32"/>
      <point x="2069" y="68"/>
      <point x="2069" y="260" type="curve" smooth="yes"/>
      <point x="2069" y="264" type="line" smooth="yes"/>
      <point x="2069" y="416"/>
      <point x="1974" y="491"/>
      <point x="1808" y="553" type="curve"/>
      <point x="1682" y="619" type="line"/>
      <point x="1542.43" y="658"/>
      <point x="1438" y="711"/>
      <point x="1438" y="833" type="curve" smooth="yes"/>
      <point x="1438" y="837" type="line" smooth="yes"/>
      <point x="1438" y="946.365"/>
      <point x="1511.93" y="1003"/>
      <point x="1652" y="1003" type="curve" smooth="yes"/>
      <point x="1794.42" y="1003"/>
      <point x="1873" y="941.392"/>
      <point x="1873" y="826" type="curve" smooth="yes"/>
      <point x="1873" y="822" type="line" smooth="yes"/>
      <point x="1873" y="697.329"/>
      <point x="1761.39" y="625"/>
      <point x="1551" y="625" type="curve" smooth="yes"/>
      <point x="1072" y="625" type="line"/>
      <point x="954" y="627" type="line"/>
      <point x="529" y="627" type="line" smooth="yes"/>
      <point x="255.635" y="627"/>
      <point x="114" y="515.561"/>
      <point x="114" y="303" type="curve" smooth="yes"/>
      <point x="114" y="300" type="line" smooth="yes"/>
      <point x="114" y="83"/>
      <point x="268.607" y="-34"/>
      <point x="558" y="-34" type="curve" smooth="yes"/>
      <point x="939.641" y="-34"/>
      <point x="1126" y="168"/>
      <point x="1126" y="580" type="curve" smooth="yes"/>
      <point x="1126" y="584" type="line" smooth="yes"/>
      <point x="1126" y="980"/>
      <point x="942.723" y="1184"/>
    </contour>
  </outline>
</glyph>
<glyph name="Aaru.kn" format="2">
  <advance width="1514"/>
  <unicode hex="0CEC"/>
  <outline>
    <contour>
      <point x="335" y="338" type="curve" smooth="yes"/>
      <point x="335" y="342" type="line" smooth="yes"/>
      <point x="335" y="458.574"/>
      <point x="424.989" y="512.083"/>
      <point x="602" y="513" type="curve" smooth="yes"/>
      <point x="988" y="515" type="line"/>
      <point x="988" y="687" type="line"/>
      <point x="602" y="689" type="line" smooth="yes"/>
      <point x="428.661" y="689.898"/>
      <point x="340" y="737.452"/>
      <point x="340" y="843" type="curve" smooth="yes"/>
      <point x="340" y="847" type="line" smooth="yes"/>
      <point x="340" y="948.228"/>
      <point x="427.251" y="1008"/>
      <point x="596" y="1008" type="curve" smooth="yes"/>
      <point x="734.098" y="1008"/>
      <point x="846.431" y="988"/>
      <point x="933" y="951" type="curve"/>
      <point x="912" y="1130" type="line"/>
      <point x="819" y="1165"/>
      <point x="706" y="1185"/>
      <point x="575" y="1185" type="curve" smooth="yes"/>
      <point x="282" y="1185"/>
      <point x="128" y="1069.16"/>
      <point x="128" y="870" type="curve" smooth="yes"/>
      <point x="128" y="864" type="line" smooth="yes"/>
      <point x="128" y="710.932"/>
      <point x="220.404" y="621.643"/>
      <point x="385" y="603" type="curve"/>
      <point x="385" y="596" type="line"/>
      <point x="217.397" y="578.383"/>
      <point x="123" y="481.489"/>
      <point x="123" y="320" type="curve" smooth="yes"/>
      <point x="123" y="314" type="line" smooth="yes"/>
      <point x="123" y="111.123"/>
      <point x="277" y="0"/>
      <point x="577" y="0" type="curve" smooth="yes"/>
      <point x="1457" y="0" type="line"/>
      <point x="1490" y="174" type="line"/>
      <point x="602" y="174" type="line" smooth="yes"/>
      <point x="425.978" y="174"/>
      <point x="335" y="232.045"/>
    </contour>
  </outline>
</glyph>
<glyph name="Yelu.kn" format="2">
  <advance width="1583"/>
  <unicode hex="0CED"/>
  <outline>
    <contour>
      <point x="642" y="1184" type="curve" smooth="yes"/>
      <point x="335" y="1184"/>
      <point x="167" y="1060.6"/>
      <point x="167" y="831" type="curve" smooth="yes"/>
      <point x="167" y="826" type="line" smooth="yes"/>
      <point x="167" y="762.585"/>
      <point x="182" y="707.951"/>
      <point x="207" y="666" type="curve"/>
      <point x="403" y="666" type="line"/>
      <point x="379.649" y="709.623"/>
      <point x="367" y="758.319"/>
      <point x="367" y="806" type="curve" smooth="yes"/>
      <point x="367" y="809" type="line" smooth="yes"/>
      <point x="367" y="941.692"/>
      <point x="462.239" y="1009"/>
      <point x="643" y="1009" type="curve" smooth="yes"/>
      <point x="809.728" y="1009"/>
      <point x="896" y="955.024"/>
      <point x="896" y="849" type="curve" smooth="yes"/>
      <point x="896" y="845" type="line" smooth="yes"/>
      <point x="896" y="757.514"/>
      <point x="839.078" y="706.956"/>
      <point x="651" y="671" type="curve" smooth="yes"/>
      <point x="515" y="645" type="line" smooth="yes"/>
      <point x="224.931" y="589.546"/>
      <point x="117" y="489.737"/>
      <point x="117" y="302" type="curve" smooth="yes"/>
      <point x="117" y="295" type="line" smooth="yes"/>
      <point x="117" y="107"/>
      <point x="253.976" y="0"/>
      <point x="523" y="0" type="curve" smooth="yes"/>
      <point x="1525" y="0" type="line"/>
      <point x="1559" y="174" type="line"/>
      <point x="536" y="174" type="line" smooth="yes"/>
      <point x="391.625" y="174"/>
      <point x="326" y="219.357"/>
      <point x="326" y="301" type="curve" smooth="yes"/>
      <point x="326" y="305" type="line" smooth="yes"/>
      <point x="326" y="393.472"/>
      <point x="389.889" y="442.513"/>
      <point x="580" y="480" type="curve" smooth="yes"/>
      <point x="722" y="508" type="line" smooth="yes"/>
      <point x="992.877" y="561.412"/>
      <point x="1103" y="661.288"/>
      <point x="1103" y="843" type="curve" smooth="yes"/>
      <point x="1103" y="849" type="line" smooth="yes"/>
      <point x="1103" y="1067"/>
      <point x="940" y="1184"/>
    </contour>
  </outline>
</glyph>
<glyph name="Ombattu.kn" format="2">
  <advance width="1492"/>
  <unicode hex="0CEF"/>
  <outline>
    <contour>
      <point x="330" y="821" type="line" smooth="yes"/>
      <point x="330" y="921.84"/>
      <point x="414.95" y="975"/>
      <point x="577" y="975" type="curve" smooth="yes"/>
      <point x="1467" y="975" type="line"/>
      <point x="1467" y="1149" type="line"/>
      <point x="557" y="1149" type="line" smooth="yes"/>
      <point x="269" y="1149"/>
      <point x="118" y="1041.25"/>
      <point x="118" y="839" type="curve" smooth="yes"/>
      <point x="118" y="833" type="line" smooth="yes"/>
      <point x="118" y="684.929"/>
      <point x="205.882" y="593.5"/>
      <point x="363" y="572.6" type="curve"/>
      <point x="363" y="566.083" type="line"/>
      <point x="208.945" y="544.88"/>
      <point x="123" y="456.109"/>
      <point x="123" y="311" type="curve" smooth="yes"/>
      <point x="123" y="305" type="line" smooth="yes"/>
      <point x="123" y="110.8"/>
      <point x="267" y="0"/>
      <point x="550" y="0" type="curve" smooth="yes"/>
      <point x="849" y="0" type="line"/>
      <point x="881" y="171" type="line"/>
      <point x="567" y="171" type="line" smooth="yes"/>
      <point x="411.65" y="171"/>
      <point x="335" y="228.844"/>
      <point x="335" y="324" type="curve" smooth="yes"/>
      <point x="335" y="328" type="line" smooth="yes"/>
      <point x="335" y="430.923"/>
      <point x="415.65" y="479.242"/>
      <point x="573" y="480" type="curve" smooth="yes"/>
      <point x="988" y="482" type="line"/>
      <point x="988" y="654" type="line"/>
      <point x="582" y="656" type="line" smooth="yes"/>
      <point x="415" y="656.823"/>
      <point x="330" y="708.723"/>
      <point x="330" y="817" type="curve" smooth="yes"/>
    </contour>
  </outline>
  <guideline angle="0" x="0" y="589"/>
</glyph>
<glyph name="Jihvamuliya.kn" format="2">
  <advance width="1438"/>
  <unicode hex="0CF1"/>
  <outline>
    <contour>
      <point x="106" y="1148" type="line"/>
      <point x="106" y="985" type="line"/>
      <point x="570" y="579" type="line"/>
      <point x="104" y="164" type="line"/>
      <point x="104" y="0" type="line"/>
      <point x="1330" y="0" type="line"/>
      <point x="1330" y="164" type="line"/>
      <point x="864" y="579" type="line"/>
      <point x="1328" y="985" type="line"/>
      <point x="1328" y="1148" type="line"/>
    </contour>
    <contour>
      <point x="374" y="982" type="line"/>
      <point x="1061" y="982" type="line"/>
      <point x="717" y="681" type="line"/>
    </contour>
    <contour>
      <point x="370" y="167" type="line"/>
      <point x="714" y="476" type="line"/>
      <point x="1064" y="167" type="line"/>
    </contour>
  </outline>
</glyph>
<glyph name="Upadhmaniya.kn" format="2">
  <advance width="1905"/>
  <unicode hex="0CF2"/>
  <outline>
    <contour>
      <point x="477" y="876" type="curve" smooth="yes"/>
      <point x="204" y="876"/>
      <point x="65" y="761"/>
      <point x="65" y="543" type="curve" smooth="yes"/>
      <point x="65" y="540" type="line" smooth="yes"/>
      <point x="65" y="324"/>
      <point x="204" y="207"/>
      <point x="477" y="207" type="curve" smooth="yes"/>
      <point x="752" y="207"/>
      <point x="890" y="324"/>
      <point x="890" y="540" type="curve" smooth="yes"/>
      <point x="890" y="543" type="line" smooth="yes"/>
      <point x="890" y="761"/>
      <point x="752" y="876"/>
    </contour>
    <contour>
      <point x="477" y="710" type="curve" smooth="yes"/>
      <point x="615.177" y="710"/>
      <point x="688" y="651.111"/>
      <point x="688" y="543" type="curve" smooth="yes"/>
      <point x="688" y="540" type="line" smooth="yes"/>
      <point x="688" y="433.647"/>
      <point x="615.177" y="373"/>
      <point x="477" y="373" type="curve" smooth="yes"/>
      <point x="339.8" y="373"/>
      <point x="267" y="433.647"/>
      <point x="267" y="540" type="curve" smooth="yes"/>
      <point x="267" y="543" type="line" smooth="yes"/>
      <point x="267" y="651.111"/>
      <point x="339.8" y="710"/>
    </contour>
    <contour>
      <point x="1427" y="876" type="curve" smooth="yes"/>
      <point x="1154" y="876"/>
      <point x="1015" y="761"/>
      <point x="1015" y="543" type="curve" smooth="yes"/>
      <point x="1015" y="540" type="line" smooth="yes"/>
      <point x="1015" y="324"/>
      <point x="1154" y="207"/>
      <point x="1427" y="207" type="curve" smooth="yes"/>
      <point x="1702" y="207"/>
      <point x="1840" y="324"/>
      <point x="1840" y="540" type="curve" smooth="yes"/>
      <point x="1840" y="543" type="line" smooth="yes"/>
      <point x="1840" y="761"/>
      <point x="1702" y="876"/>
    </contour>
    <contour>
      <point x="1427" y="710" type="curve" smooth="yes"/>
      <point x="1565.18" y="710"/>
      <point x="1638" y="651.111"/>
      <point x="1638" y="543" type="curve" smooth="yes"/>
      <point x="1638" y="540" type="line" smooth="yes"/>
      <point x="1638" y="433.647"/>
      <point x="1565.18" y="373"/>
      <point x="1427" y="373" type="curve" smooth="yes"/>
      <point x="1289.8" y="373"/>
      <point x="1217" y="433.647"/>
      <point x="1217" y="540" type="curve" smooth="yes"/>
      <point x="1217" y="543" type="line" smooth="yes"/>
      <point x="1217" y="651.111"/>
      <point x="1289.8" y="710"/>
    </contour>
  </outline>
</glyph>
<glyph name="endash" format="2">
  <advance width="1352"/>
  <unicode hex="2013"/>
  <outline>
    <contour>
      <point x="1212" y="438" type="line"/>
      <point x="1212" y="610" type="line"/>
      <point x="140" y="610" type="line"/>
      <point x="140" y="438" type="line"/>
    </contour>
  </outline>
</glyph>
<glyph name="quotedblleft" format="2">
  <advance width="889"/>
  <unicode hex="201C"/>
  <outline>
    <contour>
      <point x="322" y="796" type="line"/>
      <point x="317" y="836"/>
      <point x="314" y="875"/>
      <point x="314" y="918" type="curve" smooth="yes"/>
      <point x="314" y="1067"/>
      <point x="345" y="1185"/>
      <point x="419" y="1299" type="curve"/>
      <point x="262" y="1339" type="line"/>
      <point x="149" y="1213"/>
      <point x="106" y="1076"/>
      <point x="106" y="911" type="curve" smooth="yes"/>
      <point x="106" y="866"/>
      <point x="110" y="822"/>
      <point x="115" y="796" type="curve"/>
    </contour>
    <contour>
      <point x="734" y="796" type="line"/>
      <point x="729" y="836"/>
      <point x="726" y="875"/>
      <point x="726" y="918" type="curve" smooth="yes"/>
      <point x="726" y="1067"/>
      <point x="757" y="1185"/>
      <point x="831" y="1299" type="curve"/>
      <point x="674" y="1339" type="line"/>
      <point x="561" y="1213"/>
      <point x="518" y="1076"/>
      <point x="518" y="911" type="curve" smooth="yes"/>
      <point x="518" y="866"/>
      <point x="522" y="822"/>
      <point x="527" y="796" type="curve"/>
    </contour>
  </outline>
</glyph>
<glyph name="BaHalant.kn" format="2">
  <advance width="2913"/>
  <outline>
    <component base="Halant.kn" xOffset="1975"/>
    <contour>
      <point x="610" y="1184" type="curve" smooth="yes"/>
      <point x="309" y="1184"/>
      <point x="145" y="1060"/>
      <point x="145" y="830" type="curve" smooth="yes"/>
      <point x="145" y="825" type="line" smooth="yes"/>
      <point x="145" y="762"/>
      <point x="160" y="706"/>
      <point x="184" y="666" type="curve"/>
      <point x="380" y="666" type="line"/>
      <point x="357" y="712"/>
      <point x="345" y="763"/>
      <point x="345" y="813" type="curve" smooth="yes"/>
      <point x="345" y="816" type="line" smooth="yes"/>
      <point x="345" y="942.7"/>
      <point x="435.3" y="1009"/>
      <point x="610" y="1009" type="curve" smooth="yes"/>
      <point x="769.4" y="1009"/>
      <point x="853" y="954.7"/>
      <point x="853" y="850" type="curve" smooth="yes"/>
      <point x="853" y="846" type="line" smooth="yes"/>
      <point x="853" y="761.5"/>
      <point x="797.7" y="716.8"/>
      <point x="626" y="678" type="curve" smooth="yes"/>
      <point x="511" y="652" type="line" smooth="yes"/>
      <point x="224.5" y="587.25"/>
      <point x="116" y="492.75"/>
      <point x="116" y="301" type="curve" smooth="yes"/>
      <point x="116" y="293" type="line" smooth="yes"/>
      <point x="116" y="85"/>
      <point x="279" y="-34"/>
      <point x="580" y="-34" type="curve" smooth="yes"/>
      <point x="872" y="-34"/>
      <point x="1013" y="80.5"/>
      <point x="1038" y="270" type="curve"/>
      <point x="1045" y="270" type="line"/>
      <point x="1068" y="80.5"/>
      <point x="1197" y="-34"/>
      <point x="1459" y="-34" type="curve" smooth="yes"/>
      <point x="1777" y="-34"/>
      <point x="1943" y="158.491"/>
      <point x="1943" y="502" type="curve" smooth="yes"/>
      <point x="1943" y="516" type="line" smooth="yes"/>
      <point x="1943" y="772.693"/>
      <point x="1835.06" y="922.28"/>
      <point x="1656" y="967" type="curve"/>
      <point x="1656" y="994" type="line"/>
      <point x="1245" y="994" type="line"/>
      <point x="1245" y="975" type="line"/>
      <point x="1569.33" y="975"/>
      <point x="1731" y="830.626"/>
      <point x="1731" y="536" type="curve" smooth="yes"/>
      <point x="1731" y="525" type="line" smooth="yes"/>
      <point x="1731" y="286.95"/>
      <point x="1632.32" y="152"/>
      <point x="1440" y="152" type="curve" smooth="yes"/>
      <point x="1254.35" y="152"/>
      <point x="1172.05" y="247.65"/>
      <point x="1156" y="440" type="curve" smooth="yes"/>
      <point x="1154" y="464" type="line"/>
      <point x="931" y="464" type="line"/>
      <point x="929" y="441" type="line" smooth="yes"/>
      <point x="912.188" y="247.663"/>
      <point x="809.65" y="151"/>
      <point x="586" y="151" type="curve" smooth="yes"/>
      <point x="413.66" y="151"/>
      <point x="325" y="206.53"/>
      <point x="325" y="301" type="curve" smooth="yes"/>
      <point x="325" y="306" type="line" smooth="yes"/>
      <point x="325" y="399"/>
      <point x="390.752" y="443.471"/>
      <point x="581" y="489" type="curve" smooth="yes"/>
      <point x="698" y="517" type="line" smooth="yes"/>
      <point x="953.1" y="578.05"/>
      <point x="1060" y="667.9"/>
      <point x="1060" y="844" type="curve" smooth="yes"/>
      <point x="1060" y="849" type="line" smooth="yes"/>
      <point x="1060" y="1067"/>
      <point x="902" y="1184"/>
    </contour>
    <contour>
      <point x="1205" y="975" type="line"/>
      <point x="1573" y="975" type="line"/>
      <point x="1573" y="1148" type="line"/>
      <point x="1205" y="1148" type="line"/>
    </contour>
  </outline>
</glyph>
<glyph name="BamatraI.kn.1" format="2">
  <advance width="2129"/>
  <outline>
    <contour>
      <point x="610" y="1184" type="curve" smooth="yes"/>
      <point x="309" y="1184"/>
      <point x="145" y="1060"/>
      <point x="145" y="830" type="curve" smooth="yes"/>
      <point x="145" y="825" type="line" smooth="yes"/>
      <point x="145" y="762"/>
      <point x="160" y="706"/>
      <point x="184" y="666" type="curve"/>
      <point x="380" y="666" type="line"/>
      <point x="357" y="712"/>
      <point x="345" y="763"/>
      <point x="345" y="813" type="curve" smooth="yes"/>
      <point x="345" y="816" type="line" smooth="yes"/>
      <point x="345" y="942.717"/>
      <point x="435.318" y="1009"/>
      <point x="610" y="1009" type="curve" smooth="yes"/>
      <point x="769.377" y="1009"/>
      <point x="853" y="954.707"/>
      <point x="853" y="850" type="curve" smooth="yes"/>
      <point x="853" y="846" type="line" smooth="yes"/>
      <point x="853" y="761.514"/>
      <point x="797.718" y="716.823"/>
      <point x="626" y="678" type="curve" smooth="yes"/>
      <point x="511" y="652" type="line" smooth="yes"/>
      <point x="224.511" y="587.229"/>
      <point x="116" y="492.731"/>
      <point x="116" y="301" type="curve" smooth="yes"/>
      <point x="116" y="293" type="line" smooth="yes"/>
      <point x="116" y="85"/>
      <point x="280.405" y="-34"/>
      <point x="584" y="-34" type="curve" smooth="yes"/>
      <point x="878.55" y="-34"/>
      <point x="1020.78" y="80.5206"/>
      <point x="1046" y="270" type="curve"/>
      <point x="1064" y="270" type="line"/>
      <point x="1063" y="464" type="line"/>
      <point x="939" y="464" type="line"/>
      <point x="937" y="441" type="line" smooth="yes"/>
      <point x="920.185" y="247.629"/>
      <point x="816.26" y="151"/>
      <point x="590" y="151" type="curve" smooth="yes"/>
      <point x="415.019" y="151"/>
      <point x="325" y="206.519"/>
      <point x="325" y="301" type="curve" smooth="yes"/>
      <point x="325" y="306" type="line" smooth="yes"/>
      <point x="325" y="398.984"/>
      <point x="390.746" y="443.469"/>
      <point x="581" y="489" type="curve" smooth="yes"/>
      <point x="698" y="517" type="line" smooth="yes"/>
      <point x="953.08" y="578.045"/>
      <point x="1060" y="667.923"/>
      <point x="1060" y="844" type="curve" smooth="yes"/>
      <point x="1060" y="849" type="line" smooth="yes"/>
      <point x="1060" y="1067"/>
      <point x="902" y="1184"/>
    </contour>
    <contour>
      <point x="1999" y="685" type="curve" smooth="yes"/>
      <point x="1999" y="691" type="line" smooth="yes"/>
      <point x="1999" y="1124.03"/>
      <point x="1842.51" y="1376"/>
      <point x="1492" y="1376" type="curve" smooth="yes"/>
      <point x="1238.95" y="1376"/>
      <point x="1102" y="1259.88"/>
      <point x="1102" y="1048" type="curve" smooth="yes"/>
      <point x="1102" y="1044" type="line" smooth="yes"/>
      <point x="1102" y="844.63"/>
      <point x="1239.48" y="731"/>
      <point x="1479" y="731" type="curve" smooth="yes"/>
      <point x="1663.44" y="731"/>
      <point x="1773.69" y="821.325"/>
      <point x="1818" y="948" type="curve"/>
      <point x="1782" y="1077" type="line"/>
      <point x="1729.05" y="969.191"/>
      <point x="1633.09" y="895"/>
      <point x="1493" y="895" type="curve" smooth="yes"/>
      <point x="1369.66" y="895"/>
      <point x="1304" y="947.076"/>
      <point x="1304" y="1041" type="curve" smooth="yes"/>
      <point x="1304" y="1045" type="line" smooth="yes"/>
      <point x="1304" y="1150.35"/>
      <point x="1370.92" y="1207"/>
      <point x="1491" y="1207" type="curve" smooth="yes"/>
      <point x="1695.02" y="1207"/>
      <point x="1787" y="1036.43"/>
      <point x="1787" y="689" type="curve" smooth="yes"/>
      <point x="1787" y="683" type="line" smooth="yes"/>
      <point x="1787" y="334.87"/>
      <point x="1672.21" y="152"/>
      <point x="1444" y="152" type="curve" smooth="yes"/>
      <point x="1260.96" y="152"/>
      <point x="1180.03" y="247.684"/>
      <point x="1164" y="440" type="curve" smooth="yes"/>
      <point x="1162" y="464" type="line"/>
      <point x="1035" y="464" type="line"/>
      <point x="1053" y="270" type="line"/>
      <point x="1076.06" y="80.5206"/>
      <point x="1205.37" y="-34"/>
      <point x="1468" y="-34" type="curve" smooth="yes"/>
      <point x="1822" y="-34"/>
      <point x="1999" y="209.025"/>
    </contour>
  </outline>
</glyph>
<glyph name="Basmall1.kn" format="2">
  <outline>
    <contour>
      <point x="-50.4167" y="-145.75" type="curve" smooth="yes"/>
      <point x="-71.9167" y="-145.75"/>
      <point x="-90.9167" y="-147.333"/>
      <point x="-108.5" y="-149.5" type="curve"/>
      <point x="-108.5" y="-290.667" type="line"/>
      <point x="-95.5833" y="-290.083"/>
      <point x="-82.4167" y="-289.083"/>
      <point x="-69.6667" y="-289.083" type="curve" smooth="yes"/>
      <point x="54.25" y="-289.083"/>
      <point x="117.417" y="-352.381"/>
      <point x="117.417" y="-472.5" type="curve" smooth="yes"/>
      <point x="117.417" y="-477.667" type="line" smooth="yes"/>
      <point x="117.417" y="-583.699"/>
      <point x="68.0833" y="-643.75"/>
      <point x="-25.4167" y="-643.75" type="curve" smooth="yes"/>
      <point x="-117.083" y="-643.75"/>
      <point x="-151.968" y="-605.032"/>
      <point x="-162.5" y="-526.917" type="curve" smooth="yes"/>
      <point x="-164.5" y="-512.083" type="line"/>
      <point x="-261" y="-512.083" type="line"/>
      <point x="-244.667" y="-639.833" type="line"/>
      <point x="-222.094" y="-737.694"/>
      <point x="-144.415" y="-787.833"/>
      <point x="-3.25" y="-787.833" type="curve" smooth="yes"/>
      <point x="187.417" y="-787.833"/>
      <point x="284.833" y="-679.417"/>
      <point x="284.833" y="-482.333" type="curve" smooth="yes"/>
      <point x="284.833" y="-476" type="line" smooth="yes"/>
      <point x="284.833" y="-262.167"/>
      <point x="168.417" y="-145.75"/>
    </contour>
    <contour>
      <point x="-496" y="-133" type="curve" smooth="yes"/>
      <point x="-678" y="-133"/>
      <point x="-779" y="-200"/>
      <point x="-779" y="-323" type="curve"/>
      <point x="-779" y="-323"/>
      <point x="-779" y="-324"/>
      <point x="-779" y="-324" type="curve"/>
      <point x="-779" y="-354"/>
      <point x="-772.35" y="-381"/>
      <point x="-760" y="-402" type="curve"/>
      <point x="-612" y="-402" type="line"/>
      <point x="-620.571" y="-382"/>
      <point x="-624" y="-363"/>
      <point x="-624" y="-345" type="curve"/>
      <point x="-624" y="-345"/>
      <point x="-624" y="-343"/>
      <point x="-624" y="-343" type="curve"/>
      <point x="-624" y="-292.293"/>
      <point x="-581.323" y="-266"/>
      <point x="-495" y="-266" type="curve" smooth="yes"/>
      <point x="-420.61" y="-266"/>
      <point x="-381" y="-285.279"/>
      <point x="-381" y="-322" type="curve"/>
      <point x="-381" y="-323" type="line"/>
      <point x="-381" y="-355.954"/>
      <point x="-409.869" y="-371.552"/>
      <point x="-485" y="-386" type="curve" smooth="yes"/>
      <point x="-563" y="-401" type="line" smooth="yes"/>
      <point x="-727.147" y="-432.567"/>
      <point x="-793" y="-489.898"/>
      <point x="-793" y="-599" type="curve" smooth="yes"/>
      <point x="-793" y="-603" type="line" smooth="yes"/>
      <point x="-793" y="-720"/>
      <point x="-692" y="-788"/>
      <point x="-514" y="-788" type="curve" smooth="yes"/>
      <point x="-359" y="-788"/>
      <point x="-270" y="-735"/>
      <point x="-250" y="-640" type="curve"/>
      <point x="-208" y="-640" type="line"/>
      <point x="-230" y="-512" type="line"/>
      <point x="-330" y="-512" type="line"/>
      <point x="-332" y="-527" type="line" smooth="yes"/>
      <point x="-342.179" y="-603.345"/>
      <point x="-394" y="-648"/>
      <point x="-509" y="-648" type="curve" smooth="yes"/>
      <point x="-589.032" y="-648"/>
      <point x="-631" y="-626.361"/>
      <point x="-631" y="-588" type="curve"/>
      <point x="-631" y="-586" type="line"/>
      <point x="-631" y="-553.437"/>
      <point x="-594.897" y="-536.057"/>
      <point x="-506" y="-518" type="curve" smooth="yes"/>
      <point x="-442" y="-505" type="line" smooth="yes"/>
      <point x="-287.752" y="-473.668"/>
      <point x="-223" y="-425.678"/>
      <point x="-223" y="-325" type="curve" smooth="yes"/>
      <point x="-223" y="-322" type="line" smooth="yes"/>
      <point x="-223" y="-200"/>
      <point x="-320" y="-133"/>
    </contour>
  </outline>
</glyph>
<glyph name="BhaHalant.kn" format="2">
  <advance width="2913"/>
  <outline>
    <component base="BaHalant.kn"/>
    <contour>
      <point x="1043" y="-423" type="curve" smooth="yes"/>
      <point x="1122" y="-423"/>
      <point x="1161" y="-373.616"/>
      <point x="1161" y="-278" type="curve" smooth="yes"/>
      <point x="1161" y="-272" type="line" smooth="yes"/>
      <point x="1161" y="-135.72"/>
      <point x="1123" y="-32.3597"/>
      <point x="1043" y="79" type="curve"/>
      <point x="964" y="-32.3597"/>
      <point x="926" y="-135.72"/>
      <point x="926" y="-272" type="curve" smooth="yes"/>
      <point x="926" y="-278" type="line" smooth="yes"/>
      <point x="926" y="-373.616"/>
      <point x="965" y="-423"/>
    </contour>
  </outline>
</glyph>
<glyph name="BhamatraI.kn.1" format="2">
  <advance width="2129"/>
  <outline>
    <component base="BamatraI.kn.1"/>
    <contour>
      <point x="1049" y="-423" type="curve" smooth="yes"/>
      <point x="1128" y="-423"/>
      <point x="1167" y="-373.616"/>
      <point x="1167" y="-278" type="curve" smooth="yes"/>
      <point x="1167" y="-272" type="line" smooth="yes"/>
      <point x="1167" y="-135.72"/>
      <point x="1129" y="-32.3597"/>
      <point x="1049" y="79" type="curve"/>
      <point x="970" y="-32.3597"/>
      <point x="932" y="-135.72"/>
      <point x="932" y="-272" type="curve" smooth="yes"/>
      <point x="932" y="-278" type="line" smooth="yes"/>
      <point x="932" y="-373.616"/>
      <point x="971" y="-423"/>
    </contour>
  </outline>
  <guideline angle="0" x="0" y="-274"/>
  <guideline angle="90" x="82" y="0"/>
</glyph>
<glyph name="Bhasmall1.kn" format="2">
  <outline>
    <component base="Basmall1.kn"/>
    <contour>
      <point x="-247.75" y="-735.667" type="curve"/>
      <point x="-314.583" y="-801.252"/>
      <point x="-339.167" y="-864.052"/>
      <point x="-339.167" y="-935.833" type="curve" smooth="yes"/>
      <point x="-339.167" y="-941.5" type="line" smooth="yes"/>
      <point x="-339.167" y="-1002.19"/>
      <point x="-309.25" y="-1034.83"/>
      <point x="-247.333" y="-1034.83" type="curve" smooth="yes"/>
      <point x="-187.75" y="-1034.83"/>
      <point x="-156.083" y="-1002.19"/>
      <point x="-156.083" y="-941.5" type="curve" smooth="yes"/>
      <point x="-156.083" y="-935.833" type="line" smooth="yes"/>
      <point x="-156.083" y="-864.052"/>
      <point x="-181.333" y="-800.431"/>
    </contour>
  </outline>
</glyph>
